<svg width="375" height="667" viewBox="0 0 375 667" fill="none" xmlns="http://www.w3.org/2000/svg">
<g clip-path="url(#clip0_11_31)">
<rect width="375" height="667" fill="#9E479E"/>
<ellipse cx="197.389" cy="323.611" rx="91.8278" ry="139.861" fill="white"/>
<line x1="229.267" y1="295.296" x2="339.461" y2="363.107" stroke="white" stroke-width="30"/>
<line x1="145.733" y1="402.784" x2="35.5395" y2="334.973" stroke="white" stroke-width="30"/>
<line x1="-15.9967" y1="572.351" x2="388.046" y2="103.323" stroke="black" stroke-width="30"/>
<ellipse cx="197.389" cy="185.163" rx="40.9693" ry="32.4929" fill="white"/>
<line x1="148.558" y1="264.336" x2="38.365" y2="196.525" stroke="white" stroke-width="30"/>
<line x1="134.431" y1="326.497" x2="24.2376" y2="258.685" stroke="white" stroke-width="30"/>
<line x1="226.442" y1="433.744" x2="336.635" y2="501.555" stroke="white" stroke-width="30"/>
<line x1="240.569" y1="371.584" x2="350.762" y2="439.395" stroke="white" stroke-width="30"/>
<rect x="-8" width="282" height="10" fill="white"/>
<rect x="-8" width="282" height="10" fill="white"/>
<rect x="-8" width="282" height="10" fill="white"/>
<rect x="-8" width="282" height="10" fill="white"/>
<path d="M52.5341 582H46.9375V567.455H52.4773C53.9735 567.455 55.2661 567.746 56.3551 568.328C57.4489 568.906 58.2917 569.739 58.8835 570.828C59.4801 571.912 59.7784 573.212 59.7784 574.727C59.7784 576.242 59.4825 577.545 58.8906 578.634C58.2988 579.718 57.4607 580.551 56.3764 581.134C55.2921 581.711 54.0114 582 52.5341 582ZM50.8864 578.648H52.392C53.1117 578.648 53.7249 578.532 54.2315 578.3C54.7429 578.068 55.1312 577.668 55.3963 577.099C55.6662 576.531 55.8011 575.741 55.8011 574.727C55.8011 573.714 55.6638 572.923 55.3892 572.355C55.1193 571.787 54.7216 571.387 54.196 571.155C53.6752 570.923 53.036 570.807 52.2784 570.807H50.8864V578.648ZM66.8896 582.199C65.7248 582.199 64.721 581.976 63.8782 581.531C63.0401 581.081 62.3938 580.437 61.9393 579.599C61.4895 578.757 61.2646 577.748 61.2646 576.574C61.2646 575.447 61.4918 574.462 61.9464 573.619C62.4009 572.777 63.0425 572.121 63.8711 571.652C64.6997 571.183 65.6774 570.949 66.8043 570.949C67.6282 570.949 68.3739 571.077 69.0415 571.332C69.7092 571.588 70.2797 571.96 70.7532 572.447C71.2267 572.93 71.5913 573.518 71.8469 574.209C72.1026 574.9 72.2305 575.679 72.2305 576.545V577.455H62.4862V575.295H68.6225C68.6178 574.983 68.5373 574.708 68.381 574.472C68.2295 574.23 68.0236 574.043 67.7631 573.911C67.5075 573.773 67.2163 573.705 66.8896 573.705C66.5723 573.705 66.2811 573.773 66.016 573.911C65.7508 574.043 65.5378 574.228 65.3768 574.464C65.2205 574.701 65.1377 574.978 65.1282 575.295V577.625C65.1282 577.975 65.2016 578.288 65.3484 578.562C65.4951 578.837 65.7058 579.053 65.9805 579.209C66.2551 579.365 66.5865 579.443 66.9748 579.443C67.2447 579.443 67.4909 579.405 67.7134 579.33C67.9407 579.254 68.1348 579.145 68.2958 579.003C68.4568 578.856 68.5752 578.681 68.6509 578.477H72.2305C72.1074 579.235 71.8162 579.893 71.3569 580.452C70.8976 581.006 70.2892 581.437 69.5316 581.744C68.7788 582.047 67.8981 582.199 66.8896 582.199ZM73.7734 582V567.455H77.6939V572.994H77.7507C77.8928 572.625 78.1011 572.286 78.3757 571.979C78.6503 571.666 78.9912 571.418 79.3984 571.233C79.8056 571.044 80.2791 570.949 80.8189 570.949C81.5386 570.949 82.2228 571.141 82.8714 571.524C83.5249 571.908 84.0552 572.511 84.4624 573.335C84.8743 574.159 85.0803 575.229 85.0803 576.545C85.0803 577.805 84.8838 578.849 84.4908 579.678C84.1025 580.506 83.5817 581.124 82.9283 581.531C82.2796 581.938 81.567 582.142 80.7905 582.142C80.2791 582.142 79.8222 582.059 79.4197 581.893C79.022 581.723 78.6811 581.493 78.397 581.205C78.1177 580.911 77.9022 580.58 77.7507 580.21H77.6655V582H73.7734ZM77.6087 576.545C77.6087 577.076 77.6773 577.535 77.8146 577.923C77.9567 578.307 78.1555 578.605 78.4112 578.818C78.6716 579.027 78.9818 579.131 79.3416 579.131C79.7015 579.131 80.0069 579.029 80.2578 578.825C80.5135 578.617 80.7076 578.321 80.8402 577.938C80.9775 577.549 81.0462 577.085 81.0462 576.545C81.0462 576.006 80.9775 575.544 80.8402 575.161C80.7076 574.772 80.5135 574.476 80.2578 574.273C80.0069 574.064 79.7015 573.96 79.3416 573.96C78.9818 573.96 78.6716 574.064 78.4112 574.273C78.1555 574.476 77.9567 574.772 77.8146 575.161C77.6773 575.544 77.6087 576.006 77.6087 576.545ZM93.7947 577.227V571.091H97.7152V582H93.9936V579.926H93.88C93.6432 580.622 93.2289 581.167 92.6371 581.56C92.0452 581.948 91.3421 582.142 90.5277 582.142C89.7654 582.142 89.0978 581.967 88.5249 581.616C87.9567 581.266 87.514 580.783 87.1967 580.168C86.8842 579.552 86.7256 578.847 86.7209 578.051V571.091H90.6413V577.227C90.6461 577.767 90.7834 578.191 91.0533 578.499C91.3279 578.806 91.7114 578.96 92.2038 578.96C92.5305 578.96 92.8123 578.892 93.049 578.754C93.2905 578.612 93.4751 578.413 93.603 578.158C93.7356 577.897 93.7995 577.587 93.7947 577.227ZM104.965 586.318C103.871 586.318 102.934 586.162 102.152 585.849C101.376 585.542 100.772 585.116 100.341 584.571C99.9151 584.031 99.676 583.411 99.6239 582.71H103.402C103.44 582.942 103.535 583.129 103.686 583.271C103.838 583.413 104.032 583.515 104.269 583.577C104.51 583.643 104.78 583.676 105.078 583.676C105.585 583.676 106.004 583.553 106.336 583.307C106.672 583.061 106.84 582.616 106.84 581.972V580.125H106.726C106.584 580.494 106.366 580.809 106.073 581.07C105.779 581.325 105.426 581.522 105.015 581.659C104.603 581.792 104.15 581.858 103.658 581.858C102.882 581.858 102.167 581.678 101.513 581.318C100.864 580.958 100.344 580.388 99.9506 579.607C99.5624 578.825 99.3683 577.805 99.3683 576.545C99.3683 575.229 99.5719 574.159 99.979 573.335C100.391 572.511 100.921 571.908 101.57 571.524C102.223 571.141 102.91 570.949 103.63 570.949C104.169 570.949 104.643 571.044 105.05 571.233C105.457 571.418 105.798 571.666 106.073 571.979C106.347 572.286 106.556 572.625 106.698 572.994H106.783V571.091H110.703V581.972C110.703 582.895 110.464 583.679 109.986 584.322C109.513 584.971 108.845 585.466 107.983 585.807C107.122 586.148 106.115 586.318 104.965 586.318ZM105.107 579.074C105.467 579.074 105.775 578.974 106.03 578.776C106.291 578.572 106.489 578.283 106.627 577.909C106.769 577.53 106.84 577.076 106.84 576.545C106.84 576.006 106.769 575.544 106.627 575.161C106.489 574.772 106.291 574.476 106.03 574.273C105.775 574.064 105.467 573.96 105.107 573.96C104.747 573.96 104.439 574.064 104.184 574.273C103.933 574.476 103.739 574.772 103.601 575.161C103.469 575.544 103.402 576.006 103.402 576.545C103.402 577.085 103.469 577.545 103.601 577.923C103.739 578.297 103.933 578.584 104.184 578.783C104.439 578.977 104.747 579.074 105.107 579.074ZM117.953 586.318C116.859 586.318 115.922 586.162 115.141 585.849C114.364 585.542 113.76 585.116 113.33 584.571C112.903 584.031 112.664 583.411 112.612 582.71H116.391C116.429 582.942 116.523 583.129 116.675 583.271C116.826 583.413 117.02 583.515 117.257 583.577C117.499 583.643 117.768 583.676 118.067 583.676C118.573 583.676 118.992 583.553 119.324 583.307C119.66 583.061 119.828 582.616 119.828 581.972V580.125H119.714C119.572 580.494 119.355 580.809 119.061 581.07C118.768 581.325 118.415 581.522 118.003 581.659C117.591 581.792 117.139 581.858 116.646 581.858C115.87 581.858 115.155 581.678 114.501 581.318C113.853 580.958 113.332 580.388 112.939 579.607C112.551 578.825 112.357 577.805 112.357 576.545C112.357 575.229 112.56 574.159 112.967 573.335C113.379 572.511 113.91 571.908 114.558 571.524C115.212 571.141 115.898 570.949 116.618 570.949C117.158 570.949 117.631 571.044 118.038 571.233C118.446 571.418 118.786 571.666 119.061 571.979C119.336 572.286 119.544 572.625 119.686 572.994H119.771V571.091H123.692V581.972C123.692 582.895 123.453 583.679 122.974 584.322C122.501 584.971 121.833 585.466 120.972 585.807C120.11 586.148 119.104 586.318 117.953 586.318ZM118.095 579.074C118.455 579.074 118.763 578.974 119.018 578.776C119.279 578.572 119.478 578.283 119.615 577.909C119.757 577.53 119.828 577.076 119.828 576.545C119.828 576.006 119.757 575.544 119.615 575.161C119.478 574.772 119.279 574.476 119.018 574.273C118.763 574.064 118.455 573.96 118.095 573.96C117.735 573.96 117.428 574.064 117.172 574.273C116.921 574.476 116.727 574.772 116.589 575.161C116.457 575.544 116.391 576.006 116.391 576.545C116.391 577.085 116.457 577.545 116.589 577.923C116.727 578.297 116.921 578.584 117.172 578.783C117.428 578.977 117.735 579.074 118.095 579.074ZM130.913 582.199C129.748 582.199 128.744 581.976 127.902 581.531C127.064 581.081 126.417 580.437 125.963 579.599C125.513 578.757 125.288 577.748 125.288 576.574C125.288 575.447 125.515 574.462 125.97 573.619C126.424 572.777 127.066 572.121 127.895 571.652C128.723 571.183 129.701 570.949 130.828 570.949C131.652 570.949 132.397 571.077 133.065 571.332C133.733 571.588 134.303 571.96 134.777 572.447C135.25 572.93 135.615 573.518 135.87 574.209C136.126 574.9 136.254 575.679 136.254 576.545V577.455H126.51V575.295H132.646C132.641 574.983 132.561 574.708 132.404 574.472C132.253 574.23 132.047 574.043 131.787 573.911C131.531 573.773 131.24 573.705 130.913 573.705C130.596 573.705 130.305 573.773 130.039 573.911C129.774 574.043 129.561 574.228 129.4 574.464C129.244 574.701 129.161 574.978 129.152 575.295V577.625C129.152 577.975 129.225 578.288 129.372 578.562C129.519 578.837 129.729 579.053 130.004 579.209C130.279 579.365 130.61 579.443 130.998 579.443C131.268 579.443 131.514 579.405 131.737 579.33C131.964 579.254 132.158 579.145 132.319 579.003C132.48 578.856 132.599 578.681 132.674 578.477H136.254C136.131 579.235 135.84 579.893 135.38 580.452C134.921 581.006 134.313 581.437 133.555 581.744C132.802 582.047 131.922 582.199 130.913 582.199ZM137.854 582V571.091H141.661V573.165H141.774C141.973 572.398 142.288 571.837 142.719 571.482C143.154 571.126 143.663 570.949 144.246 570.949C144.416 570.949 144.584 570.963 144.75 570.991C144.92 571.015 145.084 571.051 145.24 571.098V574.443C145.046 574.377 144.807 574.327 144.523 574.294C144.239 574.261 143.995 574.244 143.791 574.244C143.408 574.244 143.062 574.332 142.754 574.507C142.451 574.678 142.212 574.919 142.037 575.232C141.862 575.539 141.774 575.902 141.774 576.318V582H137.854ZM148.656 582.227C148.107 582.227 147.636 582.036 147.243 581.652C146.855 581.264 146.663 580.793 146.668 580.239C146.663 579.699 146.855 579.237 147.243 578.854C147.636 578.47 148.107 578.278 148.656 578.278C149.177 578.278 149.636 578.47 150.034 578.854C150.437 579.237 150.64 579.699 150.645 580.239C150.64 580.608 150.543 580.944 150.354 581.247C150.169 581.545 149.928 581.785 149.629 581.964C149.331 582.14 149.007 582.227 148.656 582.227ZM148.656 574.898C148.107 574.898 147.636 574.706 147.243 574.322C146.855 573.934 146.663 573.463 146.668 572.909C146.663 572.369 146.855 571.908 147.243 571.524C147.636 571.141 148.107 570.949 148.656 570.949C149.177 570.949 149.636 571.141 150.034 571.524C150.437 571.908 150.64 572.369 150.645 572.909C150.64 573.278 150.543 573.615 150.354 573.918C150.169 574.216 149.928 574.455 149.629 574.635C149.331 574.81 149.007 574.898 148.656 574.898ZM156.703 567.455H161.618L164.999 575.693H165.169L168.55 567.455H173.464V582H169.601V573.591H169.487L166.249 581.886H163.919L160.68 573.534H160.567V582H156.703V567.455ZM180.648 582.199C179.465 582.199 178.451 581.964 177.609 581.496C176.766 581.022 176.12 580.364 175.67 579.521C175.22 578.674 174.995 577.691 174.995 576.574C174.995 575.456 175.22 574.476 175.67 573.634C176.12 572.786 176.766 572.128 177.609 571.659C178.451 571.186 179.465 570.949 180.648 570.949C181.832 570.949 182.845 571.186 183.688 571.659C184.531 572.128 185.177 572.786 185.627 573.634C186.077 574.476 186.302 575.456 186.302 576.574C186.302 577.691 186.077 578.674 185.627 579.521C185.177 580.364 184.531 581.022 183.688 581.496C182.845 581.964 181.832 582.199 180.648 582.199ZM180.677 579.301C181.008 579.301 181.295 579.19 181.536 578.967C181.778 578.745 181.965 578.428 182.097 578.016C182.23 577.604 182.296 577.114 182.296 576.545C182.296 575.973 182.23 575.482 182.097 575.075C181.965 574.663 181.778 574.346 181.536 574.124C181.295 573.901 181.008 573.79 180.677 573.79C180.326 573.79 180.026 573.901 179.775 574.124C179.524 574.346 179.332 574.663 179.2 575.075C179.067 575.482 179.001 575.973 179.001 576.545C179.001 577.114 179.067 577.604 179.2 578.016C179.332 578.428 179.524 578.745 179.775 578.967C180.026 579.19 180.326 579.301 180.677 579.301ZM187.836 582V567.455H191.756V572.994H191.813C191.955 572.625 192.164 572.286 192.438 571.979C192.713 571.666 193.054 571.418 193.461 571.233C193.868 571.044 194.342 570.949 194.881 570.949C195.601 570.949 196.285 571.141 196.934 571.524C197.587 571.908 198.118 572.511 198.525 573.335C198.937 574.159 199.143 575.229 199.143 576.545C199.143 577.805 198.946 578.849 198.553 579.678C198.165 580.506 197.644 581.124 196.991 581.531C196.342 581.938 195.629 582.142 194.853 582.142C194.342 582.142 193.885 582.059 193.482 581.893C193.085 581.723 192.744 581.493 192.46 581.205C192.18 580.911 191.965 580.58 191.813 580.21H191.728V582H187.836ZM191.671 576.545C191.671 577.076 191.74 577.535 191.877 577.923C192.019 578.307 192.218 578.605 192.474 578.818C192.734 579.027 193.044 579.131 193.404 579.131C193.764 579.131 194.069 579.029 194.32 578.825C194.576 578.617 194.77 578.321 194.903 577.938C195.04 577.549 195.109 577.085 195.109 576.545C195.109 576.006 195.04 575.544 194.903 575.161C194.77 574.772 194.576 574.476 194.32 574.273C194.069 574.064 193.764 573.96 193.404 573.96C193.044 573.96 192.734 574.064 192.474 574.273C192.218 574.476 192.019 574.772 191.877 575.161C191.74 575.544 191.671 576.006 191.671 576.545ZM200.783 582V571.091H204.704V582H200.783ZM202.744 569.955C202.213 569.955 201.759 569.779 201.38 569.429C201.001 569.079 200.812 568.657 200.812 568.165C200.812 567.672 201.001 567.251 201.38 566.901C201.759 566.55 202.213 566.375 202.744 566.375C203.279 566.375 203.733 566.55 204.107 566.901C204.486 567.251 204.675 567.672 204.675 568.165C204.675 568.657 204.486 569.079 204.107 569.429C203.733 569.779 203.279 569.955 202.744 569.955ZM210.622 567.455V582H206.701V567.455H210.622ZM217.847 582.199C216.682 582.199 215.678 581.976 214.835 581.531C213.997 581.081 213.351 580.437 212.896 579.599C212.446 578.757 212.222 577.748 212.222 576.574C212.222 575.447 212.449 574.462 212.903 573.619C213.358 572.777 214 572.121 214.828 571.652C215.657 571.183 216.634 570.949 217.761 570.949C218.585 570.949 219.331 571.077 219.999 571.332C220.666 571.588 221.237 571.96 221.71 572.447C222.184 572.93 222.548 573.518 222.804 574.209C223.06 574.9 223.188 575.679 223.188 576.545V577.455H213.443V575.295H219.58C219.575 574.983 219.494 574.708 219.338 574.472C219.187 574.23 218.981 574.043 218.72 573.911C218.464 573.773 218.173 573.705 217.847 573.705C217.529 573.705 217.238 573.773 216.973 573.911C216.708 574.043 216.495 574.228 216.334 574.464C216.178 574.701 216.095 574.978 216.085 575.295V577.625C216.085 577.975 216.159 578.288 216.305 578.562C216.452 578.837 216.663 579.053 216.938 579.209C217.212 579.365 217.544 579.443 217.932 579.443C218.202 579.443 218.448 579.405 218.67 579.33C218.898 579.254 219.092 579.145 219.253 579.003C219.414 578.856 219.532 578.681 219.608 578.477H223.188C223.064 579.235 222.773 579.893 222.314 580.452C221.855 581.006 221.246 581.437 220.489 581.744C219.736 582.047 218.855 582.199 217.847 582.199ZM228.715 582V567.455H232.635V572.994H232.692C232.834 572.625 233.042 572.286 233.317 571.979C233.592 571.666 233.933 571.418 234.34 571.233C234.747 571.044 235.221 570.949 235.76 570.949C236.48 570.949 237.164 571.141 237.813 571.524C238.466 571.908 238.997 572.511 239.404 573.335C239.816 574.159 240.022 575.229 240.022 576.545C240.022 577.805 239.825 578.849 239.432 579.678C239.044 580.506 238.523 581.124 237.87 581.531C237.221 581.938 236.508 582.142 235.732 582.142C235.221 582.142 234.764 582.059 234.361 581.893C233.963 581.723 233.623 581.493 233.338 581.205C233.059 580.911 232.844 580.58 232.692 580.21H232.607V582H228.715ZM232.55 576.545C232.55 577.076 232.619 577.535 232.756 577.923C232.898 578.307 233.097 578.605 233.353 578.818C233.613 579.027 233.923 579.131 234.283 579.131C234.643 579.131 234.948 579.029 235.199 578.825C235.455 578.617 235.649 578.321 235.782 577.938C235.919 577.549 235.988 577.085 235.988 576.545C235.988 576.006 235.919 575.544 235.782 575.161C235.649 574.772 235.455 574.476 235.199 574.273C234.948 574.064 234.643 573.96 234.283 573.96C233.923 573.96 233.613 574.064 233.353 574.273C233.097 574.476 232.898 574.772 232.756 575.161C232.619 575.544 232.55 576.006 232.55 576.545ZM246.918 582.199C245.734 582.199 244.721 581.964 243.878 581.496C243.035 581.022 242.389 580.364 241.939 579.521C241.489 578.674 241.265 577.691 241.265 576.574C241.265 575.456 241.489 574.476 241.939 573.634C242.389 572.786 243.035 572.128 243.878 571.659C244.721 571.186 245.734 570.949 246.918 570.949C248.102 570.949 249.115 571.186 249.958 571.659C250.801 572.128 251.447 572.786 251.897 573.634C252.346 574.476 252.571 575.456 252.571 576.574C252.571 577.691 252.346 578.674 251.897 579.521C251.447 580.364 250.801 581.022 249.958 581.496C249.115 581.964 248.102 582.199 246.918 582.199ZM246.946 579.301C247.278 579.301 247.564 579.19 247.806 578.967C248.047 578.745 248.234 578.428 248.367 578.016C248.499 577.604 248.566 577.114 248.566 576.545C248.566 575.973 248.499 575.482 248.367 575.075C248.234 574.663 248.047 574.346 247.806 574.124C247.564 573.901 247.278 573.79 246.946 573.79C246.596 573.79 246.295 573.901 246.044 574.124C245.793 574.346 245.602 574.663 245.469 575.075C245.337 575.482 245.27 575.973 245.27 576.545C245.27 577.114 245.337 577.604 245.469 578.016C245.602 578.428 245.793 578.745 246.044 578.967C246.295 579.19 246.596 579.301 246.946 579.301ZM244.674 569.812C244.191 569.812 243.781 569.652 243.445 569.33C243.109 569.008 242.941 568.619 242.941 568.165C242.941 567.71 243.109 567.322 243.445 567C243.781 566.678 244.191 566.517 244.674 566.517C245.142 566.517 245.542 566.678 245.874 567C246.21 567.322 246.378 567.71 246.378 568.165C246.378 568.619 246.21 569.008 245.874 569.33C245.542 569.652 245.142 569.812 244.674 569.812ZM249.191 569.812C248.708 569.812 248.298 569.652 247.962 569.33C247.626 569.008 247.458 568.619 247.458 568.165C247.458 567.71 247.626 567.322 247.962 567C248.298 566.678 248.708 566.517 249.191 566.517C249.659 566.517 250.06 566.678 250.391 567C250.727 567.322 250.895 567.71 250.895 568.165C250.895 568.619 250.727 569.008 250.391 569.33C250.06 569.652 249.659 569.812 249.191 569.812ZM259.418 582.199C258.234 582.199 257.221 581.964 256.378 581.496C255.535 581.022 254.889 580.364 254.439 579.521C253.989 578.674 253.765 577.691 253.765 576.574C253.765 575.456 253.989 574.476 254.439 573.634C254.889 572.786 255.535 572.128 256.378 571.659C257.221 571.186 258.234 570.949 259.418 570.949C260.488 570.949 261.414 571.143 262.195 571.531C262.981 571.915 263.589 572.459 264.02 573.165C264.451 573.866 264.669 574.689 264.674 575.636H261.037C260.985 575.063 260.819 574.628 260.54 574.33C260.266 574.027 259.91 573.875 259.475 573.875C259.134 573.875 258.836 573.974 258.58 574.173C258.324 574.367 258.125 574.663 257.983 575.061C257.841 575.454 257.77 575.949 257.77 576.545C257.77 577.142 257.841 577.639 257.983 578.037C258.125 578.43 258.324 578.726 258.58 578.925C258.836 579.119 259.134 579.216 259.475 579.216C259.764 579.216 260.019 579.15 260.242 579.017C260.464 578.88 260.644 578.681 260.782 578.42C260.924 578.155 261.009 577.833 261.037 577.455H264.674C264.659 578.416 264.439 579.254 264.013 579.969C263.587 580.679 262.983 581.228 262.202 581.616C261.426 582.005 260.498 582.199 259.418 582.199ZM271.518 582.199C270.354 582.199 269.35 581.976 268.507 581.531C267.669 581.081 267.023 580.437 266.568 579.599C266.118 578.757 265.893 577.748 265.893 576.574C265.893 575.447 266.121 574.462 266.575 573.619C267.03 572.777 267.671 572.121 268.5 571.652C269.329 571.183 270.306 570.949 271.433 570.949C272.257 570.949 273.003 571.077 273.67 571.332C274.338 571.588 274.909 571.96 275.382 572.447C275.856 572.93 276.22 573.518 276.476 574.209C276.732 574.9 276.859 575.679 276.859 576.545V577.455H267.115V575.295H273.251C273.247 574.983 273.166 574.708 273.01 574.472C272.858 574.23 272.652 574.043 272.392 573.911C272.136 573.773 271.845 573.705 271.518 573.705C271.201 573.705 270.91 573.773 270.645 573.911C270.38 574.043 270.167 574.228 270.006 574.464C269.849 574.701 269.767 574.978 269.757 575.295V577.625C269.757 577.975 269.83 578.288 269.977 578.562C270.124 578.837 270.335 579.053 270.609 579.209C270.884 579.365 271.215 579.443 271.604 579.443C271.874 579.443 272.12 579.405 272.342 579.33C272.57 579.254 272.764 579.145 272.925 579.003C273.086 578.856 273.204 578.681 273.28 578.477H276.859C276.736 579.235 276.445 579.893 275.986 580.452C275.527 581.006 274.918 581.437 274.161 581.744C273.408 582.047 272.527 582.199 271.518 582.199ZM281.982 579.415L282.01 574.756H282.522L285.164 571.091H289.567L285.135 576.801H284.027L281.982 579.415ZM278.459 582V567.455H282.38V582H278.459ZM285.192 582L282.692 577.682L285.249 574.898L289.681 582H285.192ZM304.544 574.642H300.936C300.917 574.42 300.839 574.228 300.702 574.067C300.564 573.906 300.387 573.783 300.169 573.697C299.956 573.607 299.719 573.562 299.459 573.562C299.123 573.562 298.834 573.624 298.592 573.747C298.351 573.87 298.232 574.045 298.237 574.273C298.232 574.434 298.301 574.583 298.443 574.72C298.59 574.857 298.872 574.964 299.288 575.04L301.504 575.438C302.622 575.641 303.453 575.984 303.997 576.467C304.546 576.946 304.823 577.587 304.828 578.392C304.823 579.169 304.591 579.843 304.132 580.416C303.678 580.984 303.055 581.425 302.264 581.737C301.478 582.045 300.581 582.199 299.572 582.199C297.906 582.199 296.601 581.858 295.659 581.176C294.722 580.494 294.198 579.595 294.089 578.477H297.982C298.034 578.823 298.204 579.09 298.493 579.28C298.786 579.464 299.156 579.557 299.601 579.557C299.961 579.557 300.257 579.495 300.489 579.372C300.725 579.249 300.846 579.074 300.851 578.847C300.846 578.638 300.742 578.473 300.538 578.349C300.339 578.226 300.027 578.127 299.601 578.051L297.669 577.71C296.556 577.516 295.723 577.147 295.169 576.602C294.615 576.058 294.34 575.357 294.345 574.5C294.34 573.742 294.539 573.101 294.942 572.575C295.349 572.045 295.929 571.643 296.682 571.368C297.439 571.089 298.337 570.949 299.374 570.949C300.95 570.949 302.193 571.276 303.102 571.929C304.016 572.582 304.497 573.487 304.544 574.642ZM309.37 582.17C308.674 582.17 308.058 582.057 307.523 581.83C306.993 581.598 306.576 581.247 306.273 580.778C305.97 580.31 305.819 579.713 305.819 578.989C305.819 578.392 305.921 577.883 306.124 577.462C306.328 577.036 306.612 576.688 306.977 576.418C307.341 576.148 307.765 575.942 308.248 575.8C308.736 575.658 309.261 575.565 309.825 575.523C310.435 575.475 310.925 575.419 311.295 575.352C311.669 575.281 311.939 575.184 312.104 575.061C312.27 574.933 312.353 574.765 312.353 574.557V574.528C312.353 574.244 312.244 574.027 312.026 573.875C311.808 573.723 311.529 573.648 311.188 573.648C310.814 573.648 310.509 573.731 310.272 573.896C310.04 574.057 309.9 574.306 309.853 574.642H306.245C306.292 573.979 306.503 573.368 306.877 572.81C307.256 572.246 307.808 571.796 308.532 571.46C309.256 571.119 310.161 570.949 311.245 570.949C312.026 570.949 312.727 571.041 313.347 571.226C313.968 571.406 314.496 571.659 314.931 571.986C315.367 572.308 315.698 572.687 315.925 573.122C316.157 573.553 316.273 574.022 316.273 574.528V582H312.609V580.466H312.523C312.306 580.873 312.04 581.202 311.728 581.453C311.42 581.704 311.067 581.886 310.67 582C310.277 582.114 309.844 582.17 309.37 582.17ZM310.648 579.699C310.947 579.699 311.226 579.637 311.487 579.514C311.752 579.391 311.967 579.214 312.133 578.982C312.299 578.75 312.381 578.468 312.381 578.136V577.227C312.277 577.27 312.166 577.31 312.048 577.348C311.934 577.386 311.811 577.421 311.678 577.455C311.55 577.488 311.413 577.518 311.266 577.547C311.124 577.575 310.975 577.601 310.819 577.625C310.516 577.672 310.267 577.75 310.073 577.859C309.884 577.964 309.742 578.094 309.647 578.25C309.557 578.402 309.512 578.572 309.512 578.761C309.512 579.064 309.619 579.296 309.832 579.457C310.045 579.618 310.317 579.699 310.648 579.699ZM328.75 571.091L325.086 582H320.54L316.875 571.091H320.995L322.756 578.307H322.87L324.631 571.091H328.75ZM332.632 582.17C331.936 582.17 331.32 582.057 330.785 581.83C330.255 581.598 329.838 581.247 329.535 580.778C329.232 580.31 329.081 579.713 329.081 578.989C329.081 578.392 329.182 577.883 329.386 577.462C329.59 577.036 329.874 576.688 330.238 576.418C330.603 576.148 331.027 575.942 331.51 575.8C331.997 575.658 332.523 575.565 333.086 575.523C333.697 575.475 334.187 575.419 334.556 575.352C334.931 575.281 335.2 575.184 335.366 575.061C335.532 574.933 335.615 574.765 335.615 574.557V574.528C335.615 574.244 335.506 574.027 335.288 573.875C335.07 573.723 334.791 573.648 334.45 573.648C334.076 573.648 333.77 573.731 333.534 573.896C333.302 574.057 333.162 574.306 333.115 574.642H329.507C329.554 573.979 329.765 573.368 330.139 572.81C330.518 572.246 331.069 571.796 331.794 571.46C332.518 571.119 333.422 570.949 334.507 570.949C335.288 570.949 335.989 571.041 336.609 571.226C337.229 571.406 337.757 571.659 338.193 571.986C338.628 572.308 338.96 572.687 339.187 573.122C339.419 573.553 339.535 574.022 339.535 574.528V582H335.87V580.466H335.785C335.567 580.873 335.302 581.202 334.99 581.453C334.682 581.704 334.329 581.886 333.931 582C333.538 582.114 333.105 582.17 332.632 582.17ZM333.91 579.699C334.208 579.699 334.488 579.637 334.748 579.514C335.013 579.391 335.229 579.214 335.395 578.982C335.56 578.75 335.643 578.468 335.643 578.136V577.227C335.539 577.27 335.428 577.31 335.309 577.348C335.196 577.386 335.073 577.421 334.94 577.455C334.812 577.488 334.675 577.518 334.528 577.547C334.386 577.575 334.237 577.601 334.081 577.625C333.778 577.672 333.529 577.75 333.335 577.859C333.145 577.964 333.003 578.094 332.909 578.25C332.819 578.402 332.774 578.572 332.774 578.761C332.774 579.064 332.88 579.296 333.093 579.457C333.306 579.618 333.579 579.699 333.91 579.699ZM341.408 582V571.091H345.215V573.165H345.329C345.528 572.398 345.843 571.837 346.273 571.482C346.709 571.126 347.218 570.949 347.8 570.949C347.971 570.949 348.139 570.963 348.305 570.991C348.475 571.015 348.638 571.051 348.795 571.098V574.443C348.601 574.377 348.362 574.327 348.077 574.294C347.793 574.261 347.549 574.244 347.346 574.244C346.962 574.244 346.617 574.332 346.309 574.507C346.006 574.678 345.767 574.919 345.592 575.232C345.416 575.539 345.329 575.902 345.329 576.318V582H341.408Z" fill="white"/>
<rect x="273" y="-3" width="102" height="25" fill="white"/>
<rect x="273" y="-3" width="102" height="25" fill="white"/>
<rect x="273" y="-3" width="102" height="25" fill="white"/>
<rect x="273" y="-3" width="102" height="25" fill="white"/>
<rect x="1" y="623" width="98" height="44" fill="white"/>
<rect x="1" y="623" width="98" height="44" fill="white"/>
<rect x="1" y="623" width="98" height="44" fill="white"/>
<rect x="1" y="623" width="98" height="44" fill="white"/>
<rect x="98" y="657" width="282" height="10" fill="white"/>
<rect x="98" y="657" width="282" height="10" fill="white"/>
<rect x="98" y="657" width="282" height="10" fill="white"/>
<rect x="98" y="657" width="282" height="10" fill="white"/>
<path d="M104.27 637.318V635.727H110.591V637.318H108.403V643H106.457V637.318H104.27ZM114.392 640.614V637.545H116.352V643H114.491V641.963H114.434C114.316 642.311 114.109 642.583 113.813 642.78C113.517 642.974 113.165 643.071 112.758 643.071C112.377 643.071 112.043 642.983 111.757 642.808C111.472 642.633 111.251 642.392 111.093 642.084C110.936 641.776 110.857 641.423 110.855 641.026V637.545H112.815V640.614C112.817 640.884 112.886 641.095 113.021 641.249C113.158 641.403 113.35 641.48 113.596 641.48C113.759 641.48 113.9 641.446 114.019 641.377C114.139 641.306 114.232 641.207 114.296 641.079C114.362 640.949 114.394 640.794 114.392 640.614ZM112.488 636.906C112.247 636.906 112.042 636.826 111.874 636.665C111.706 636.504 111.622 636.31 111.622 636.082C111.622 635.855 111.706 635.661 111.874 635.5C112.042 635.339 112.247 635.259 112.488 635.259C112.722 635.259 112.923 635.339 113.088 635.5C113.256 635.661 113.34 635.855 113.34 636.082C113.34 636.31 113.256 636.504 113.088 636.665C112.923 636.826 112.722 636.906 112.488 636.906ZM114.747 636.906C114.505 636.906 114.3 636.826 114.132 636.665C113.964 636.504 113.88 636.31 113.88 636.082C113.88 635.855 113.964 635.661 114.132 635.5C114.3 635.339 114.505 635.259 114.747 635.259C114.981 635.259 115.181 635.339 115.347 635.5C115.515 635.661 115.599 635.855 115.599 636.082C115.599 636.31 115.515 636.504 115.347 636.665C115.181 636.826 114.981 636.906 114.747 636.906ZM117.349 643V637.545H119.21V638.582H119.266C119.38 638.241 119.574 637.972 119.849 637.773C120.123 637.574 120.45 637.474 120.829 637.474C121.212 637.474 121.543 637.576 121.82 637.78C122.097 637.981 122.263 638.249 122.32 638.582H122.377C122.469 638.249 122.666 637.981 122.967 637.78C123.267 637.576 123.62 637.474 124.025 637.474C124.548 637.474 124.972 637.643 125.296 637.979C125.623 638.315 125.786 638.762 125.786 639.321V643H123.826V639.818C123.826 639.579 123.766 639.392 123.645 639.257C123.524 639.12 123.362 639.051 123.158 639.051C122.957 639.051 122.797 639.12 122.679 639.257C122.563 639.392 122.505 639.579 122.505 639.818V643H120.63V639.818C120.63 639.579 120.57 639.392 120.449 639.257C120.328 639.12 120.166 639.051 119.962 639.051C119.827 639.051 119.711 639.082 119.614 639.143C119.517 639.205 119.442 639.294 119.387 639.41C119.335 639.523 119.309 639.66 119.309 639.818V643H117.349ZM130.705 639.932V643H128.745V635.727H130.634V638.582H130.691C130.814 638.234 131.019 637.963 131.306 637.769C131.592 637.573 131.936 637.474 132.339 637.474C132.725 637.474 133.06 637.562 133.344 637.737C133.63 637.912 133.852 638.154 134.008 638.462C134.167 638.769 134.245 639.122 134.242 639.52V643H132.282V639.932C132.285 639.662 132.217 639.45 132.08 639.296C131.945 639.142 131.752 639.065 131.501 639.065C131.342 639.065 131.203 639.101 131.082 639.172C130.963 639.241 130.871 639.34 130.805 639.47C130.741 639.598 130.708 639.752 130.705 639.932ZM136.73 643.085C136.382 643.085 136.074 643.028 135.807 642.915C135.541 642.799 135.333 642.624 135.182 642.389C135.03 642.155 134.954 641.857 134.954 641.494C134.954 641.196 135.005 640.942 135.107 640.731C135.209 640.518 135.351 640.344 135.533 640.209C135.715 640.074 135.927 639.971 136.169 639.9C136.413 639.829 136.675 639.783 136.957 639.761C137.263 639.738 137.508 639.709 137.692 639.676C137.879 639.641 138.014 639.592 138.097 639.531C138.18 639.467 138.221 639.383 138.221 639.278V639.264C138.221 639.122 138.167 639.013 138.058 638.938C137.949 638.862 137.809 638.824 137.639 638.824C137.452 638.824 137.299 638.865 137.181 638.948C137.065 639.029 136.995 639.153 136.971 639.321H135.167C135.191 638.99 135.296 638.684 135.483 638.405C135.673 638.123 135.949 637.898 136.311 637.73C136.673 637.56 137.125 637.474 137.667 637.474C138.058 637.474 138.408 637.521 138.719 637.613C139.029 637.703 139.293 637.83 139.51 637.993C139.728 638.154 139.894 638.343 140.008 638.561C140.124 638.777 140.182 639.011 140.182 639.264V643H138.349V642.233H138.307C138.198 642.437 138.065 642.601 137.909 642.727C137.755 642.852 137.579 642.943 137.38 643C137.183 643.057 136.967 643.085 136.73 643.085ZM137.369 641.849C137.518 641.849 137.658 641.819 137.788 641.757C137.921 641.696 138.028 641.607 138.111 641.491C138.194 641.375 138.236 641.234 138.236 641.068V640.614C138.184 640.635 138.128 640.655 138.069 640.674C138.012 640.693 137.95 640.711 137.884 640.727C137.82 640.744 137.751 640.759 137.678 640.773C137.607 640.788 137.532 640.801 137.454 640.812C137.303 640.836 137.179 640.875 137.081 640.93C136.987 640.982 136.916 641.047 136.868 641.125C136.823 641.201 136.801 641.286 136.801 641.381C136.801 641.532 136.854 641.648 136.961 641.729C137.067 641.809 137.203 641.849 137.369 641.849ZM142.88 641.707L142.894 639.378H143.15L144.471 637.545H146.672L144.456 640.401H143.902L142.88 641.707ZM141.118 643V635.727H143.078V643H141.118ZM144.485 643L143.235 640.841L144.513 639.449L146.729 643H144.485ZM149.143 635.727V643H147.183V635.727H149.143ZM151.662 643.085C151.314 643.085 151.006 643.028 150.738 642.915C150.473 642.799 150.265 642.624 150.113 642.389C149.962 642.155 149.886 641.857 149.886 641.494C149.886 641.196 149.937 640.942 150.039 640.731C150.141 640.518 150.283 640.344 150.465 640.209C150.647 640.074 150.859 639.971 151.1 639.9C151.344 639.829 151.607 639.783 151.889 639.761C152.194 639.738 152.439 639.709 152.624 639.676C152.811 639.641 152.946 639.592 153.029 639.531C153.112 639.467 153.153 639.383 153.153 639.278V639.264C153.153 639.122 153.099 639.013 152.99 638.938C152.881 638.862 152.741 638.824 152.571 638.824C152.384 638.824 152.231 638.865 152.113 638.948C151.997 639.029 151.927 639.153 151.903 639.321H150.099C150.123 638.99 150.228 638.684 150.415 638.405C150.605 638.123 150.88 637.898 151.243 637.73C151.605 637.56 152.057 637.474 152.599 637.474C152.99 637.474 153.34 637.521 153.65 637.613C153.96 637.703 154.224 637.83 154.442 637.993C154.66 638.154 154.826 638.343 154.939 638.561C155.055 638.777 155.113 639.011 155.113 639.264V643H153.281V642.233H153.238C153.129 642.437 152.997 642.601 152.841 642.727C152.687 642.852 152.51 642.943 152.311 643C152.115 643.057 151.898 643.085 151.662 643.085ZM152.301 641.849C152.45 641.849 152.59 641.819 152.72 641.757C152.852 641.696 152.96 641.607 153.043 641.491C153.126 641.375 153.167 641.234 153.167 641.068V640.614C153.115 640.635 153.06 640.655 153 640.674C152.944 640.693 152.882 640.711 152.816 640.727C152.752 640.744 152.683 640.759 152.61 640.773C152.539 640.788 152.464 640.801 152.386 640.812C152.234 640.836 152.11 640.875 152.013 640.93C151.918 640.982 151.847 641.047 151.8 641.125C151.755 641.201 151.733 641.286 151.733 641.381C151.733 641.532 151.786 641.648 151.892 641.729C151.999 641.809 152.135 641.849 152.301 641.849ZM156.05 643V637.545H157.953V638.582H158.01C158.11 638.199 158.267 637.918 158.482 637.741C158.7 637.563 158.955 637.474 159.246 637.474C159.331 637.474 159.415 637.482 159.498 637.496C159.583 637.508 159.665 637.525 159.743 637.549V639.222C159.646 639.188 159.526 639.164 159.384 639.147C159.242 639.13 159.12 639.122 159.019 639.122C158.827 639.122 158.654 639.166 158.5 639.254C158.349 639.339 158.229 639.46 158.142 639.616C158.054 639.77 158.01 639.951 158.01 640.159V643H156.05ZM160.386 643V637.545H162.346V643H160.386ZM170.323 639.321H168.519C168.509 639.21 168.47 639.114 168.402 639.033C168.333 638.953 168.244 638.891 168.135 638.849C168.029 638.804 167.91 638.781 167.78 638.781C167.612 638.781 167.468 638.812 167.347 638.874C167.226 638.935 167.167 639.023 167.169 639.136C167.167 639.217 167.201 639.291 167.272 639.36C167.346 639.429 167.487 639.482 167.695 639.52L168.803 639.719C169.362 639.821 169.777 639.992 170.049 640.234C170.324 640.473 170.462 640.794 170.465 641.196C170.462 641.584 170.346 641.922 170.117 642.208C169.89 642.492 169.578 642.712 169.183 642.869C168.79 643.022 168.341 643.099 167.837 643.099C167.004 643.099 166.351 642.929 165.88 642.588C165.412 642.247 165.15 641.797 165.096 641.239H167.042C167.068 641.411 167.153 641.545 167.297 641.64C167.444 641.732 167.629 641.778 167.851 641.778C168.031 641.778 168.179 641.748 168.295 641.686C168.413 641.625 168.474 641.537 168.476 641.423C168.474 641.319 168.422 641.236 168.32 641.175C168.221 641.113 168.064 641.063 167.851 641.026L166.885 640.855C166.329 640.758 165.912 640.573 165.635 640.301C165.358 640.029 165.221 639.679 165.223 639.25C165.221 638.871 165.32 638.55 165.522 638.288C165.725 638.022 166.015 637.821 166.392 637.684C166.77 637.544 167.219 637.474 167.738 637.474C168.526 637.474 169.147 637.638 169.602 637.964C170.059 638.291 170.299 638.743 170.323 639.321ZM172.736 643.085C172.388 643.085 172.08 643.028 171.812 642.915C171.547 642.799 171.339 642.624 171.188 642.389C171.036 642.155 170.96 641.857 170.96 641.494C170.96 641.196 171.011 640.942 171.113 640.731C171.215 640.518 171.357 640.344 171.539 640.209C171.721 640.074 171.933 639.971 172.175 639.9C172.419 639.829 172.681 639.783 172.963 639.761C173.268 639.738 173.513 639.709 173.698 639.676C173.885 639.641 174.02 639.592 174.103 639.531C174.186 639.467 174.227 639.383 174.227 639.278V639.264C174.227 639.122 174.173 639.013 174.064 638.938C173.955 638.862 173.815 638.824 173.645 638.824C173.458 638.824 173.305 638.865 173.187 638.948C173.071 639.029 173.001 639.153 172.977 639.321H171.173C171.197 638.99 171.302 638.684 171.489 638.405C171.679 638.123 171.955 637.898 172.317 637.73C172.679 637.56 173.131 637.474 173.673 637.474C174.064 637.474 174.414 637.521 174.724 637.613C175.035 637.703 175.299 637.83 175.516 637.993C175.734 638.154 175.9 638.343 176.013 638.561C176.129 638.777 176.188 639.011 176.188 639.264V643H174.355V642.233H174.312C174.204 642.437 174.071 642.601 173.915 642.727C173.761 642.852 173.585 642.943 173.386 643C173.189 643.057 172.973 643.085 172.736 643.085ZM173.375 641.849C173.524 641.849 173.664 641.819 173.794 641.757C173.927 641.696 174.034 641.607 174.117 641.491C174.2 641.375 174.241 641.234 174.241 641.068V640.614C174.189 640.635 174.134 640.655 174.075 640.674C174.018 640.693 173.956 640.711 173.89 640.727C173.826 640.744 173.757 640.759 173.684 640.773C173.613 640.788 173.538 640.801 173.46 640.812C173.309 640.836 173.184 640.875 173.087 640.93C172.993 640.982 172.922 641.047 172.874 641.125C172.829 641.201 172.807 641.286 172.807 641.381C172.807 641.532 172.86 641.648 172.967 641.729C173.073 641.809 173.209 641.849 173.375 641.849ZM178.885 641.707L178.9 639.378H179.155L180.476 637.545H182.678L180.462 640.401H179.908L178.885 641.707ZM177.124 643V635.727H179.084V643H177.124ZM180.491 643L179.241 640.841L180.519 639.449L182.735 643H180.491ZM185.149 635.727V643H183.189V635.727H185.149ZM186.148 643V637.545H188.108V643H186.148ZM191.081 643.071C190.693 643.071 190.335 642.969 190.009 642.766C189.684 642.562 189.424 642.253 189.227 641.839C189.033 641.424 188.936 640.902 188.936 640.273C188.936 639.615 189.038 639.08 189.241 638.668C189.447 638.256 189.713 637.954 190.037 637.762C190.364 637.57 190.707 637.474 191.067 637.474C191.337 637.474 191.573 637.522 191.777 637.616C191.981 637.709 192.151 637.833 192.288 637.989C192.426 638.143 192.53 638.312 192.601 638.497H192.629V635.727H194.589V643H192.643V642.105H192.601C192.525 642.29 192.416 642.455 192.274 642.602C192.134 642.747 191.964 642.862 191.763 642.947C191.564 643.03 191.337 643.071 191.081 643.071ZM191.805 641.565C191.985 641.565 192.139 641.513 192.267 641.409C192.397 641.303 192.497 641.153 192.565 640.962C192.636 640.768 192.672 640.538 192.672 640.273C192.672 640.003 192.636 639.772 192.565 639.58C192.497 639.386 192.397 639.238 192.267 639.136C192.139 639.032 191.985 638.98 191.805 638.98C191.625 638.98 191.472 639.032 191.344 639.136C191.218 639.238 191.121 639.386 191.053 639.58C190.986 639.772 190.953 640.003 190.953 640.273C190.953 640.543 190.986 640.775 191.053 640.969C191.121 641.161 191.218 641.308 191.344 641.413C191.472 641.514 191.625 641.565 191.805 641.565ZM195.552 643V637.545H197.512V643H195.552ZM198.511 643V637.545H200.414V638.582H200.471C200.57 638.199 200.728 637.918 200.943 637.741C201.161 637.563 201.416 637.474 201.707 637.474C201.792 637.474 201.876 637.482 201.959 637.496C202.044 637.508 202.126 637.525 202.204 637.549V639.222C202.107 639.188 201.987 639.164 201.845 639.147C201.703 639.13 201.581 639.122 201.48 639.122C201.288 639.122 201.115 639.166 200.961 639.254C200.81 639.339 200.69 639.46 200.602 639.616C200.515 639.77 200.471 639.951 200.471 640.159V643H198.511ZM207.005 639.364C207.005 639.009 207.092 638.685 207.264 638.394C207.44 638.101 207.673 637.867 207.964 637.695C208.258 637.519 208.582 637.432 208.937 637.432C209.252 637.432 209.542 637.502 209.807 637.641C210.075 637.781 210.294 637.972 210.464 638.213C210.637 638.452 210.739 638.722 210.769 639.023H209.583C209.555 638.888 209.479 638.779 209.356 638.696C209.235 638.611 209.096 638.568 208.937 638.568C208.793 638.568 208.66 638.604 208.539 638.675C208.419 638.743 208.321 638.838 208.248 638.959C208.177 639.077 208.142 639.21 208.142 639.357C208.142 639.503 208.177 639.638 208.248 639.761C208.321 639.882 208.419 639.979 208.539 640.053C208.66 640.124 208.793 640.159 208.937 640.159C209.096 640.159 209.235 640.118 209.356 640.035C209.479 639.95 209.555 639.839 209.583 639.705H210.769C210.739 640.005 210.637 640.276 210.464 640.518C210.294 640.757 210.075 640.946 209.807 641.086C209.542 641.226 209.252 641.295 208.937 641.295C208.582 641.295 208.258 641.209 207.964 641.036C207.673 640.861 207.44 640.628 207.264 640.337C207.092 640.043 207.005 639.719 207.005 639.364ZM208.916 643.114C208.4 643.114 207.914 643.017 207.46 642.822C207.008 642.628 206.609 642.36 206.263 642.016C205.92 641.671 205.65 641.272 205.453 640.82C205.259 640.367 205.163 639.882 205.166 639.364C205.168 638.845 205.266 638.36 205.46 637.908C205.657 637.455 205.927 637.058 206.27 636.714C206.613 636.369 207.011 636.099 207.463 635.905C207.915 635.711 208.4 635.614 208.916 635.614C209.434 635.614 209.919 635.711 210.372 635.905C210.826 636.099 211.224 636.369 211.565 636.714C211.908 637.058 212.177 637.455 212.371 637.908C212.565 638.36 212.663 638.845 212.666 639.364C212.668 639.882 212.572 640.367 212.378 640.82C212.184 641.272 211.915 641.671 211.572 642.016C211.229 642.36 210.83 642.628 210.375 642.822C209.921 643.017 209.434 643.114 208.916 643.114ZM208.916 641.693C209.24 641.693 209.543 641.633 209.825 641.512C210.106 641.391 210.354 641.224 210.567 641.011C210.78 640.798 210.946 640.552 211.064 640.273C211.185 639.991 211.245 639.689 211.245 639.367C211.245 639.043 211.185 638.74 211.064 638.458C210.943 638.176 210.776 637.929 210.563 637.716C210.35 637.503 210.103 637.336 209.821 637.215C209.539 637.094 209.238 637.034 208.916 637.034C208.596 637.034 208.295 637.094 208.014 637.215C207.734 637.336 207.487 637.504 207.271 637.719C207.058 637.933 206.89 638.18 206.767 638.462C206.646 638.743 206.586 639.045 206.586 639.367C206.586 639.687 206.646 639.987 206.767 640.269C206.888 640.549 207.055 640.796 207.268 641.011C207.481 641.224 207.728 641.391 208.01 641.512C208.292 641.633 208.594 641.693 208.916 641.693ZM215.967 643V641.58L218.68 639.335C218.86 639.186 219.014 639.046 219.142 638.916C219.272 638.784 219.372 638.647 219.44 638.508C219.511 638.368 219.547 638.213 219.547 638.043C219.547 637.856 219.507 637.696 219.426 637.563C219.348 637.431 219.239 637.329 219.099 637.258C218.96 637.184 218.799 637.148 218.616 637.148C218.434 637.148 218.273 637.184 218.134 637.258C217.996 637.331 217.89 637.439 217.814 637.581C217.738 637.723 217.7 637.896 217.7 638.099H215.825C215.825 637.588 215.94 637.148 216.17 636.778C216.399 636.409 216.724 636.125 217.143 635.926C217.562 635.727 218.053 635.628 218.616 635.628C219.199 635.628 219.703 635.721 220.129 635.908C220.558 636.093 220.888 636.353 221.12 636.69C221.354 637.026 221.472 637.42 221.472 637.872C221.472 638.152 221.414 638.43 221.298 638.707C221.182 638.981 220.973 639.286 220.673 639.619C220.372 639.953 219.945 640.351 219.391 640.812L218.709 641.381V641.423H221.55V643H215.967ZM225.6 643.199C224.939 643.196 224.369 643.044 223.888 642.741C223.408 642.438 223.037 642.001 222.777 641.43C222.516 640.86 222.387 640.176 222.39 639.378C222.392 638.578 222.522 637.898 222.78 637.339C223.041 636.781 223.41 636.356 223.888 636.065C224.369 635.773 224.939 635.628 225.6 635.628C226.26 635.628 226.831 635.775 227.311 636.068C227.792 636.359 228.163 636.784 228.423 637.343C228.683 637.902 228.812 638.58 228.81 639.378C228.81 640.18 228.68 640.867 228.419 641.438C228.159 642.008 227.788 642.445 227.308 642.748C226.83 643.049 226.26 643.199 225.6 643.199ZM225.6 641.594C225.941 641.594 226.22 641.416 226.438 641.061C226.658 640.704 226.767 640.143 226.765 639.378C226.765 638.878 226.715 638.47 226.615 638.153C226.516 637.835 226.379 637.601 226.203 637.45C226.028 637.296 225.827 637.219 225.6 637.219C225.259 637.219 224.981 637.392 224.765 637.737C224.55 638.083 224.44 638.63 224.435 639.378C224.433 639.887 224.481 640.306 224.581 640.635C224.68 640.962 224.817 641.203 224.993 641.359C225.17 641.516 225.373 641.594 225.6 641.594ZM229.737 643V641.58L232.45 639.335C232.63 639.186 232.784 639.046 232.912 638.916C233.042 638.784 233.141 638.647 233.21 638.508C233.281 638.368 233.316 638.213 233.316 638.043C233.316 637.856 233.276 637.696 233.196 637.563C233.118 637.431 233.009 637.329 232.869 637.258C232.729 637.184 232.568 637.148 232.386 637.148C232.204 637.148 232.043 637.184 231.903 637.258C231.766 637.331 231.659 637.439 231.583 637.581C231.508 637.723 231.47 637.896 231.47 638.099H229.595C229.595 637.588 229.71 637.148 229.939 636.778C230.169 636.409 230.493 636.125 230.912 635.926C231.331 635.727 231.823 635.628 232.386 635.628C232.968 635.628 233.473 635.721 233.899 635.908C234.327 636.093 234.658 636.353 234.89 636.69C235.124 637.026 235.241 637.42 235.241 637.872C235.241 638.152 235.183 638.43 235.067 638.707C234.951 638.981 234.743 639.286 234.442 639.619C234.141 639.953 233.714 640.351 233.16 640.812L232.478 641.381V641.423H235.319V643H229.737ZM239.043 643.099C238.47 643.099 237.961 643.001 237.516 642.805C237.073 642.606 236.725 642.332 236.472 641.984C236.218 641.636 236.09 641.236 236.088 640.784H238.077C238.079 640.924 238.122 641.049 238.205 641.161C238.29 641.269 238.406 641.355 238.553 641.416C238.699 641.478 238.867 641.509 239.057 641.509C239.239 641.509 239.4 641.477 239.54 641.413C239.679 641.346 239.788 641.255 239.866 641.139C239.945 641.023 239.982 640.891 239.98 640.741C239.982 640.595 239.938 640.464 239.845 640.351C239.755 640.237 239.629 640.148 239.465 640.085C239.302 640.021 239.114 639.989 238.901 639.989H238.162V638.625H238.901C239.097 638.625 239.27 638.593 239.419 638.529C239.571 638.465 239.688 638.376 239.771 638.263C239.856 638.149 239.897 638.019 239.895 637.872C239.897 637.73 239.863 637.605 239.792 637.496C239.721 637.387 239.621 637.302 239.494 637.24C239.368 637.179 239.223 637.148 239.057 637.148C238.877 637.148 238.716 637.18 238.574 637.244C238.434 637.308 238.324 637.396 238.244 637.51C238.163 637.624 238.122 637.754 238.119 637.901H236.23C236.232 637.455 236.354 637.062 236.596 636.722C236.84 636.381 237.174 636.113 237.597 635.919C238.021 635.725 238.508 635.628 239.057 635.628C239.594 635.628 240.069 635.719 240.481 635.901C240.895 636.084 241.218 636.335 241.45 636.654C241.685 636.971 241.801 637.335 241.798 637.744C241.803 638.152 241.663 638.485 241.379 638.746C241.098 639.006 240.74 639.16 240.307 639.207V639.264C240.894 639.328 241.335 639.508 241.631 639.804C241.927 640.098 242.073 640.467 242.068 640.912C242.071 641.338 241.943 641.716 241.685 642.045C241.429 642.374 241.073 642.632 240.616 642.819C240.161 643.006 239.637 643.099 239.043 643.099ZM244.629 635.727H246.831L248.252 638.682H248.308L249.729 635.727H251.931L249.26 640.713V643H247.3V640.713L244.629 635.727ZM252.843 643.085C252.495 643.085 252.187 643.028 251.92 642.915C251.655 642.799 251.446 642.624 251.295 642.389C251.143 642.155 251.068 641.857 251.068 641.494C251.068 641.196 251.119 640.942 251.22 640.731C251.322 640.518 251.464 640.344 251.646 640.209C251.829 640.074 252.041 639.971 252.282 639.9C252.526 639.829 252.789 639.783 253.07 639.761C253.376 639.738 253.621 639.709 253.806 639.676C253.993 639.641 254.128 639.592 254.21 639.531C254.293 639.467 254.335 639.383 254.335 639.278V639.264C254.335 639.122 254.28 639.013 254.171 638.938C254.062 638.862 253.923 638.824 253.752 638.824C253.565 638.824 253.413 638.865 253.294 638.948C253.178 639.029 253.108 639.153 253.085 639.321H251.281C251.304 638.99 251.41 638.684 251.597 638.405C251.786 638.123 252.062 637.898 252.424 637.73C252.786 637.56 253.239 637.474 253.781 637.474C254.171 637.474 254.522 637.521 254.832 637.613C255.142 637.703 255.406 637.83 255.624 637.993C255.842 638.154 256.007 638.343 256.121 638.561C256.237 638.777 256.295 639.011 256.295 639.264V643H254.463V642.233H254.42C254.311 642.437 254.178 642.601 254.022 642.727C253.868 642.852 253.692 642.943 253.493 643C253.297 643.057 253.08 643.085 252.843 643.085ZM253.482 641.849C253.632 641.849 253.771 641.819 253.901 641.757C254.034 641.696 254.142 641.607 254.225 641.491C254.307 641.375 254.349 641.234 254.349 641.068V640.614C254.297 640.635 254.241 640.655 254.182 640.674C254.125 640.693 254.064 640.711 253.997 640.727C253.933 640.744 253.865 640.759 253.791 640.773C253.72 640.788 253.646 640.801 253.568 640.812C253.416 640.836 253.292 640.875 253.195 640.93C253.1 640.982 253.029 641.047 252.982 641.125C252.937 641.201 252.914 641.286 252.914 641.381C252.914 641.532 252.968 641.648 253.074 641.729C253.181 641.809 253.317 641.849 253.482 641.849ZM262.217 639.321H260.413C260.404 639.21 260.365 639.114 260.296 639.033C260.228 638.953 260.139 638.891 260.03 638.849C259.923 638.804 259.805 638.781 259.675 638.781C259.507 638.781 259.362 638.812 259.241 638.874C259.121 638.935 259.062 639.023 259.064 639.136C259.062 639.217 259.096 639.291 259.167 639.36C259.24 639.429 259.381 639.482 259.589 639.52L260.697 639.719C261.256 639.821 261.672 639.992 261.944 640.234C262.219 640.473 262.357 640.794 262.359 641.196C262.357 641.584 262.241 641.922 262.011 642.208C261.784 642.492 261.473 642.712 261.077 642.869C260.684 643.022 260.236 643.099 259.732 643.099C258.898 643.099 258.246 642.929 257.775 642.588C257.306 642.247 257.045 641.797 256.99 641.239H258.936C258.962 641.411 259.047 641.545 259.192 641.64C259.339 641.732 259.523 641.778 259.746 641.778C259.926 641.778 260.074 641.748 260.19 641.686C260.308 641.625 260.368 641.537 260.371 641.423C260.368 641.319 260.316 641.236 260.214 641.175C260.115 641.113 259.959 641.063 259.746 641.026L258.78 640.855C258.223 640.758 257.807 640.573 257.53 640.301C257.253 640.029 257.116 639.679 257.118 639.25C257.116 638.871 257.215 638.55 257.416 638.288C257.62 638.022 257.91 637.821 258.286 637.684C258.665 637.544 259.114 637.474 259.632 637.474C260.42 637.474 261.042 637.638 261.496 637.964C261.953 638.291 262.194 638.743 262.217 639.321ZM263.11 643V637.545H265.071V643H263.11ZM264.091 636.977C263.825 636.977 263.598 636.89 263.409 636.714C263.219 636.539 263.125 636.329 263.125 636.082C263.125 635.836 263.219 635.625 263.409 635.45C263.598 635.275 263.825 635.188 264.091 635.188C264.358 635.188 264.585 635.275 264.772 635.45C264.962 635.625 265.056 635.836 265.056 636.082C265.056 636.329 264.962 636.539 264.772 636.714C264.585 636.89 264.358 636.977 264.091 636.977ZM266.069 643V637.545H267.973V638.582H268.03C268.129 638.199 268.287 637.918 268.502 637.741C268.72 637.563 268.974 637.474 269.265 637.474C269.351 637.474 269.435 637.482 269.518 637.496C269.603 637.508 269.684 637.525 269.763 637.549V639.222C269.666 639.188 269.546 639.164 269.404 639.147C269.262 639.13 269.14 639.122 269.038 639.122C268.846 639.122 268.674 639.166 268.52 639.254C268.368 639.339 268.249 639.46 268.161 639.616C268.073 639.77 268.03 639.951 268.03 640.159V643H266.069ZM272.369 643V635.727H277.611V637.318H274.344V638.568H277.341V640.159H274.344V641.409H277.596V643H272.369ZM279.811 645.045C279.587 645.045 279.372 645.028 279.169 644.992C278.965 644.959 278.786 644.913 278.632 644.854L279.059 643.462C279.22 643.518 279.366 643.555 279.499 643.572C279.634 643.588 279.749 643.579 279.843 643.543C279.94 643.508 280.01 643.44 280.053 643.341L280.096 643.241L278.178 637.545H280.223L281.104 641.324H281.161L282.056 637.545H284.115L282.127 643.455C282.027 643.755 281.883 644.025 281.694 644.264C281.507 644.506 281.26 644.696 280.955 644.836C280.65 644.976 280.268 645.045 279.811 645.045ZM284.673 643V637.545H286.534V638.582H286.591C286.704 638.241 286.898 637.972 287.173 637.773C287.448 637.574 287.774 637.474 288.153 637.474C288.537 637.474 288.867 637.576 289.144 637.78C289.421 637.981 289.588 638.249 289.645 638.582H289.701C289.794 638.249 289.99 637.981 290.291 637.78C290.592 637.576 290.944 637.474 291.349 637.474C291.872 637.474 292.296 637.643 292.62 637.979C292.947 638.315 293.11 638.762 293.11 639.321V643H291.15V639.818C291.15 639.579 291.09 639.392 290.969 639.257C290.848 639.12 290.686 639.051 290.483 639.051C290.281 639.051 290.122 639.12 290.003 639.257C289.887 639.392 289.829 639.579 289.829 639.818V643H287.954V639.818C287.954 639.579 287.894 639.392 287.773 639.257C287.652 639.12 287.49 639.051 287.287 639.051C287.152 639.051 287.036 639.082 286.939 639.143C286.842 639.205 286.766 639.294 286.711 639.41C286.659 639.523 286.633 639.66 286.633 639.818V643H284.673ZM296.691 643.099C296.108 643.099 295.607 642.988 295.185 642.766C294.766 642.541 294.443 642.219 294.216 641.8C293.991 641.378 293.878 640.874 293.878 640.287C293.878 639.723 293.992 639.231 294.219 638.81C294.447 638.388 294.767 638.06 295.182 637.826C295.596 637.592 296.085 637.474 296.648 637.474C297.06 637.474 297.433 637.538 297.767 637.666C298.101 637.794 298.386 637.98 298.623 638.224C298.859 638.465 299.042 638.759 299.17 639.104C299.297 639.45 299.361 639.839 299.361 640.273V640.727H294.489V639.648H297.557C297.555 639.491 297.515 639.354 297.437 639.236C297.361 639.115 297.258 639.022 297.128 638.955C297 638.887 296.854 638.852 296.691 638.852C296.532 638.852 296.387 638.887 296.254 638.955C296.122 639.022 296.015 639.114 295.934 639.232C295.856 639.351 295.815 639.489 295.81 639.648V640.812C295.81 640.988 295.847 641.144 295.92 641.281C295.994 641.419 296.099 641.526 296.236 641.604C296.374 641.683 296.539 641.722 296.733 641.722C296.868 641.722 296.992 641.703 297.103 641.665C297.216 641.627 297.314 641.572 297.394 641.501C297.474 641.428 297.534 641.34 297.572 641.239H299.361C299.3 641.617 299.154 641.946 298.925 642.226C298.695 642.503 298.391 642.718 298.012 642.872C297.635 643.024 297.195 643.099 296.691 643.099ZM302.121 639.932V643H300.161V637.545H302.022V638.582H302.079C302.197 638.237 302.406 637.966 302.704 637.769C303.004 637.573 303.355 637.474 303.755 637.474C304.141 637.474 304.476 637.563 304.76 637.741C305.046 637.916 305.268 638.157 305.424 638.465C305.583 638.773 305.661 639.125 305.658 639.52V643H303.698V639.932C303.701 639.662 303.632 639.45 303.492 639.296C303.355 639.142 303.163 639.065 302.917 639.065C302.756 639.065 302.615 639.101 302.494 639.172C302.376 639.241 302.285 639.34 302.221 639.47C302.157 639.598 302.124 639.752 302.121 639.932ZM308.59 643V635.727H310.564V638.668H310.664L312.851 635.727H315.152L312.695 638.966L315.209 643H312.851L311.218 640.273L310.564 641.125V643H308.59ZM317.627 643H315.497L317.897 635.727H320.596L322.997 643H320.866L319.275 637.73H319.218L317.627 643ZM317.23 640.131H321.235V641.608H317.23V640.131ZM322.657 635.727H324.858L326.279 638.682H326.336L327.756 635.727H329.958L327.287 640.713V643H325.327V640.713L322.657 635.727ZM331.749 643H329.618L332.018 635.727H334.717L337.118 643H334.987L333.396 637.73H333.339L331.749 643ZM331.351 640.131H335.357V641.608H331.351V640.131ZM337.818 643V635.727H340.972C341.526 635.727 341.991 635.802 342.367 635.951C342.746 636.1 343.031 636.311 343.223 636.583C343.417 636.855 343.514 637.176 343.514 637.545C343.514 637.813 343.455 638.057 343.337 638.277C343.221 638.497 343.057 638.682 342.847 638.831C342.636 638.978 342.39 639.08 342.108 639.136V639.207C342.421 639.219 342.705 639.299 342.96 639.445C343.216 639.59 343.42 639.79 343.571 640.045C343.723 640.299 343.798 640.597 343.798 640.94C343.798 641.338 343.694 641.692 343.486 642.002C343.28 642.312 342.986 642.556 342.605 642.734C342.224 642.911 341.77 643 341.242 643H337.818ZM339.793 641.423H340.716C341.048 641.423 341.296 641.362 341.462 641.239C341.628 641.113 341.71 640.929 341.71 640.685C341.71 640.514 341.671 640.37 341.593 640.251C341.515 640.133 341.404 640.043 341.259 639.982C341.117 639.92 340.946 639.889 340.744 639.889H339.793V641.423ZM339.793 638.668H340.602C340.775 638.668 340.928 638.64 341.061 638.586C341.193 638.531 341.296 638.453 341.369 638.352C341.445 638.247 341.483 638.121 341.483 637.972C341.483 637.747 341.403 637.575 341.242 637.457C341.081 637.336 340.877 637.276 340.631 637.276H339.793V638.668ZM346.387 643H344.257L346.657 635.727H349.356L351.757 643H349.626L348.035 637.73H347.978L346.387 643ZM345.99 640.131H349.995V641.608H345.99V640.131ZM356.094 638C356.075 637.763 355.987 637.579 355.828 637.446C355.672 637.313 355.434 637.247 355.114 637.247C354.911 637.247 354.744 637.272 354.613 637.322C354.486 637.369 354.391 637.434 354.329 637.517C354.268 637.6 354.236 637.695 354.233 637.801C354.229 637.889 354.244 637.968 354.28 638.039C354.318 638.108 354.377 638.17 354.457 638.227C354.538 638.282 354.641 638.331 354.766 638.376C354.892 638.421 355.041 638.462 355.214 638.497L355.81 638.625C356.213 638.71 356.557 638.823 356.844 638.962C357.13 639.102 357.364 639.267 357.547 639.456C357.729 639.643 357.863 639.854 357.948 640.088C358.036 640.322 358.081 640.578 358.083 640.855C358.081 641.333 357.961 641.738 357.724 642.07C357.488 642.401 357.149 642.653 356.709 642.826C356.271 642.999 355.744 643.085 355.128 643.085C354.496 643.085 353.945 642.992 353.474 642.805C353.005 642.618 352.64 642.33 352.38 641.942C352.122 641.551 351.992 641.052 351.989 640.443H353.864C353.876 640.666 353.932 640.853 354.031 641.004C354.131 641.156 354.27 641.271 354.45 641.349C354.632 641.427 354.849 641.466 355.1 641.466C355.311 641.466 355.487 641.44 355.629 641.388C355.771 641.336 355.879 641.263 355.952 641.171C356.026 641.079 356.064 640.973 356.066 640.855C356.064 640.744 356.027 640.647 355.956 640.564C355.887 640.479 355.773 640.403 355.615 640.337C355.456 640.268 355.242 640.204 354.972 640.145L354.248 639.989C353.604 639.849 353.096 639.616 352.724 639.289C352.355 638.96 352.171 638.511 352.174 637.943C352.171 637.482 352.295 637.078 352.543 636.732C352.794 636.384 353.141 636.113 353.584 635.919C354.029 635.725 354.539 635.628 355.114 635.628C355.701 635.628 356.209 635.726 356.638 635.923C357.066 636.119 357.396 636.396 357.628 636.754C357.863 637.109 357.981 637.524 357.983 638H356.094ZM354.716 642.972H355.412L355.356 643.298C355.637 643.341 355.856 643.44 356.013 643.597C356.169 643.753 356.248 643.947 356.251 644.179C356.255 644.563 356.067 644.864 355.686 645.085C355.307 645.305 354.785 645.415 354.12 645.415V644.662C354.47 644.662 354.738 644.624 354.922 644.548C355.107 644.475 355.204 644.366 355.214 644.222C355.223 644.089 355.171 643.979 355.057 643.891C354.946 643.806 354.776 643.746 354.546 643.71L354.716 642.972ZM360.808 635.727V643H358.834V635.727H360.808Z" fill="white"/>
</g>
<defs>
<clipPath id="clip0_11_31">
<rect width="375" height="667" fill="white"/>
</clipPath>
</defs>
</svg>
