<svg width="375" height="812" viewBox="0 0 375 812" fill="none" xmlns="http://www.w3.org/2000/svg">
<g clip-path="url(#clip0_11_12)">
<rect width="375" height="812" fill="#9E479E"/>
<ellipse cx="197.389" cy="395.611" rx="91.8278" ry="139.861" fill="white"/>
<line x1="229.267" y1="367.296" x2="339.461" y2="435.107" stroke="white" stroke-width="30"/>
<line x1="145.733" y1="474.784" x2="35.5395" y2="406.973" stroke="white" stroke-width="30"/>
<line x1="-15.9967" y1="644.351" x2="388.046" y2="175.323" stroke="black" stroke-width="30"/>
<ellipse cx="197.389" cy="257.163" rx="40.9693" ry="32.4929" fill="white"/>
<line x1="148.558" y1="336.336" x2="38.365" y2="268.525" stroke="white" stroke-width="30"/>
<line x1="134.431" y1="398.497" x2="24.2376" y2="330.685" stroke="white" stroke-width="30"/>
<line x1="226.442" y1="505.744" x2="336.635" y2="573.555" stroke="white" stroke-width="30"/>
<line x1="240.569" y1="443.584" x2="350.762" y2="511.395" stroke="white" stroke-width="30"/>
<rect x="93" y="802" width="282" height="10" fill="white"/>
<rect x="93" y="802" width="282" height="10" fill="white"/>
<rect x="93" y="802" width="282" height="10" fill="white"/>
<rect x="93" y="802" width="282" height="10" fill="white"/>
<rect x="-8" width="282" height="10" fill="white"/>
<rect x="-8" width="282" height="10" fill="white"/>
<rect x="-8" width="282" height="10" fill="white"/>
<rect x="-8" width="282" height="10" fill="white"/>
<path d="M106.27 782.318V780.727H112.591V782.318H110.403V788H108.457V782.318H106.27ZM116.392 785.614V782.545H118.352V788H116.491V786.963H116.434C116.316 787.311 116.109 787.583 115.813 787.78C115.517 787.974 115.165 788.071 114.758 788.071C114.377 788.071 114.043 787.983 113.757 787.808C113.472 787.633 113.251 787.392 113.093 787.084C112.936 786.776 112.857 786.423 112.855 786.026V782.545H114.815V785.614C114.817 785.884 114.886 786.095 115.021 786.249C115.158 786.403 115.35 786.48 115.596 786.48C115.759 786.48 115.9 786.446 116.019 786.377C116.139 786.306 116.232 786.207 116.296 786.079C116.362 785.949 116.394 785.794 116.392 785.614ZM114.488 781.906C114.247 781.906 114.042 781.826 113.874 781.665C113.706 781.504 113.622 781.31 113.622 781.082C113.622 780.855 113.706 780.661 113.874 780.5C114.042 780.339 114.247 780.259 114.488 780.259C114.722 780.259 114.923 780.339 115.088 780.5C115.256 780.661 115.34 780.855 115.34 781.082C115.34 781.31 115.256 781.504 115.088 781.665C114.923 781.826 114.722 781.906 114.488 781.906ZM116.747 781.906C116.505 781.906 116.3 781.826 116.132 781.665C115.964 781.504 115.88 781.31 115.88 781.082C115.88 780.855 115.964 780.661 116.132 780.5C116.3 780.339 116.505 780.259 116.747 780.259C116.981 780.259 117.181 780.339 117.347 780.5C117.515 780.661 117.599 780.855 117.599 781.082C117.599 781.31 117.515 781.504 117.347 781.665C117.181 781.826 116.981 781.906 116.747 781.906ZM119.349 788V782.545H121.21V783.582H121.266C121.38 783.241 121.574 782.972 121.849 782.773C122.123 782.574 122.45 782.474 122.829 782.474C123.212 782.474 123.543 782.576 123.82 782.78C124.097 782.981 124.263 783.249 124.32 783.582H124.377C124.469 783.249 124.666 782.981 124.967 782.78C125.267 782.576 125.62 782.474 126.025 782.474C126.548 782.474 126.972 782.643 127.296 782.979C127.623 783.315 127.786 783.762 127.786 784.321V788H125.826V784.818C125.826 784.579 125.766 784.392 125.645 784.257C125.524 784.12 125.362 784.051 125.158 784.051C124.957 784.051 124.797 784.12 124.679 784.257C124.563 784.392 124.505 784.579 124.505 784.818V788H122.63V784.818C122.63 784.579 122.57 784.392 122.449 784.257C122.328 784.12 122.166 784.051 121.962 784.051C121.827 784.051 121.711 784.082 121.614 784.143C121.517 784.205 121.442 784.294 121.387 784.41C121.335 784.523 121.309 784.66 121.309 784.818V788H119.349ZM132.705 784.932V788H130.745V780.727H132.634V783.582H132.691C132.814 783.234 133.019 782.963 133.306 782.769C133.592 782.573 133.936 782.474 134.339 782.474C134.725 782.474 135.06 782.562 135.344 782.737C135.63 782.912 135.852 783.154 136.008 783.462C136.167 783.769 136.245 784.122 136.242 784.52V788H134.282V784.932C134.285 784.662 134.217 784.45 134.08 784.296C133.945 784.142 133.752 784.065 133.501 784.065C133.342 784.065 133.203 784.101 133.082 784.172C132.963 784.241 132.871 784.34 132.805 784.47C132.741 784.598 132.708 784.752 132.705 784.932ZM138.73 788.085C138.382 788.085 138.074 788.028 137.807 787.915C137.541 787.799 137.333 787.624 137.182 787.389C137.03 787.155 136.954 786.857 136.954 786.494C136.954 786.196 137.005 785.942 137.107 785.731C137.209 785.518 137.351 785.344 137.533 785.209C137.715 785.074 137.927 784.971 138.169 784.9C138.413 784.829 138.675 784.783 138.957 784.761C139.263 784.738 139.508 784.709 139.692 784.676C139.879 784.641 140.014 784.592 140.097 784.531C140.18 784.467 140.221 784.383 140.221 784.278V784.264C140.221 784.122 140.167 784.013 140.058 783.938C139.949 783.862 139.809 783.824 139.639 783.824C139.452 783.824 139.299 783.865 139.181 783.948C139.065 784.029 138.995 784.153 138.971 784.321H137.167C137.191 783.99 137.296 783.684 137.483 783.405C137.673 783.123 137.949 782.898 138.311 782.73C138.673 782.56 139.125 782.474 139.667 782.474C140.058 782.474 140.408 782.521 140.719 782.613C141.029 782.703 141.293 782.83 141.51 782.993C141.728 783.154 141.894 783.343 142.008 783.561C142.124 783.777 142.182 784.011 142.182 784.264V788H140.349V787.233H140.307C140.198 787.437 140.065 787.601 139.909 787.727C139.755 787.852 139.579 787.943 139.38 788C139.183 788.057 138.967 788.085 138.73 788.085ZM139.369 786.849C139.518 786.849 139.658 786.819 139.788 786.757C139.921 786.696 140.028 786.607 140.111 786.491C140.194 786.375 140.236 786.234 140.236 786.068V785.614C140.184 785.635 140.128 785.655 140.069 785.674C140.012 785.693 139.95 785.711 139.884 785.727C139.82 785.744 139.751 785.759 139.678 785.773C139.607 785.788 139.532 785.801 139.454 785.812C139.303 785.836 139.179 785.875 139.081 785.93C138.987 785.982 138.916 786.047 138.868 786.125C138.823 786.201 138.801 786.286 138.801 786.381C138.801 786.532 138.854 786.648 138.961 786.729C139.067 786.809 139.203 786.849 139.369 786.849ZM144.88 786.707L144.894 784.378H145.15L146.471 782.545H148.672L146.456 785.401H145.902L144.88 786.707ZM143.118 788V780.727H145.078V788H143.118ZM146.485 788L145.235 785.841L146.513 784.449L148.729 788H146.485ZM151.143 780.727V788H149.183V780.727H151.143ZM153.662 788.085C153.314 788.085 153.006 788.028 152.738 787.915C152.473 787.799 152.265 787.624 152.113 787.389C151.962 787.155 151.886 786.857 151.886 786.494C151.886 786.196 151.937 785.942 152.039 785.731C152.141 785.518 152.283 785.344 152.465 785.209C152.647 785.074 152.859 784.971 153.1 784.9C153.344 784.829 153.607 784.783 153.889 784.761C154.194 784.738 154.439 784.709 154.624 784.676C154.811 784.641 154.946 784.592 155.029 784.531C155.112 784.467 155.153 784.383 155.153 784.278V784.264C155.153 784.122 155.099 784.013 154.99 783.938C154.881 783.862 154.741 783.824 154.571 783.824C154.384 783.824 154.231 783.865 154.113 783.948C153.997 784.029 153.927 784.153 153.903 784.321H152.099C152.123 783.99 152.228 783.684 152.415 783.405C152.605 783.123 152.88 782.898 153.243 782.73C153.605 782.56 154.057 782.474 154.599 782.474C154.99 782.474 155.34 782.521 155.65 782.613C155.96 782.703 156.224 782.83 156.442 782.993C156.66 783.154 156.826 783.343 156.939 783.561C157.055 783.777 157.113 784.011 157.113 784.264V788H155.281V787.233H155.238C155.129 787.437 154.997 787.601 154.841 787.727C154.687 787.852 154.51 787.943 154.311 788C154.115 788.057 153.898 788.085 153.662 788.085ZM154.301 786.849C154.45 786.849 154.59 786.819 154.72 786.757C154.852 786.696 154.96 786.607 155.043 786.491C155.126 786.375 155.167 786.234 155.167 786.068V785.614C155.115 785.635 155.06 785.655 155 785.674C154.944 785.693 154.882 785.711 154.816 785.727C154.752 785.744 154.683 785.759 154.61 785.773C154.539 785.788 154.464 785.801 154.386 785.812C154.234 785.836 154.11 785.875 154.013 785.93C153.918 785.982 153.847 786.047 153.8 786.125C153.755 786.201 153.733 786.286 153.733 786.381C153.733 786.532 153.786 786.648 153.892 786.729C153.999 786.809 154.135 786.849 154.301 786.849ZM158.05 788V782.545H159.953V783.582H160.01C160.11 783.199 160.267 782.918 160.482 782.741C160.7 782.563 160.955 782.474 161.246 782.474C161.331 782.474 161.415 782.482 161.498 782.496C161.583 782.508 161.665 782.525 161.743 782.549V784.222C161.646 784.188 161.526 784.164 161.384 784.147C161.242 784.13 161.12 784.122 161.019 784.122C160.827 784.122 160.654 784.166 160.5 784.254C160.349 784.339 160.229 784.46 160.142 784.616C160.054 784.77 160.01 784.951 160.01 785.159V788H158.05ZM162.386 788V782.545H164.346V788H162.386ZM172.323 784.321H170.519C170.509 784.21 170.47 784.114 170.402 784.033C170.333 783.953 170.244 783.891 170.135 783.849C170.029 783.804 169.91 783.781 169.78 783.781C169.612 783.781 169.468 783.812 169.347 783.874C169.226 783.935 169.167 784.023 169.169 784.136C169.167 784.217 169.201 784.291 169.272 784.36C169.346 784.429 169.487 784.482 169.695 784.52L170.803 784.719C171.362 784.821 171.777 784.992 172.049 785.234C172.324 785.473 172.462 785.794 172.465 786.196C172.462 786.584 172.346 786.922 172.117 787.208C171.89 787.492 171.578 787.712 171.183 787.869C170.79 788.022 170.341 788.099 169.837 788.099C169.004 788.099 168.351 787.929 167.88 787.588C167.412 787.247 167.15 786.797 167.096 786.239H169.042C169.068 786.411 169.153 786.545 169.297 786.64C169.444 786.732 169.629 786.778 169.851 786.778C170.031 786.778 170.179 786.748 170.295 786.686C170.413 786.625 170.474 786.537 170.476 786.423C170.474 786.319 170.422 786.236 170.32 786.175C170.221 786.113 170.064 786.063 169.851 786.026L168.885 785.855C168.329 785.758 167.912 785.573 167.635 785.301C167.358 785.029 167.221 784.679 167.223 784.25C167.221 783.871 167.32 783.55 167.522 783.288C167.725 783.022 168.015 782.821 168.392 782.684C168.77 782.544 169.219 782.474 169.738 782.474C170.526 782.474 171.147 782.638 171.602 782.964C172.059 783.291 172.299 783.743 172.323 784.321ZM174.736 788.085C174.388 788.085 174.08 788.028 173.812 787.915C173.547 787.799 173.339 787.624 173.188 787.389C173.036 787.155 172.96 786.857 172.96 786.494C172.96 786.196 173.011 785.942 173.113 785.731C173.215 785.518 173.357 785.344 173.539 785.209C173.721 785.074 173.933 784.971 174.175 784.9C174.419 784.829 174.681 784.783 174.963 784.761C175.268 784.738 175.513 784.709 175.698 784.676C175.885 784.641 176.02 784.592 176.103 784.531C176.186 784.467 176.227 784.383 176.227 784.278V784.264C176.227 784.122 176.173 784.013 176.064 783.938C175.955 783.862 175.815 783.824 175.645 783.824C175.458 783.824 175.305 783.865 175.187 783.948C175.071 784.029 175.001 784.153 174.977 784.321H173.173C173.197 783.99 173.302 783.684 173.489 783.405C173.679 783.123 173.955 782.898 174.317 782.73C174.679 782.56 175.131 782.474 175.673 782.474C176.064 782.474 176.414 782.521 176.724 782.613C177.035 782.703 177.299 782.83 177.516 782.993C177.734 783.154 177.9 783.343 178.013 783.561C178.129 783.777 178.188 784.011 178.188 784.264V788H176.355V787.233H176.312C176.204 787.437 176.071 787.601 175.915 787.727C175.761 787.852 175.585 787.943 175.386 788C175.189 788.057 174.973 788.085 174.736 788.085ZM175.375 786.849C175.524 786.849 175.664 786.819 175.794 786.757C175.927 786.696 176.034 786.607 176.117 786.491C176.2 786.375 176.241 786.234 176.241 786.068V785.614C176.189 785.635 176.134 785.655 176.075 785.674C176.018 785.693 175.956 785.711 175.89 785.727C175.826 785.744 175.757 785.759 175.684 785.773C175.613 785.788 175.538 785.801 175.46 785.812C175.309 785.836 175.184 785.875 175.087 785.93C174.993 785.982 174.922 786.047 174.874 786.125C174.829 786.201 174.807 786.286 174.807 786.381C174.807 786.532 174.86 786.648 174.967 786.729C175.073 786.809 175.209 786.849 175.375 786.849ZM180.885 786.707L180.9 784.378H181.155L182.476 782.545H184.678L182.462 785.401H181.908L180.885 786.707ZM179.124 788V780.727H181.084V788H179.124ZM182.491 788L181.241 785.841L182.519 784.449L184.735 788H182.491ZM187.149 780.727V788H185.189V780.727H187.149ZM188.148 788V782.545H190.108V788H188.148ZM193.081 788.071C192.693 788.071 192.335 787.969 192.009 787.766C191.684 787.562 191.424 787.253 191.227 786.839C191.033 786.424 190.936 785.902 190.936 785.273C190.936 784.615 191.038 784.08 191.241 783.668C191.447 783.256 191.713 782.954 192.037 782.762C192.364 782.57 192.707 782.474 193.067 782.474C193.337 782.474 193.573 782.522 193.777 782.616C193.981 782.709 194.151 782.833 194.288 782.989C194.426 783.143 194.53 783.312 194.601 783.497H194.629V780.727H196.589V788H194.643V787.105H194.601C194.525 787.29 194.416 787.455 194.274 787.602C194.134 787.747 193.964 787.862 193.763 787.947C193.564 788.03 193.337 788.071 193.081 788.071ZM193.805 786.565C193.985 786.565 194.139 786.513 194.267 786.409C194.397 786.303 194.497 786.153 194.565 785.962C194.636 785.768 194.672 785.538 194.672 785.273C194.672 785.003 194.636 784.772 194.565 784.58C194.497 784.386 194.397 784.238 194.267 784.136C194.139 784.032 193.985 783.98 193.805 783.98C193.625 783.98 193.472 784.032 193.344 784.136C193.218 784.238 193.121 784.386 193.053 784.58C192.986 784.772 192.953 785.003 192.953 785.273C192.953 785.543 192.986 785.775 193.053 785.969C193.121 786.161 193.218 786.308 193.344 786.413C193.472 786.514 193.625 786.565 193.805 786.565ZM197.552 788V782.545H199.512V788H197.552ZM200.511 788V782.545H202.414V783.582H202.471C202.57 783.199 202.728 782.918 202.943 782.741C203.161 782.563 203.416 782.474 203.707 782.474C203.792 782.474 203.876 782.482 203.959 782.496C204.044 782.508 204.126 782.525 204.204 782.549V784.222C204.107 784.188 203.987 784.164 203.845 784.147C203.703 784.13 203.581 784.122 203.48 784.122C203.288 784.122 203.115 784.166 202.961 784.254C202.81 784.339 202.69 784.46 202.602 784.616C202.515 784.77 202.471 784.951 202.471 785.159V788H200.511ZM209.005 784.364C209.005 784.009 209.092 783.685 209.264 783.394C209.44 783.101 209.673 782.867 209.964 782.695C210.258 782.519 210.582 782.432 210.937 782.432C211.252 782.432 211.542 782.502 211.807 782.641C212.075 782.781 212.294 782.972 212.464 783.213C212.637 783.452 212.739 783.722 212.769 784.023H211.583C211.555 783.888 211.479 783.779 211.356 783.696C211.235 783.611 211.096 783.568 210.937 783.568C210.793 783.568 210.66 783.604 210.539 783.675C210.419 783.743 210.321 783.838 210.248 783.959C210.177 784.077 210.142 784.21 210.142 784.357C210.142 784.503 210.177 784.638 210.248 784.761C210.321 784.882 210.419 784.979 210.539 785.053C210.66 785.124 210.793 785.159 210.937 785.159C211.096 785.159 211.235 785.118 211.356 785.035C211.479 784.95 211.555 784.839 211.583 784.705H212.769C212.739 785.005 212.637 785.276 212.464 785.518C212.294 785.757 212.075 785.946 211.807 786.086C211.542 786.226 211.252 786.295 210.937 786.295C210.582 786.295 210.258 786.209 209.964 786.036C209.673 785.861 209.44 785.628 209.264 785.337C209.092 785.043 209.005 784.719 209.005 784.364ZM210.916 788.114C210.4 788.114 209.914 788.017 209.46 787.822C209.008 787.628 208.609 787.36 208.263 787.016C207.92 786.671 207.65 786.272 207.453 785.82C207.259 785.367 207.163 784.882 207.166 784.364C207.168 783.845 207.266 783.36 207.46 782.908C207.657 782.455 207.927 782.058 208.27 781.714C208.613 781.369 209.011 781.099 209.463 780.905C209.915 780.711 210.4 780.614 210.916 780.614C211.434 780.614 211.919 780.711 212.372 780.905C212.826 781.099 213.224 781.369 213.565 781.714C213.908 782.058 214.177 782.455 214.371 782.908C214.565 783.36 214.663 783.845 214.666 784.364C214.668 784.882 214.572 785.367 214.378 785.82C214.184 786.272 213.915 786.671 213.572 787.016C213.229 787.36 212.83 787.628 212.375 787.822C211.921 788.017 211.434 788.114 210.916 788.114ZM210.916 786.693C211.24 786.693 211.543 786.633 211.825 786.512C212.106 786.391 212.354 786.224 212.567 786.011C212.78 785.798 212.946 785.552 213.064 785.273C213.185 784.991 213.245 784.689 213.245 784.367C213.245 784.043 213.185 783.74 213.064 783.458C212.943 783.176 212.776 782.929 212.563 782.716C212.35 782.503 212.103 782.336 211.821 782.215C211.539 782.094 211.238 782.034 210.916 782.034C210.596 782.034 210.295 782.094 210.014 782.215C209.734 782.336 209.487 782.504 209.271 782.719C209.058 782.933 208.89 783.18 208.767 783.462C208.646 783.743 208.586 784.045 208.586 784.367C208.586 784.687 208.646 784.987 208.767 785.269C208.888 785.549 209.055 785.796 209.268 786.011C209.481 786.224 209.728 786.391 210.01 786.512C210.292 786.633 210.594 786.693 210.916 786.693ZM217.967 788V786.58L220.68 784.335C220.86 784.186 221.014 784.046 221.142 783.916C221.272 783.784 221.372 783.647 221.44 783.508C221.511 783.368 221.547 783.213 221.547 783.043C221.547 782.856 221.507 782.696 221.426 782.563C221.348 782.431 221.239 782.329 221.099 782.258C220.96 782.184 220.799 782.148 220.616 782.148C220.434 782.148 220.273 782.184 220.134 782.258C219.996 782.331 219.89 782.439 219.814 782.581C219.738 782.723 219.7 782.896 219.7 783.099H217.825C217.825 782.588 217.94 782.148 218.17 781.778C218.399 781.409 218.724 781.125 219.143 780.926C219.562 780.727 220.053 780.628 220.616 780.628C221.199 780.628 221.703 780.721 222.129 780.908C222.558 781.093 222.888 781.353 223.12 781.69C223.354 782.026 223.472 782.42 223.472 782.872C223.472 783.152 223.414 783.43 223.298 783.707C223.182 783.981 222.973 784.286 222.673 784.619C222.372 784.953 221.945 785.351 221.391 785.812L220.709 786.381V786.423H223.55V788H217.967ZM227.6 788.199C226.939 788.196 226.369 788.044 225.888 787.741C225.408 787.438 225.037 787.001 224.777 786.43C224.516 785.86 224.387 785.176 224.39 784.378C224.392 783.578 224.522 782.898 224.78 782.339C225.041 781.781 225.41 781.356 225.888 781.065C226.369 780.773 226.939 780.628 227.6 780.628C228.26 780.628 228.831 780.775 229.311 781.068C229.792 781.359 230.163 781.784 230.423 782.343C230.683 782.902 230.812 783.58 230.81 784.378C230.81 785.18 230.68 785.867 230.419 786.438C230.159 787.008 229.788 787.445 229.308 787.748C228.83 788.049 228.26 788.199 227.6 788.199ZM227.6 786.594C227.941 786.594 228.22 786.416 228.438 786.061C228.658 785.704 228.767 785.143 228.765 784.378C228.765 783.878 228.715 783.47 228.615 783.153C228.516 782.835 228.379 782.601 228.203 782.45C228.028 782.296 227.827 782.219 227.6 782.219C227.259 782.219 226.981 782.392 226.765 782.737C226.55 783.083 226.44 783.63 226.435 784.378C226.433 784.887 226.481 785.306 226.581 785.635C226.68 785.962 226.817 786.203 226.993 786.359C227.17 786.516 227.373 786.594 227.6 786.594ZM231.737 788V786.58L234.45 784.335C234.63 784.186 234.784 784.046 234.912 783.916C235.042 783.784 235.141 783.647 235.21 783.508C235.281 783.368 235.316 783.213 235.316 783.043C235.316 782.856 235.276 782.696 235.196 782.563C235.118 782.431 235.009 782.329 234.869 782.258C234.729 782.184 234.568 782.148 234.386 782.148C234.204 782.148 234.043 782.184 233.903 782.258C233.766 782.331 233.659 782.439 233.583 782.581C233.508 782.723 233.47 782.896 233.47 783.099H231.595C231.595 782.588 231.71 782.148 231.939 781.778C232.169 781.409 232.493 781.125 232.912 780.926C233.331 780.727 233.823 780.628 234.386 780.628C234.968 780.628 235.473 780.721 235.899 780.908C236.327 781.093 236.658 781.353 236.89 781.69C237.124 782.026 237.241 782.42 237.241 782.872C237.241 783.152 237.183 783.43 237.067 783.707C236.951 783.981 236.743 784.286 236.442 784.619C236.141 784.953 235.714 785.351 235.16 785.812L234.478 786.381V786.423H237.319V788H231.737ZM241.043 788.099C240.47 788.099 239.961 788.001 239.516 787.805C239.073 787.606 238.725 787.332 238.472 786.984C238.218 786.636 238.09 786.236 238.088 785.784H240.077C240.079 785.924 240.122 786.049 240.205 786.161C240.29 786.269 240.406 786.355 240.553 786.416C240.699 786.478 240.867 786.509 241.057 786.509C241.239 786.509 241.4 786.477 241.54 786.413C241.679 786.346 241.788 786.255 241.866 786.139C241.945 786.023 241.982 785.891 241.98 785.741C241.982 785.595 241.938 785.464 241.845 785.351C241.755 785.237 241.629 785.148 241.465 785.085C241.302 785.021 241.114 784.989 240.901 784.989H240.162V783.625H240.901C241.097 783.625 241.27 783.593 241.419 783.529C241.571 783.465 241.688 783.376 241.771 783.263C241.856 783.149 241.897 783.019 241.895 782.872C241.897 782.73 241.863 782.605 241.792 782.496C241.721 782.387 241.621 782.302 241.494 782.24C241.368 782.179 241.223 782.148 241.057 782.148C240.877 782.148 240.716 782.18 240.574 782.244C240.434 782.308 240.324 782.396 240.244 782.51C240.163 782.624 240.122 782.754 240.119 782.901H238.23C238.232 782.455 238.354 782.062 238.596 781.722C238.84 781.381 239.174 781.113 239.597 780.919C240.021 780.725 240.508 780.628 241.057 780.628C241.594 780.628 242.069 780.719 242.481 780.901C242.895 781.084 243.218 781.335 243.45 781.654C243.685 781.971 243.801 782.335 243.798 782.744C243.803 783.152 243.663 783.485 243.379 783.746C243.098 784.006 242.74 784.16 242.307 784.207V784.264C242.894 784.328 243.335 784.508 243.631 784.804C243.927 785.098 244.073 785.467 244.068 785.912C244.071 786.338 243.943 786.716 243.685 787.045C243.429 787.374 243.073 787.632 242.616 787.819C242.161 788.006 241.637 788.099 241.043 788.099ZM246.629 780.727H248.831L250.252 783.682H250.308L251.729 780.727H253.931L251.26 785.713V788H249.3V785.713L246.629 780.727ZM254.843 788.085C254.495 788.085 254.187 788.028 253.92 787.915C253.655 787.799 253.446 787.624 253.295 787.389C253.143 787.155 253.068 786.857 253.068 786.494C253.068 786.196 253.119 785.942 253.22 785.731C253.322 785.518 253.464 785.344 253.646 785.209C253.829 785.074 254.041 784.971 254.282 784.9C254.526 784.829 254.789 784.783 255.07 784.761C255.376 784.738 255.621 784.709 255.806 784.676C255.993 784.641 256.128 784.592 256.21 784.531C256.293 784.467 256.335 784.383 256.335 784.278V784.264C256.335 784.122 256.28 784.013 256.171 783.938C256.062 783.862 255.923 783.824 255.752 783.824C255.565 783.824 255.413 783.865 255.294 783.948C255.178 784.029 255.108 784.153 255.085 784.321H253.281C253.304 783.99 253.41 783.684 253.597 783.405C253.786 783.123 254.062 782.898 254.424 782.73C254.786 782.56 255.239 782.474 255.781 782.474C256.171 782.474 256.522 782.521 256.832 782.613C257.142 782.703 257.406 782.83 257.624 782.993C257.842 783.154 258.007 783.343 258.121 783.561C258.237 783.777 258.295 784.011 258.295 784.264V788H256.463V787.233H256.42C256.311 787.437 256.178 787.601 256.022 787.727C255.868 787.852 255.692 787.943 255.493 788C255.297 788.057 255.08 788.085 254.843 788.085ZM255.482 786.849C255.632 786.849 255.771 786.819 255.901 786.757C256.034 786.696 256.142 786.607 256.225 786.491C256.307 786.375 256.349 786.234 256.349 786.068V785.614C256.297 785.635 256.241 785.655 256.182 785.674C256.125 785.693 256.064 785.711 255.997 785.727C255.933 785.744 255.865 785.759 255.791 785.773C255.72 785.788 255.646 785.801 255.568 785.812C255.416 785.836 255.292 785.875 255.195 785.93C255.1 785.982 255.029 786.047 254.982 786.125C254.937 786.201 254.914 786.286 254.914 786.381C254.914 786.532 254.968 786.648 255.074 786.729C255.181 786.809 255.317 786.849 255.482 786.849ZM264.217 784.321H262.413C262.404 784.21 262.365 784.114 262.296 784.033C262.228 783.953 262.139 783.891 262.03 783.849C261.923 783.804 261.805 783.781 261.675 783.781C261.507 783.781 261.362 783.812 261.241 783.874C261.121 783.935 261.062 784.023 261.064 784.136C261.062 784.217 261.096 784.291 261.167 784.36C261.24 784.429 261.381 784.482 261.589 784.52L262.697 784.719C263.256 784.821 263.672 784.992 263.944 785.234C264.219 785.473 264.357 785.794 264.359 786.196C264.357 786.584 264.241 786.922 264.011 787.208C263.784 787.492 263.473 787.712 263.077 787.869C262.684 788.022 262.236 788.099 261.732 788.099C260.898 788.099 260.246 787.929 259.775 787.588C259.306 787.247 259.045 786.797 258.99 786.239H260.936C260.962 786.411 261.047 786.545 261.192 786.64C261.339 786.732 261.523 786.778 261.746 786.778C261.926 786.778 262.074 786.748 262.19 786.686C262.308 786.625 262.368 786.537 262.371 786.423C262.368 786.319 262.316 786.236 262.214 786.175C262.115 786.113 261.959 786.063 261.746 786.026L260.78 785.855C260.223 785.758 259.807 785.573 259.53 785.301C259.253 785.029 259.116 784.679 259.118 784.25C259.116 783.871 259.215 783.55 259.416 783.288C259.62 783.022 259.91 782.821 260.286 782.684C260.665 782.544 261.114 782.474 261.632 782.474C262.42 782.474 263.042 782.638 263.496 782.964C263.953 783.291 264.194 783.743 264.217 784.321ZM265.11 788V782.545H267.071V788H265.11ZM266.091 781.977C265.825 781.977 265.598 781.89 265.409 781.714C265.219 781.539 265.125 781.329 265.125 781.082C265.125 780.836 265.219 780.625 265.409 780.45C265.598 780.275 265.825 780.188 266.091 780.188C266.358 780.188 266.585 780.275 266.772 780.45C266.962 780.625 267.056 780.836 267.056 781.082C267.056 781.329 266.962 781.539 266.772 781.714C266.585 781.89 266.358 781.977 266.091 781.977ZM268.069 788V782.545H269.973V783.582H270.03C270.129 783.199 270.287 782.918 270.502 782.741C270.72 782.563 270.974 782.474 271.265 782.474C271.351 782.474 271.435 782.482 271.518 782.496C271.603 782.508 271.684 782.525 271.763 782.549V784.222C271.666 784.188 271.546 784.164 271.404 784.147C271.262 784.13 271.14 784.122 271.038 784.122C270.846 784.122 270.674 784.166 270.52 784.254C270.368 784.339 270.249 784.46 270.161 784.616C270.073 784.77 270.03 784.951 270.03 785.159V788H268.069ZM274.369 788V780.727H279.611V782.318H276.344V783.568H279.341V785.159H276.344V786.409H279.596V788H274.369ZM281.811 790.045C281.587 790.045 281.372 790.028 281.169 789.992C280.965 789.959 280.786 789.913 280.632 789.854L281.059 788.462C281.22 788.518 281.366 788.555 281.499 788.572C281.634 788.588 281.749 788.579 281.843 788.543C281.94 788.508 282.01 788.44 282.053 788.341L282.096 788.241L280.178 782.545H282.223L283.104 786.324H283.161L284.056 782.545H286.115L284.127 788.455C284.027 788.755 283.883 789.025 283.694 789.264C283.507 789.506 283.26 789.696 282.955 789.836C282.65 789.976 282.268 790.045 281.811 790.045ZM286.673 788V782.545H288.534V783.582H288.591C288.704 783.241 288.898 782.972 289.173 782.773C289.448 782.574 289.774 782.474 290.153 782.474C290.537 782.474 290.867 782.576 291.144 782.78C291.421 782.981 291.588 783.249 291.645 783.582H291.701C291.794 783.249 291.99 782.981 292.291 782.78C292.592 782.576 292.944 782.474 293.349 782.474C293.872 782.474 294.296 782.643 294.62 782.979C294.947 783.315 295.11 783.762 295.11 784.321V788H293.15V784.818C293.15 784.579 293.09 784.392 292.969 784.257C292.848 784.12 292.686 784.051 292.483 784.051C292.281 784.051 292.122 784.12 292.003 784.257C291.887 784.392 291.829 784.579 291.829 784.818V788H289.954V784.818C289.954 784.579 289.894 784.392 289.773 784.257C289.652 784.12 289.49 784.051 289.287 784.051C289.152 784.051 289.036 784.082 288.939 784.143C288.842 784.205 288.766 784.294 288.711 784.41C288.659 784.523 288.633 784.66 288.633 784.818V788H286.673ZM298.691 788.099C298.108 788.099 297.607 787.988 297.185 787.766C296.766 787.541 296.443 787.219 296.216 786.8C295.991 786.378 295.878 785.874 295.878 785.287C295.878 784.723 295.992 784.231 296.219 783.81C296.447 783.388 296.767 783.06 297.182 782.826C297.596 782.592 298.085 782.474 298.648 782.474C299.06 782.474 299.433 782.538 299.767 782.666C300.101 782.794 300.386 782.98 300.623 783.224C300.859 783.465 301.042 783.759 301.17 784.104C301.297 784.45 301.361 784.839 301.361 785.273V785.727H296.489V784.648H299.557C299.555 784.491 299.515 784.354 299.437 784.236C299.361 784.115 299.258 784.022 299.128 783.955C299 783.887 298.854 783.852 298.691 783.852C298.532 783.852 298.387 783.887 298.254 783.955C298.122 784.022 298.015 784.114 297.934 784.232C297.856 784.351 297.815 784.489 297.81 784.648V785.812C297.81 785.988 297.847 786.144 297.92 786.281C297.994 786.419 298.099 786.526 298.236 786.604C298.374 786.683 298.539 786.722 298.733 786.722C298.868 786.722 298.992 786.703 299.103 786.665C299.216 786.627 299.314 786.572 299.394 786.501C299.474 786.428 299.534 786.34 299.572 786.239H301.361C301.3 786.617 301.154 786.946 300.925 787.226C300.695 787.503 300.391 787.718 300.012 787.872C299.635 788.024 299.195 788.099 298.691 788.099ZM304.121 784.932V788H302.161V782.545H304.022V783.582H304.079C304.197 783.237 304.406 782.966 304.704 782.769C305.004 782.573 305.355 782.474 305.755 782.474C306.141 782.474 306.476 782.563 306.76 782.741C307.046 782.916 307.268 783.157 307.424 783.465C307.583 783.773 307.661 784.125 307.658 784.52V788H305.698V784.932C305.701 784.662 305.632 784.45 305.492 784.296C305.355 784.142 305.163 784.065 304.917 784.065C304.756 784.065 304.615 784.101 304.494 784.172C304.376 784.241 304.285 784.34 304.221 784.47C304.157 784.598 304.124 784.752 304.121 784.932ZM310.59 788V780.727H312.564V783.668H312.664L314.851 780.727H317.152L314.695 783.966L317.209 788H314.851L313.218 785.273L312.564 786.125V788H310.59ZM319.627 788H317.497L319.897 780.727H322.596L324.997 788H322.866L321.275 782.73H321.218L319.627 788ZM319.23 785.131H323.235V786.608H319.23V785.131ZM324.657 780.727H326.858L328.279 783.682H328.336L329.756 780.727H331.958L329.287 785.713V788H327.327V785.713L324.657 780.727ZM333.749 788H331.618L334.018 780.727H336.717L339.118 788H336.987L335.396 782.73H335.339L333.749 788ZM333.351 785.131H337.357V786.608H333.351V785.131ZM339.818 788V780.727H342.972C343.526 780.727 343.991 780.802 344.367 780.951C344.746 781.1 345.031 781.311 345.223 781.583C345.417 781.855 345.514 782.176 345.514 782.545C345.514 782.813 345.455 783.057 345.337 783.277C345.221 783.497 345.057 783.682 344.847 783.831C344.636 783.978 344.39 784.08 344.108 784.136V784.207C344.421 784.219 344.705 784.299 344.96 784.445C345.216 784.59 345.42 784.79 345.571 785.045C345.723 785.299 345.798 785.597 345.798 785.94C345.798 786.338 345.694 786.692 345.486 787.002C345.28 787.312 344.986 787.556 344.605 787.734C344.224 787.911 343.77 788 343.242 788H339.818ZM341.793 786.423H342.716C343.048 786.423 343.296 786.362 343.462 786.239C343.628 786.113 343.71 785.929 343.71 785.685C343.71 785.514 343.671 785.37 343.593 785.251C343.515 785.133 343.404 785.043 343.259 784.982C343.117 784.92 342.946 784.889 342.744 784.889H341.793V786.423ZM341.793 783.668H342.602C342.775 783.668 342.928 783.64 343.061 783.586C343.193 783.531 343.296 783.453 343.369 783.352C343.445 783.247 343.483 783.121 343.483 782.972C343.483 782.747 343.403 782.575 343.242 782.457C343.081 782.336 342.877 782.276 342.631 782.276H341.793V783.668ZM348.387 788H346.257L348.657 780.727H351.356L353.757 788H351.626L350.035 782.73H349.978L348.387 788ZM347.99 785.131H351.995V786.608H347.99V785.131ZM358.094 783C358.075 782.763 357.987 782.579 357.828 782.446C357.672 782.313 357.434 782.247 357.114 782.247C356.911 782.247 356.744 782.272 356.613 782.322C356.486 782.369 356.391 782.434 356.329 782.517C356.268 782.6 356.236 782.695 356.233 782.801C356.229 782.889 356.244 782.968 356.28 783.039C356.318 783.108 356.377 783.17 356.457 783.227C356.538 783.282 356.641 783.331 356.766 783.376C356.892 783.421 357.041 783.462 357.214 783.497L357.81 783.625C358.213 783.71 358.557 783.823 358.844 783.962C359.13 784.102 359.364 784.267 359.547 784.456C359.729 784.643 359.863 784.854 359.948 785.088C360.036 785.322 360.081 785.578 360.083 785.855C360.081 786.333 359.961 786.738 359.724 787.07C359.488 787.401 359.149 787.653 358.709 787.826C358.271 787.999 357.744 788.085 357.128 788.085C356.496 788.085 355.945 787.992 355.474 787.805C355.005 787.618 354.64 787.33 354.38 786.942C354.122 786.551 353.992 786.052 353.989 785.443H355.864C355.876 785.666 355.932 785.853 356.031 786.004C356.131 786.156 356.27 786.271 356.45 786.349C356.632 786.427 356.849 786.466 357.1 786.466C357.311 786.466 357.487 786.44 357.629 786.388C357.771 786.336 357.879 786.263 357.952 786.171C358.026 786.079 358.064 785.973 358.066 785.855C358.064 785.744 358.027 785.647 357.956 785.564C357.887 785.479 357.773 785.403 357.615 785.337C357.456 785.268 357.242 785.204 356.972 785.145L356.248 784.989C355.604 784.849 355.096 784.616 354.724 784.289C354.355 783.96 354.171 783.511 354.174 782.943C354.171 782.482 354.295 782.078 354.543 781.732C354.794 781.384 355.141 781.113 355.584 780.919C356.029 780.725 356.539 780.628 357.114 780.628C357.701 780.628 358.209 780.726 358.638 780.923C359.066 781.119 359.396 781.396 359.628 781.754C359.863 782.109 359.981 782.524 359.983 783H358.094ZM356.716 787.972H357.412L357.356 788.298C357.637 788.341 357.856 788.44 358.013 788.597C358.169 788.753 358.248 788.947 358.251 789.179C358.255 789.563 358.067 789.864 357.686 790.085C357.307 790.305 356.785 790.415 356.12 790.415V789.662C356.47 789.662 356.738 789.624 356.922 789.548C357.107 789.475 357.204 789.366 357.214 789.222C357.223 789.089 357.171 788.979 357.057 788.891C356.946 788.806 356.776 788.746 356.546 788.71L356.716 787.972ZM362.808 780.727V788H360.834V780.727H362.808Z" fill="white"/>
<path d="M51.5341 700H45.9375V685.455H51.4773C52.9735 685.455 54.2661 685.746 55.3551 686.328C56.4489 686.906 57.2917 687.739 57.8835 688.828C58.4801 689.912 58.7784 691.212 58.7784 692.727C58.7784 694.242 58.4825 695.545 57.8906 696.634C57.2988 697.718 56.4607 698.551 55.3764 699.134C54.2921 699.711 53.0114 700 51.5341 700ZM49.8864 696.648H51.392C52.1117 696.648 52.7249 696.532 53.2315 696.3C53.7429 696.068 54.1312 695.668 54.3963 695.099C54.6662 694.531 54.8011 693.741 54.8011 692.727C54.8011 691.714 54.6638 690.923 54.3892 690.355C54.1193 689.787 53.7216 689.387 53.196 689.155C52.6752 688.923 52.036 688.807 51.2784 688.807H49.8864V696.648ZM65.8896 700.199C64.7248 700.199 63.721 699.976 62.8782 699.531C62.0401 699.081 61.3938 698.437 60.9393 697.599C60.4895 696.757 60.2646 695.748 60.2646 694.574C60.2646 693.447 60.4918 692.462 60.9464 691.619C61.4009 690.777 62.0425 690.121 62.8711 689.652C63.6997 689.183 64.6774 688.949 65.8043 688.949C66.6282 688.949 67.3739 689.077 68.0415 689.332C68.7092 689.588 69.2797 689.96 69.7532 690.447C70.2267 690.93 70.5913 691.518 70.8469 692.209C71.1026 692.9 71.2305 693.679 71.2305 694.545V695.455H61.4862V693.295H67.6225C67.6178 692.983 67.5373 692.708 67.381 692.472C67.2295 692.23 67.0236 692.043 66.7631 691.911C66.5075 691.773 66.2163 691.705 65.8896 691.705C65.5723 691.705 65.2811 691.773 65.016 691.911C64.7508 692.043 64.5378 692.228 64.3768 692.464C64.2205 692.701 64.1377 692.978 64.1282 693.295V695.625C64.1282 695.975 64.2016 696.288 64.3484 696.562C64.4951 696.837 64.7058 697.053 64.9805 697.209C65.2551 697.365 65.5865 697.443 65.9748 697.443C66.2447 697.443 66.4909 697.405 66.7134 697.33C66.9407 697.254 67.1348 697.145 67.2958 697.003C67.4568 696.856 67.5752 696.681 67.6509 696.477H71.2305C71.1074 697.235 70.8162 697.893 70.3569 698.452C69.8976 699.006 69.2892 699.437 68.5316 699.744C67.7788 700.047 66.8981 700.199 65.8896 700.199ZM72.7734 700V685.455H76.6939V690.994H76.7507C76.8928 690.625 77.1011 690.286 77.3757 689.979C77.6503 689.666 77.9912 689.418 78.3984 689.233C78.8056 689.044 79.2791 688.949 79.8189 688.949C80.5386 688.949 81.2228 689.141 81.8714 689.524C82.5249 689.908 83.0552 690.511 83.4624 691.335C83.8743 692.159 84.0803 693.229 84.0803 694.545C84.0803 695.805 83.8838 696.849 83.4908 697.678C83.1025 698.506 82.5817 699.124 81.9283 699.531C81.2796 699.938 80.567 700.142 79.7905 700.142C79.2791 700.142 78.8222 700.059 78.4197 699.893C78.022 699.723 77.6811 699.493 77.397 699.205C77.1177 698.911 76.9022 698.58 76.7507 698.21H76.6655V700H72.7734ZM76.6087 694.545C76.6087 695.076 76.6773 695.535 76.8146 695.923C76.9567 696.307 77.1555 696.605 77.4112 696.818C77.6716 697.027 77.9818 697.131 78.3416 697.131C78.7015 697.131 79.0069 697.029 79.2578 696.825C79.5135 696.617 79.7076 696.321 79.8402 695.938C79.9775 695.549 80.0462 695.085 80.0462 694.545C80.0462 694.006 79.9775 693.544 79.8402 693.161C79.7076 692.772 79.5135 692.476 79.2578 692.273C79.0069 692.064 78.7015 691.96 78.3416 691.96C77.9818 691.96 77.6716 692.064 77.4112 692.273C77.1555 692.476 76.9567 692.772 76.8146 693.161C76.6773 693.544 76.6087 694.006 76.6087 694.545ZM92.7947 695.227V689.091H96.7152V700H92.9936V697.926H92.88C92.6432 698.622 92.2289 699.167 91.6371 699.56C91.0452 699.948 90.3421 700.142 89.5277 700.142C88.7654 700.142 88.0978 699.967 87.5249 699.616C86.9567 699.266 86.514 698.783 86.1967 698.168C85.8842 697.552 85.7256 696.847 85.7209 696.051V689.091H89.6413V695.227C89.6461 695.767 89.7834 696.191 90.0533 696.499C90.3279 696.806 90.7114 696.96 91.2038 696.96C91.5305 696.96 91.8123 696.892 92.049 696.754C92.2905 696.612 92.4751 696.413 92.603 696.158C92.7356 695.897 92.7995 695.587 92.7947 695.227ZM103.965 704.318C102.871 704.318 101.934 704.162 101.152 703.849C100.376 703.542 99.7721 703.116 99.3413 702.571C98.9151 702.031 98.676 701.411 98.6239 700.71H102.402C102.44 700.942 102.535 701.129 102.686 701.271C102.838 701.413 103.032 701.515 103.269 701.577C103.51 701.643 103.78 701.676 104.078 701.676C104.585 701.676 105.004 701.553 105.336 701.307C105.672 701.061 105.84 700.616 105.84 699.972V698.125H105.726C105.584 698.494 105.366 698.809 105.073 699.07C104.779 699.325 104.426 699.522 104.015 699.659C103.603 699.792 103.15 699.858 102.658 699.858C101.882 699.858 101.167 699.678 100.513 699.318C99.8645 698.958 99.3436 698.388 98.9506 697.607C98.5624 696.825 98.3683 695.805 98.3683 694.545C98.3683 693.229 98.5719 692.159 98.979 691.335C99.391 690.511 99.9213 689.908 100.57 689.524C101.223 689.141 101.91 688.949 102.63 688.949C103.169 688.949 103.643 689.044 104.05 689.233C104.457 689.418 104.798 689.666 105.073 689.979C105.347 690.286 105.556 690.625 105.698 690.994H105.783V689.091H109.703V699.972C109.703 700.895 109.464 701.679 108.986 702.322C108.513 702.971 107.845 703.466 106.983 703.807C106.122 704.148 105.115 704.318 103.965 704.318ZM104.107 697.074C104.467 697.074 104.775 696.974 105.03 696.776C105.291 696.572 105.489 696.283 105.627 695.909C105.769 695.53 105.84 695.076 105.84 694.545C105.84 694.006 105.769 693.544 105.627 693.161C105.489 692.772 105.291 692.476 105.03 692.273C104.775 692.064 104.467 691.96 104.107 691.96C103.747 691.96 103.439 692.064 103.184 692.273C102.933 692.476 102.739 692.772 102.601 693.161C102.469 693.544 102.402 694.006 102.402 694.545C102.402 695.085 102.469 695.545 102.601 695.923C102.739 696.297 102.933 696.584 103.184 696.783C103.439 696.977 103.747 697.074 104.107 697.074ZM116.953 704.318C115.859 704.318 114.922 704.162 114.141 703.849C113.364 703.542 112.76 703.116 112.33 702.571C111.903 702.031 111.664 701.411 111.612 700.71H115.391C115.429 700.942 115.523 701.129 115.675 701.271C115.826 701.413 116.02 701.515 116.257 701.577C116.499 701.643 116.768 701.676 117.067 701.676C117.573 701.676 117.992 701.553 118.324 701.307C118.66 701.061 118.828 700.616 118.828 699.972V698.125H118.714C118.572 698.494 118.355 698.809 118.061 699.07C117.768 699.325 117.415 699.522 117.003 699.659C116.591 699.792 116.139 699.858 115.646 699.858C114.87 699.858 114.155 699.678 113.501 699.318C112.853 698.958 112.332 698.388 111.939 697.607C111.551 696.825 111.357 695.805 111.357 694.545C111.357 693.229 111.56 692.159 111.967 691.335C112.379 690.511 112.91 689.908 113.558 689.524C114.212 689.141 114.898 688.949 115.618 688.949C116.158 688.949 116.631 689.044 117.038 689.233C117.446 689.418 117.786 689.666 118.061 689.979C118.336 690.286 118.544 690.625 118.686 690.994H118.771V689.091H122.692V699.972C122.692 700.895 122.453 701.679 121.974 702.322C121.501 702.971 120.833 703.466 119.972 703.807C119.11 704.148 118.104 704.318 116.953 704.318ZM117.095 697.074C117.455 697.074 117.763 696.974 118.018 696.776C118.279 696.572 118.478 696.283 118.615 695.909C118.757 695.53 118.828 695.076 118.828 694.545C118.828 694.006 118.757 693.544 118.615 693.161C118.478 692.772 118.279 692.476 118.018 692.273C117.763 692.064 117.455 691.96 117.095 691.96C116.735 691.96 116.428 692.064 116.172 692.273C115.921 692.476 115.727 692.772 115.589 693.161C115.457 693.544 115.391 694.006 115.391 694.545C115.391 695.085 115.457 695.545 115.589 695.923C115.727 696.297 115.921 696.584 116.172 696.783C116.428 696.977 116.735 697.074 117.095 697.074ZM129.913 700.199C128.748 700.199 127.744 699.976 126.902 699.531C126.064 699.081 125.417 698.437 124.963 697.599C124.513 696.757 124.288 695.748 124.288 694.574C124.288 693.447 124.515 692.462 124.97 691.619C125.424 690.777 126.066 690.121 126.895 689.652C127.723 689.183 128.701 688.949 129.828 688.949C130.652 688.949 131.397 689.077 132.065 689.332C132.733 689.588 133.303 689.96 133.777 690.447C134.25 690.93 134.615 691.518 134.87 692.209C135.126 692.9 135.254 693.679 135.254 694.545V695.455H125.51V693.295H131.646C131.641 692.983 131.561 692.708 131.404 692.472C131.253 692.23 131.047 692.043 130.787 691.911C130.531 691.773 130.24 691.705 129.913 691.705C129.596 691.705 129.305 691.773 129.039 691.911C128.774 692.043 128.561 692.228 128.4 692.464C128.244 692.701 128.161 692.978 128.152 693.295V695.625C128.152 695.975 128.225 696.288 128.372 696.562C128.519 696.837 128.729 697.053 129.004 697.209C129.279 697.365 129.61 697.443 129.998 697.443C130.268 697.443 130.514 697.405 130.737 697.33C130.964 697.254 131.158 697.145 131.319 697.003C131.48 696.856 131.599 696.681 131.674 696.477H135.254C135.131 697.235 134.84 697.893 134.38 698.452C133.921 699.006 133.313 699.437 132.555 699.744C131.802 700.047 130.922 700.199 129.913 700.199ZM136.854 700V689.091H140.661V691.165H140.774C140.973 690.398 141.288 689.837 141.719 689.482C142.154 689.126 142.663 688.949 143.246 688.949C143.416 688.949 143.584 688.963 143.75 688.991C143.92 689.015 144.084 689.051 144.24 689.098V692.443C144.046 692.377 143.807 692.327 143.523 692.294C143.239 692.261 142.995 692.244 142.791 692.244C142.408 692.244 142.062 692.332 141.754 692.507C141.451 692.678 141.212 692.919 141.037 693.232C140.862 693.539 140.774 693.902 140.774 694.318V700H136.854ZM147.656 700.227C147.107 700.227 146.636 700.036 146.243 699.652C145.855 699.264 145.663 698.793 145.668 698.239C145.663 697.699 145.855 697.237 146.243 696.854C146.636 696.47 147.107 696.278 147.656 696.278C148.177 696.278 148.636 696.47 149.034 696.854C149.437 697.237 149.64 697.699 149.645 698.239C149.64 698.608 149.543 698.944 149.354 699.247C149.169 699.545 148.928 699.785 148.629 699.964C148.331 700.14 148.007 700.227 147.656 700.227ZM147.656 692.898C147.107 692.898 146.636 692.706 146.243 692.322C145.855 691.934 145.663 691.463 145.668 690.909C145.663 690.369 145.855 689.908 146.243 689.524C146.636 689.141 147.107 688.949 147.656 688.949C148.177 688.949 148.636 689.141 149.034 689.524C149.437 689.908 149.64 690.369 149.645 690.909C149.64 691.278 149.543 691.615 149.354 691.918C149.169 692.216 148.928 692.455 148.629 692.635C148.331 692.81 148.007 692.898 147.656 692.898ZM155.703 685.455H160.618L163.999 693.693H164.169L167.55 685.455H172.464V700H168.601V691.591H168.487L165.249 699.886H162.919L159.68 691.534H159.567V700H155.703V685.455ZM179.648 700.199C178.465 700.199 177.451 699.964 176.609 699.496C175.766 699.022 175.12 698.364 174.67 697.521C174.22 696.674 173.995 695.691 173.995 694.574C173.995 693.456 174.22 692.476 174.67 691.634C175.12 690.786 175.766 690.128 176.609 689.659C177.451 689.186 178.465 688.949 179.648 688.949C180.832 688.949 181.845 689.186 182.688 689.659C183.531 690.128 184.177 690.786 184.627 691.634C185.077 692.476 185.302 693.456 185.302 694.574C185.302 695.691 185.077 696.674 184.627 697.521C184.177 698.364 183.531 699.022 182.688 699.496C181.845 699.964 180.832 700.199 179.648 700.199ZM179.677 697.301C180.008 697.301 180.295 697.19 180.536 696.967C180.778 696.745 180.965 696.428 181.097 696.016C181.23 695.604 181.296 695.114 181.296 694.545C181.296 693.973 181.23 693.482 181.097 693.075C180.965 692.663 180.778 692.346 180.536 692.124C180.295 691.901 180.008 691.79 179.677 691.79C179.326 691.79 179.026 691.901 178.775 692.124C178.524 692.346 178.332 692.663 178.2 693.075C178.067 693.482 178.001 693.973 178.001 694.545C178.001 695.114 178.067 695.604 178.2 696.016C178.332 696.428 178.524 696.745 178.775 696.967C179.026 697.19 179.326 697.301 179.677 697.301ZM186.836 700V685.455H190.756V690.994H190.813C190.955 690.625 191.164 690.286 191.438 689.979C191.713 689.666 192.054 689.418 192.461 689.233C192.868 689.044 193.342 688.949 193.881 688.949C194.601 688.949 195.285 689.141 195.934 689.524C196.587 689.908 197.118 690.511 197.525 691.335C197.937 692.159 198.143 693.229 198.143 694.545C198.143 695.805 197.946 696.849 197.553 697.678C197.165 698.506 196.644 699.124 195.991 699.531C195.342 699.938 194.629 700.142 193.853 700.142C193.342 700.142 192.885 700.059 192.482 699.893C192.085 699.723 191.744 699.493 191.46 699.205C191.18 698.911 190.965 698.58 190.813 698.21H190.728V700H186.836ZM190.671 694.545C190.671 695.076 190.74 695.535 190.877 695.923C191.019 696.307 191.218 696.605 191.474 696.818C191.734 697.027 192.044 697.131 192.404 697.131C192.764 697.131 193.069 697.029 193.32 696.825C193.576 696.617 193.77 696.321 193.903 695.938C194.04 695.549 194.109 695.085 194.109 694.545C194.109 694.006 194.04 693.544 193.903 693.161C193.77 692.772 193.576 692.476 193.32 692.273C193.069 692.064 192.764 691.96 192.404 691.96C192.044 691.96 191.734 692.064 191.474 692.273C191.218 692.476 191.019 692.772 190.877 693.161C190.74 693.544 190.671 694.006 190.671 694.545ZM199.783 700V689.091H203.704V700H199.783ZM201.744 687.955C201.213 687.955 200.759 687.779 200.38 687.429C200.001 687.079 199.812 686.657 199.812 686.165C199.812 685.672 200.001 685.251 200.38 684.901C200.759 684.55 201.213 684.375 201.744 684.375C202.279 684.375 202.733 684.55 203.107 684.901C203.486 685.251 203.675 685.672 203.675 686.165C203.675 686.657 203.486 687.079 203.107 687.429C202.733 687.779 202.279 687.955 201.744 687.955ZM209.622 685.455V700H205.701V685.455H209.622ZM216.847 700.199C215.682 700.199 214.678 699.976 213.835 699.531C212.997 699.081 212.351 698.437 211.896 697.599C211.446 696.757 211.222 695.748 211.222 694.574C211.222 693.447 211.449 692.462 211.903 691.619C212.358 690.777 213 690.121 213.828 689.652C214.657 689.183 215.634 688.949 216.761 688.949C217.585 688.949 218.331 689.077 218.999 689.332C219.666 689.588 220.237 689.96 220.71 690.447C221.184 690.93 221.548 691.518 221.804 692.209C222.06 692.9 222.188 693.679 222.188 694.545V695.455H212.443V693.295H218.58C218.575 692.983 218.494 692.708 218.338 692.472C218.187 692.23 217.981 692.043 217.72 691.911C217.464 691.773 217.173 691.705 216.847 691.705C216.529 691.705 216.238 691.773 215.973 691.911C215.708 692.043 215.495 692.228 215.334 692.464C215.178 692.701 215.095 692.978 215.085 693.295V695.625C215.085 695.975 215.159 696.288 215.305 696.562C215.452 696.837 215.663 697.053 215.938 697.209C216.212 697.365 216.544 697.443 216.932 697.443C217.202 697.443 217.448 697.405 217.67 697.33C217.898 697.254 218.092 697.145 218.253 697.003C218.414 696.856 218.532 696.681 218.608 696.477H222.188C222.064 697.235 221.773 697.893 221.314 698.452C220.855 699.006 220.246 699.437 219.489 699.744C218.736 700.047 217.855 700.199 216.847 700.199ZM227.715 700V685.455H231.635V690.994H231.692C231.834 690.625 232.042 690.286 232.317 689.979C232.592 689.666 232.933 689.418 233.34 689.233C233.747 689.044 234.221 688.949 234.76 688.949C235.48 688.949 236.164 689.141 236.813 689.524C237.466 689.908 237.997 690.511 238.404 691.335C238.816 692.159 239.022 693.229 239.022 694.545C239.022 695.805 238.825 696.849 238.432 697.678C238.044 698.506 237.523 699.124 236.87 699.531C236.221 699.938 235.508 700.142 234.732 700.142C234.221 700.142 233.764 700.059 233.361 699.893C232.963 699.723 232.623 699.493 232.338 699.205C232.059 698.911 231.844 698.58 231.692 698.21H231.607V700H227.715ZM231.55 694.545C231.55 695.076 231.619 695.535 231.756 695.923C231.898 696.307 232.097 696.605 232.353 696.818C232.613 697.027 232.923 697.131 233.283 697.131C233.643 697.131 233.948 697.029 234.199 696.825C234.455 696.617 234.649 696.321 234.782 695.938C234.919 695.549 234.988 695.085 234.988 694.545C234.988 694.006 234.919 693.544 234.782 693.161C234.649 692.772 234.455 692.476 234.199 692.273C233.948 692.064 233.643 691.96 233.283 691.96C232.923 691.96 232.613 692.064 232.353 692.273C232.097 692.476 231.898 692.772 231.756 693.161C231.619 693.544 231.55 694.006 231.55 694.545ZM245.918 700.199C244.734 700.199 243.721 699.964 242.878 699.496C242.035 699.022 241.389 698.364 240.939 697.521C240.489 696.674 240.265 695.691 240.265 694.574C240.265 693.456 240.489 692.476 240.939 691.634C241.389 690.786 242.035 690.128 242.878 689.659C243.721 689.186 244.734 688.949 245.918 688.949C247.102 688.949 248.115 689.186 248.958 689.659C249.801 690.128 250.447 690.786 250.897 691.634C251.346 692.476 251.571 693.456 251.571 694.574C251.571 695.691 251.346 696.674 250.897 697.521C250.447 698.364 249.801 699.022 248.958 699.496C248.115 699.964 247.102 700.199 245.918 700.199ZM245.946 697.301C246.278 697.301 246.564 697.19 246.806 696.967C247.047 696.745 247.234 696.428 247.367 696.016C247.499 695.604 247.566 695.114 247.566 694.545C247.566 693.973 247.499 693.482 247.367 693.075C247.234 692.663 247.047 692.346 246.806 692.124C246.564 691.901 246.278 691.79 245.946 691.79C245.596 691.79 245.295 691.901 245.044 692.124C244.793 692.346 244.602 692.663 244.469 693.075C244.337 693.482 244.27 693.973 244.27 694.545C244.27 695.114 244.337 695.604 244.469 696.016C244.602 696.428 244.793 696.745 245.044 696.967C245.295 697.19 245.596 697.301 245.946 697.301ZM243.674 687.812C243.191 687.812 242.781 687.652 242.445 687.33C242.109 687.008 241.941 686.619 241.941 686.165C241.941 685.71 242.109 685.322 242.445 685C242.781 684.678 243.191 684.517 243.674 684.517C244.142 684.517 244.542 684.678 244.874 685C245.21 685.322 245.378 685.71 245.378 686.165C245.378 686.619 245.21 687.008 244.874 687.33C244.542 687.652 244.142 687.812 243.674 687.812ZM248.191 687.812C247.708 687.812 247.298 687.652 246.962 687.33C246.626 687.008 246.458 686.619 246.458 686.165C246.458 685.71 246.626 685.322 246.962 685C247.298 684.678 247.708 684.517 248.191 684.517C248.659 684.517 249.06 684.678 249.391 685C249.727 685.322 249.895 685.71 249.895 686.165C249.895 686.619 249.727 687.008 249.391 687.33C249.06 687.652 248.659 687.812 248.191 687.812ZM258.418 700.199C257.234 700.199 256.221 699.964 255.378 699.496C254.535 699.022 253.889 698.364 253.439 697.521C252.989 696.674 252.765 695.691 252.765 694.574C252.765 693.456 252.989 692.476 253.439 691.634C253.889 690.786 254.535 690.128 255.378 689.659C256.221 689.186 257.234 688.949 258.418 688.949C259.488 688.949 260.414 689.143 261.195 689.531C261.981 689.915 262.589 690.459 263.02 691.165C263.451 691.866 263.669 692.689 263.674 693.636H260.037C259.985 693.063 259.819 692.628 259.54 692.33C259.266 692.027 258.91 691.875 258.475 691.875C258.134 691.875 257.836 691.974 257.58 692.173C257.324 692.367 257.125 692.663 256.983 693.061C256.841 693.454 256.77 693.949 256.77 694.545C256.77 695.142 256.841 695.639 256.983 696.037C257.125 696.43 257.324 696.726 257.58 696.925C257.836 697.119 258.134 697.216 258.475 697.216C258.764 697.216 259.019 697.15 259.242 697.017C259.464 696.88 259.644 696.681 259.782 696.42C259.924 696.155 260.009 695.833 260.037 695.455H263.674C263.659 696.416 263.439 697.254 263.013 697.969C262.587 698.679 261.983 699.228 261.202 699.616C260.426 700.005 259.498 700.199 258.418 700.199ZM270.518 700.199C269.354 700.199 268.35 699.976 267.507 699.531C266.669 699.081 266.023 698.437 265.568 697.599C265.118 696.757 264.893 695.748 264.893 694.574C264.893 693.447 265.121 692.462 265.575 691.619C266.03 690.777 266.671 690.121 267.5 689.652C268.329 689.183 269.306 688.949 270.433 688.949C271.257 688.949 272.003 689.077 272.67 689.332C273.338 689.588 273.909 689.96 274.382 690.447C274.856 690.93 275.22 691.518 275.476 692.209C275.732 692.9 275.859 693.679 275.859 694.545V695.455H266.115V693.295H272.251C272.247 692.983 272.166 692.708 272.01 692.472C271.858 692.23 271.652 692.043 271.392 691.911C271.136 691.773 270.845 691.705 270.518 691.705C270.201 691.705 269.91 691.773 269.645 691.911C269.38 692.043 269.167 692.228 269.006 692.464C268.849 692.701 268.767 692.978 268.757 693.295V695.625C268.757 695.975 268.83 696.288 268.977 696.562C269.124 696.837 269.335 697.053 269.609 697.209C269.884 697.365 270.215 697.443 270.604 697.443C270.874 697.443 271.12 697.405 271.342 697.33C271.57 697.254 271.764 697.145 271.925 697.003C272.086 696.856 272.204 696.681 272.28 696.477H275.859C275.736 697.235 275.445 697.893 274.986 698.452C274.527 699.006 273.918 699.437 273.161 699.744C272.408 700.047 271.527 700.199 270.518 700.199ZM280.982 697.415L281.01 692.756H281.522L284.164 689.091H288.567L284.135 694.801H283.027L280.982 697.415ZM277.459 700V685.455H281.38V700H277.459ZM284.192 700L281.692 695.682L284.249 692.898L288.681 700H284.192ZM303.544 692.642H299.936C299.917 692.42 299.839 692.228 299.702 692.067C299.564 691.906 299.387 691.783 299.169 691.697C298.956 691.607 298.719 691.562 298.459 691.562C298.123 691.562 297.834 691.624 297.592 691.747C297.351 691.87 297.232 692.045 297.237 692.273C297.232 692.434 297.301 692.583 297.443 692.72C297.59 692.857 297.872 692.964 298.288 693.04L300.504 693.438C301.622 693.641 302.453 693.984 302.997 694.467C303.546 694.946 303.823 695.587 303.828 696.392C303.823 697.169 303.591 697.843 303.132 698.416C302.678 698.984 302.055 699.425 301.264 699.737C300.478 700.045 299.581 700.199 298.572 700.199C296.906 700.199 295.601 699.858 294.659 699.176C293.722 698.494 293.198 697.595 293.089 696.477H296.982C297.034 696.823 297.204 697.09 297.493 697.28C297.786 697.464 298.156 697.557 298.601 697.557C298.961 697.557 299.257 697.495 299.489 697.372C299.725 697.249 299.846 697.074 299.851 696.847C299.846 696.638 299.742 696.473 299.538 696.349C299.339 696.226 299.027 696.127 298.601 696.051L296.669 695.71C295.556 695.516 294.723 695.147 294.169 694.602C293.615 694.058 293.34 693.357 293.345 692.5C293.34 691.742 293.539 691.101 293.942 690.575C294.349 690.045 294.929 689.643 295.682 689.368C296.439 689.089 297.337 688.949 298.374 688.949C299.95 688.949 301.193 689.276 302.102 689.929C303.016 690.582 303.497 691.487 303.544 692.642ZM308.37 700.17C307.674 700.17 307.058 700.057 306.523 699.83C305.993 699.598 305.576 699.247 305.273 698.778C304.97 698.31 304.819 697.713 304.819 696.989C304.819 696.392 304.921 695.883 305.124 695.462C305.328 695.036 305.612 694.688 305.977 694.418C306.341 694.148 306.765 693.942 307.248 693.8C307.736 693.658 308.261 693.565 308.825 693.523C309.435 693.475 309.925 693.419 310.295 693.352C310.669 693.281 310.939 693.184 311.104 693.061C311.27 692.933 311.353 692.765 311.353 692.557V692.528C311.353 692.244 311.244 692.027 311.026 691.875C310.808 691.723 310.529 691.648 310.188 691.648C309.814 691.648 309.509 691.731 309.272 691.896C309.04 692.057 308.9 692.306 308.853 692.642H305.245C305.292 691.979 305.503 691.368 305.877 690.81C306.256 690.246 306.808 689.796 307.532 689.46C308.256 689.119 309.161 688.949 310.245 688.949C311.026 688.949 311.727 689.041 312.347 689.226C312.968 689.406 313.496 689.659 313.931 689.986C314.367 690.308 314.698 690.687 314.925 691.122C315.157 691.553 315.273 692.022 315.273 692.528V700H311.609V698.466H311.523C311.306 698.873 311.04 699.202 310.728 699.453C310.42 699.704 310.067 699.886 309.67 700C309.277 700.114 308.844 700.17 308.37 700.17ZM309.648 697.699C309.947 697.699 310.226 697.637 310.487 697.514C310.752 697.391 310.967 697.214 311.133 696.982C311.299 696.75 311.381 696.468 311.381 696.136V695.227C311.277 695.27 311.166 695.31 311.048 695.348C310.934 695.386 310.811 695.421 310.678 695.455C310.55 695.488 310.413 695.518 310.266 695.547C310.124 695.575 309.975 695.601 309.819 695.625C309.516 695.672 309.267 695.75 309.073 695.859C308.884 695.964 308.742 696.094 308.647 696.25C308.557 696.402 308.512 696.572 308.512 696.761C308.512 697.064 308.619 697.296 308.832 697.457C309.045 697.618 309.317 697.699 309.648 697.699ZM327.75 689.091L324.086 700H319.54L315.875 689.091H319.995L321.756 696.307H321.87L323.631 689.091H327.75ZM331.632 700.17C330.936 700.17 330.32 700.057 329.785 699.83C329.255 699.598 328.838 699.247 328.535 698.778C328.232 698.31 328.081 697.713 328.081 696.989C328.081 696.392 328.182 695.883 328.386 695.462C328.59 695.036 328.874 694.688 329.238 694.418C329.603 694.148 330.027 693.942 330.51 693.8C330.997 693.658 331.523 693.565 332.086 693.523C332.697 693.475 333.187 693.419 333.556 693.352C333.931 693.281 334.2 693.184 334.366 693.061C334.532 692.933 334.615 692.765 334.615 692.557V692.528C334.615 692.244 334.506 692.027 334.288 691.875C334.07 691.723 333.791 691.648 333.45 691.648C333.076 691.648 332.77 691.731 332.534 691.896C332.302 692.057 332.162 692.306 332.115 692.642H328.507C328.554 691.979 328.765 691.368 329.139 690.81C329.518 690.246 330.069 689.796 330.794 689.46C331.518 689.119 332.422 688.949 333.507 688.949C334.288 688.949 334.989 689.041 335.609 689.226C336.229 689.406 336.757 689.659 337.193 689.986C337.628 690.308 337.96 690.687 338.187 691.122C338.419 691.553 338.535 692.022 338.535 692.528V700H334.87V698.466H334.785C334.567 698.873 334.302 699.202 333.99 699.453C333.682 699.704 333.329 699.886 332.931 700C332.538 700.114 332.105 700.17 331.632 700.17ZM332.91 697.699C333.208 697.699 333.488 697.637 333.748 697.514C334.013 697.391 334.229 697.214 334.395 696.982C334.56 696.75 334.643 696.468 334.643 696.136V695.227C334.539 695.27 334.428 695.31 334.309 695.348C334.196 695.386 334.073 695.421 333.94 695.455C333.812 695.488 333.675 695.518 333.528 695.547C333.386 695.575 333.237 695.601 333.081 695.625C332.778 695.672 332.529 695.75 332.335 695.859C332.145 695.964 332.003 696.094 331.909 696.25C331.819 696.402 331.774 696.572 331.774 696.761C331.774 697.064 331.88 697.296 332.093 697.457C332.306 697.618 332.579 697.699 332.91 697.699ZM340.408 700V689.091H344.215V691.165H344.329C344.528 690.398 344.843 689.837 345.273 689.482C345.709 689.126 346.218 688.949 346.8 688.949C346.971 688.949 347.139 688.963 347.305 688.991C347.475 689.015 347.638 689.051 347.795 689.098V692.443C347.601 692.377 347.362 692.327 347.077 692.294C346.793 692.261 346.549 692.244 346.346 692.244C345.962 692.244 345.617 692.332 345.309 692.507C345.006 692.678 344.767 692.919 344.592 693.232C344.416 693.539 344.329 693.902 344.329 694.318V700H340.408Z" fill="white"/>
<rect y="768" width="98" height="44" fill="white"/>
<rect y="768" width="98" height="44" fill="white"/>
<rect y="768" width="98" height="44" fill="white"/>
<rect y="768" width="98" height="44" fill="white"/>
<rect x="273" width="102" height="25" fill="white"/>
<rect x="273" width="102" height="25" fill="white"/>
<rect x="273" width="102" height="25" fill="white"/>
<rect x="273" width="102" height="25" fill="white"/>
</g>
<defs>
<clipPath id="clip0_11_12">
<rect width="375" height="812" fill="white"/>
</clipPath>
</defs>
</svg>
