<svg width="568" height="320" viewBox="0 0 568 320" fill="none" xmlns="http://www.w3.org/2000/svg">
<g clip-path="url(#clip0_11_52)">
<rect width="320" height="568" transform="matrix(0 -1 1 0 0 320)" fill="#9E479E"/>
<rect x="134.5" y="254.5" width="189" height="189" rx="51.5" transform="rotate(-90 134.5 254.5)" fill="#FF0000" stroke="black" stroke-width="23"/>
<ellipse cx="225.5" cy="156.5" rx="32.5" ry="49.5" transform="rotate(-90 225.5 156.5)" fill="white"/>
<line x1="214.464" y1="144.593" x2="238.464" y2="105.593" stroke="white" stroke-width="13"/>
<line x1="254.536" y1="175.407" x2="230.536" y2="214.407" stroke="white" stroke-width="13"/>
<line x1="312.758" y1="232.925" x2="146.758" y2="89.9247" stroke="black" stroke-width="13"/>
<ellipse cx="176.5" cy="156.5" rx="14.5" ry="11.5" transform="rotate(-90 176.5 156.5)" fill="white"/>
<line x1="205.536" y1="174.407" x2="181.536" y2="213.407" stroke="white" stroke-width="13"/>
<line x1="227.536" y1="179.407" x2="203.536" y2="218.407" stroke="white" stroke-width="13"/>
<line x1="263.464" y1="145.593" x2="287.464" y2="106.593" stroke="white" stroke-width="13"/>
<line x1="241.464" y1="140.593" x2="265.464" y2="101.593" stroke="white" stroke-width="13"/>
<path d="M451 202.357V207.953H436.454V202.413C436.454 200.917 436.746 199.625 437.328 198.536C437.906 197.442 438.739 196.599 439.828 196.007C440.912 195.411 442.212 195.112 443.727 195.112C445.242 195.112 446.544 195.408 447.633 196C448.718 196.592 449.551 197.43 450.133 198.514C450.711 199.598 451 200.879 451 202.357ZM447.648 204.004V202.499C447.648 201.779 447.532 201.166 447.3 200.659C447.068 200.148 446.668 199.759 446.099 199.494C445.531 199.224 444.74 199.089 443.727 199.089C442.714 199.089 441.923 199.227 441.355 199.501C440.787 199.771 440.387 200.169 440.155 200.695C439.923 201.215 439.807 201.855 439.807 202.612V204.004H447.648ZM451.199 188.001C451.199 189.166 450.976 190.17 450.531 191.012C450.081 191.851 449.437 192.497 448.599 192.951C447.757 193.401 446.748 193.626 445.574 193.626C444.447 193.626 443.462 193.399 442.619 192.944C441.776 192.49 441.121 191.848 440.652 191.02C440.183 190.191 439.949 189.213 439.949 188.086C439.949 187.262 440.077 186.517 440.332 185.849C440.588 185.181 440.96 184.611 441.447 184.137C441.93 183.664 442.517 183.299 443.209 183.044C443.9 182.788 444.679 182.66 445.545 182.66H446.454V192.404H444.295V186.268C443.983 186.273 443.708 186.353 443.472 186.51C443.23 186.661 443.043 186.867 442.91 187.127C442.773 187.383 442.704 187.674 442.704 188.001C442.704 188.318 442.773 188.609 442.91 188.875C443.043 189.14 443.228 189.353 443.464 189.514C443.701 189.67 443.978 189.753 444.295 189.762H446.625C446.975 189.762 447.288 189.689 447.562 189.542C447.837 189.395 448.052 189.185 448.209 188.91C448.365 188.636 448.443 188.304 448.443 187.916C448.443 187.646 448.405 187.4 448.329 187.177C448.254 186.95 448.145 186.756 448.003 186.595C447.856 186.434 447.681 186.315 447.477 186.24V182.66C448.235 182.783 448.893 183.074 449.452 183.534C450.006 183.993 450.436 184.601 450.744 185.359C451.047 186.112 451.199 186.993 451.199 188.001ZM451 181.117H436.454V177.197H441.994V177.14C441.625 176.998 441.286 176.79 440.979 176.515C440.666 176.24 440.418 175.899 440.233 175.492C440.043 175.085 439.949 174.612 439.949 174.072C439.949 173.352 440.141 172.668 440.524 172.019C440.908 171.366 441.511 170.835 442.335 170.428C443.159 170.016 444.229 169.81 445.545 169.81C446.805 169.81 447.849 170.007 448.677 170.4C449.506 170.788 450.124 171.309 450.531 171.962C450.938 172.611 451.142 173.324 451.142 174.1C451.142 174.612 451.059 175.068 450.893 175.471C450.723 175.869 450.493 176.21 450.204 176.494C449.911 176.773 449.579 176.988 449.21 177.14V177.225H451V181.117ZM445.545 177.282C446.076 177.282 446.535 177.213 446.923 177.076C447.307 176.934 447.605 176.735 447.818 176.479C448.026 176.219 448.131 175.909 448.131 175.549C448.131 175.189 448.029 174.884 447.825 174.633C447.617 174.377 447.321 174.183 446.937 174.05C446.549 173.913 446.085 173.844 445.545 173.844C445.006 173.844 444.544 173.913 444.16 174.05C443.772 174.183 443.476 174.377 443.273 174.633C443.064 174.884 442.96 175.189 442.96 175.549C442.96 175.909 443.064 176.219 443.273 176.479C443.476 176.735 443.772 176.934 444.16 177.076C444.544 177.213 445.006 177.282 445.545 177.282ZM446.227 161.096H440.091V157.175H451V160.897H448.926V161.011C449.622 161.247 450.167 161.662 450.56 162.254C450.948 162.845 451.142 163.549 451.142 164.363C451.142 165.125 450.967 165.793 450.616 166.366C450.266 166.934 449.783 167.377 449.168 167.694C448.552 168.006 447.847 168.165 447.051 168.17H440.091V164.249H446.227C446.767 164.245 447.191 164.107 447.499 163.837C447.806 163.563 447.96 163.179 447.96 162.687C447.96 162.36 447.892 162.078 447.754 161.842C447.612 161.6 447.413 161.415 447.158 161.288C446.897 161.155 446.587 161.091 446.227 161.096ZM455.318 149.926C455.318 151.02 455.162 151.957 454.849 152.738C454.542 153.515 454.115 154.118 453.571 154.549C453.031 154.976 452.411 155.215 451.71 155.267V151.488C451.942 151.45 452.129 151.356 452.271 151.204C452.413 151.053 452.515 150.859 452.577 150.622C452.643 150.38 452.676 150.11 452.676 149.812C452.676 149.306 452.553 148.886 452.307 148.555C452.061 148.219 451.615 148.051 450.972 148.051H449.125V148.164C449.494 148.306 449.809 148.524 450.07 148.818C450.325 149.111 450.522 149.464 450.659 149.876C450.792 150.288 450.858 150.74 450.858 151.233C450.858 152.009 450.678 152.724 450.318 153.377C449.958 154.026 449.388 154.547 448.606 154.94C447.825 155.328 446.805 155.522 445.545 155.522C444.229 155.522 443.159 155.319 442.335 154.912C441.511 154.5 440.908 153.969 440.524 153.321C440.141 152.667 439.949 151.981 439.949 151.261C439.949 150.721 440.043 150.248 440.233 149.841C440.418 149.433 440.666 149.092 440.979 148.818C441.286 148.543 441.625 148.335 441.994 148.193V148.108H440.091V144.187H450.972C451.895 144.187 452.678 144.426 453.322 144.904C453.971 145.378 454.466 146.046 454.807 146.907C455.148 147.769 455.318 148.775 455.318 149.926ZM448.074 149.784C448.074 149.424 447.974 149.116 447.776 148.86C447.572 148.6 447.283 148.401 446.909 148.264C446.53 148.122 446.076 148.051 445.545 148.051C445.006 148.051 444.544 148.122 444.16 148.264C443.772 148.401 443.476 148.6 443.273 148.86C443.064 149.116 442.96 149.424 442.96 149.784C442.96 150.144 443.064 150.451 443.273 150.707C443.476 150.958 443.772 151.152 444.16 151.289C444.544 151.422 445.006 151.488 445.545 151.488C446.085 151.488 446.544 151.422 446.923 151.289C447.297 151.152 447.584 150.958 447.783 150.707C447.977 150.451 448.074 150.144 448.074 149.784ZM455.318 136.938C455.318 138.031 455.162 138.969 454.849 139.75C454.542 140.527 454.115 141.13 453.571 141.561C453.031 141.987 452.411 142.226 451.71 142.278V138.5C451.942 138.462 452.129 138.367 452.271 138.216C452.413 138.064 452.515 137.87 452.577 137.634C452.643 137.392 452.676 137.122 452.676 136.824C452.676 136.317 452.553 135.898 452.307 135.567C452.061 135.231 451.615 135.063 450.972 135.063H449.125V135.176C449.494 135.318 449.809 135.536 450.07 135.83C450.325 136.123 450.522 136.476 450.659 136.888C450.792 137.3 450.858 137.752 450.858 138.244C450.858 139.021 450.678 139.736 450.318 140.389C449.958 141.038 449.388 141.559 448.606 141.952C447.825 142.34 446.805 142.534 445.545 142.534C444.229 142.534 443.159 142.331 442.335 141.923C441.511 141.511 440.908 140.981 440.524 140.332C440.141 139.679 439.949 138.992 439.949 138.273C439.949 137.733 440.043 137.259 440.233 136.852C440.418 136.445 440.666 136.104 440.979 135.83C441.286 135.555 441.625 135.347 441.994 135.205V135.119H440.091V131.199H450.972C451.895 131.199 452.678 131.438 453.322 131.916C453.971 132.39 454.466 133.057 454.807 133.919C455.148 134.781 455.318 135.787 455.318 136.938ZM448.074 136.795C448.074 136.436 447.974 136.128 447.776 135.872C447.572 135.612 447.283 135.413 446.909 135.276C446.53 135.134 446.076 135.063 445.545 135.063C445.006 135.063 444.544 135.134 444.16 135.276C443.772 135.413 443.476 135.612 443.273 135.872C443.064 136.128 442.96 136.436 442.96 136.795C442.96 137.155 443.064 137.463 443.273 137.719C443.476 137.97 443.772 138.164 444.16 138.301C444.544 138.434 445.006 138.5 445.545 138.5C446.085 138.5 446.544 138.434 446.923 138.301C447.297 138.164 447.584 137.97 447.783 137.719C447.977 137.463 448.074 137.155 448.074 136.795ZM451.199 123.978C451.199 125.142 450.976 126.146 450.531 126.989C450.081 127.827 449.437 128.473 448.599 128.928C447.757 129.378 446.748 129.603 445.574 129.603C444.447 129.603 443.462 129.375 442.619 128.921C441.776 128.466 441.121 127.825 440.652 126.996C440.183 126.168 439.949 125.19 439.949 124.063C439.949 123.239 440.077 122.493 440.332 121.826C440.588 121.158 440.96 120.587 441.447 120.114C441.93 119.641 442.517 119.276 443.209 119.02C443.9 118.765 444.679 118.637 445.545 118.637H446.454V128.381H444.295V122.245C443.983 122.249 443.708 122.33 443.472 122.486C443.23 122.638 443.043 122.844 442.91 123.104C442.773 123.36 442.704 123.651 442.704 123.978C442.704 124.295 442.773 124.586 442.91 124.851C443.043 125.116 443.228 125.329 443.464 125.49C443.701 125.647 443.978 125.73 444.295 125.739H446.625C446.975 125.739 447.288 125.666 447.562 125.519C447.837 125.372 448.052 125.161 448.209 124.887C448.365 124.612 448.443 124.281 448.443 123.892C448.443 123.623 448.405 123.376 448.329 123.154C448.254 122.927 448.145 122.732 448.003 122.571C447.856 122.41 447.681 122.292 447.477 122.216V118.637C448.235 118.76 448.893 119.051 449.452 119.51C450.006 119.97 450.436 120.578 450.744 121.336C451.047 122.088 451.199 122.969 451.199 123.978ZM451 117.037H440.091V113.23H442.165V113.116C441.398 112.918 440.837 112.603 440.481 112.172C440.126 111.736 439.949 111.227 439.949 110.645C439.949 110.474 439.963 110.306 439.991 110.141C440.015 109.97 440.051 109.807 440.098 109.651H443.443C443.377 109.845 443.327 110.084 443.294 110.368C443.261 110.652 443.244 110.896 443.244 111.099C443.244 111.483 443.332 111.829 443.507 112.136C443.677 112.439 443.919 112.679 444.231 112.854C444.539 113.029 444.901 113.116 445.318 113.116H451V117.037ZM451.227 106.234C451.227 106.784 451.035 107.255 450.652 107.648C450.264 108.036 449.793 108.228 449.239 108.223C448.699 108.228 448.237 108.036 447.854 107.648C447.47 107.255 447.278 106.784 447.278 106.234C447.278 105.714 447.47 105.254 447.854 104.857C448.237 104.454 448.699 104.25 449.239 104.246C449.608 104.25 449.944 104.348 450.247 104.537C450.545 104.722 450.785 104.963 450.964 105.261C451.14 105.56 451.227 105.884 451.227 106.234ZM443.898 106.234C443.898 106.784 443.706 107.255 443.322 107.648C442.934 108.036 442.463 108.228 441.909 108.223C441.369 108.228 440.908 108.036 440.524 107.648C440.141 107.255 439.949 106.784 439.949 106.234C439.949 105.714 440.141 105.254 440.524 104.857C440.908 104.454 441.369 104.25 441.909 104.246C442.278 104.25 442.615 104.348 442.918 104.537C443.216 104.722 443.455 104.963 443.635 105.261C443.81 105.56 443.898 105.884 443.898 106.234ZM460.454 221.977V217.062L468.693 213.681V213.511L460.454 210.13V205.215H475V209.079H466.591V209.192L474.886 212.431V214.761L466.534 217.999V218.113H475V221.977H460.454ZM475.199 198.031C475.199 199.215 474.964 200.228 474.496 201.071C474.022 201.914 473.364 202.56 472.521 203.01C471.674 203.46 470.691 203.685 469.574 203.685C468.456 203.685 467.476 203.46 466.633 203.01C465.786 202.56 465.128 201.914 464.659 201.071C464.186 200.228 463.949 199.215 463.949 198.031C463.949 196.848 464.186 195.834 464.659 194.991C465.128 194.149 465.786 193.502 466.633 193.053C467.476 192.603 468.456 192.378 469.574 192.378C470.691 192.378 471.674 192.603 472.521 193.053C473.364 193.502 474.022 194.149 474.496 194.991C474.964 195.834 475.199 196.848 475.199 198.031ZM472.301 198.003C472.301 197.671 472.19 197.385 471.967 197.143C471.745 196.902 471.427 196.715 471.016 196.582C470.604 196.45 470.114 196.384 469.545 196.384C468.972 196.384 468.482 196.45 468.075 196.582C467.663 196.715 467.346 196.902 467.124 197.143C466.901 197.385 466.79 197.671 466.79 198.003C466.79 198.353 466.901 198.654 467.124 198.905C467.346 199.156 467.663 199.348 468.075 199.48C468.482 199.613 468.972 199.679 469.545 199.679C470.114 199.679 470.604 199.613 471.016 199.48C471.427 199.348 471.745 199.156 471.967 198.905C472.19 198.654 472.301 198.353 472.301 198.003ZM475 190.844H460.454V186.923H465.994V186.866C465.625 186.724 465.286 186.516 464.979 186.241C464.666 185.967 464.418 185.626 464.233 185.219C464.043 184.812 463.949 184.338 463.949 183.798C463.949 183.079 464.141 182.394 464.524 181.746C464.908 181.092 465.511 180.562 466.335 180.155C467.159 179.743 468.229 179.537 469.545 179.537C470.805 179.537 471.849 179.733 472.677 180.126C473.506 180.515 474.124 181.036 474.531 181.689C474.938 182.338 475.142 183.05 475.142 183.827C475.142 184.338 475.059 184.795 474.893 185.197C474.723 185.595 474.493 185.936 474.204 186.22C473.911 186.5 473.579 186.715 473.21 186.866V186.952H475V190.844ZM469.545 187.009C470.076 187.009 470.535 186.94 470.923 186.803C471.307 186.661 471.605 186.462 471.818 186.206C472.026 185.946 472.131 185.635 472.131 185.276C472.131 184.916 472.029 184.61 471.825 184.359C471.617 184.104 471.321 183.91 470.937 183.777C470.549 183.64 470.085 183.571 469.545 183.571C469.006 183.571 468.544 183.64 468.16 183.777C467.772 183.91 467.476 184.104 467.273 184.359C467.064 184.61 466.96 184.916 466.96 185.276C466.96 185.635 467.064 185.946 467.273 186.206C467.476 186.462 467.772 186.661 468.16 186.803C468.544 186.94 469.006 187.009 469.545 187.009ZM475 177.896H464.091V173.976H475V177.896ZM462.954 175.936C462.954 176.466 462.779 176.921 462.429 177.3C462.079 177.679 461.657 177.868 461.165 177.868C460.672 177.868 460.251 177.679 459.901 177.3C459.55 176.921 459.375 176.466 459.375 175.936C459.375 175.401 459.55 174.947 459.901 174.572C460.251 174.194 460.672 174.004 461.165 174.004C461.657 174.004 462.079 174.194 462.429 174.572C462.779 174.947 462.954 175.401 462.954 175.936ZM460.454 168.058H475V171.978H460.454V168.058ZM475.199 160.833C475.199 161.998 474.976 163.002 474.531 163.844C474.081 164.683 473.437 165.329 472.599 165.783C471.757 166.233 470.748 166.458 469.574 166.458C468.447 166.458 467.462 166.231 466.619 165.776C465.776 165.322 465.121 164.68 464.652 163.852C464.183 163.023 463.949 162.045 463.949 160.918C463.949 160.094 464.077 159.349 464.332 158.681C464.588 158.014 464.96 157.443 465.447 156.969C465.93 156.496 466.517 156.131 467.209 155.876C467.9 155.62 468.679 155.492 469.545 155.492H470.454V165.237H468.295V159.1C467.983 159.105 467.708 159.185 467.472 159.342C467.23 159.493 467.043 159.699 466.91 159.96C466.773 160.215 466.704 160.506 466.704 160.833C466.704 161.15 466.773 161.442 466.91 161.707C467.043 161.972 467.228 162.185 467.464 162.346C467.701 162.502 467.978 162.585 468.295 162.594H470.625C470.975 162.594 471.288 162.521 471.562 162.374C471.837 162.228 472.052 162.017 472.209 161.742C472.365 161.468 472.443 161.136 472.443 160.748C472.443 160.478 472.405 160.232 472.329 160.009C472.254 159.782 472.145 159.588 472.003 159.427C471.856 159.266 471.681 159.147 471.477 159.072V155.492C472.235 155.615 472.893 155.906 473.452 156.366C474.006 156.825 474.436 157.433 474.744 158.191C475.047 158.944 475.199 159.825 475.199 160.833ZM475 149.965H460.454V146.044H465.994V145.988C465.625 145.846 465.286 145.637 464.979 145.363C464.666 145.088 464.418 144.747 464.233 144.34C464.043 143.933 463.949 143.459 463.949 142.919C463.949 142.2 464.141 141.516 464.524 140.867C464.908 140.213 465.511 139.683 466.335 139.276C467.159 138.864 468.229 138.658 469.545 138.658C470.805 138.658 471.849 138.855 472.677 139.248C473.506 139.636 474.124 140.157 474.531 140.81C474.938 141.459 475.142 142.171 475.142 142.948C475.142 143.459 475.059 143.916 474.893 144.319C474.723 144.716 474.493 145.057 474.204 145.341C473.911 145.621 473.579 145.836 473.21 145.988V146.073H475V149.965ZM469.545 146.13C470.076 146.13 470.535 146.061 470.923 145.924C471.307 145.782 471.605 145.583 471.818 145.327C472.026 145.067 472.131 144.757 472.131 144.397C472.131 144.037 472.029 143.731 471.825 143.48C471.617 143.225 471.321 143.031 470.937 142.898C470.549 142.761 470.085 142.692 469.545 142.692C469.006 142.692 468.544 142.761 468.16 142.898C467.772 143.031 467.476 143.225 467.273 143.48C467.064 143.731 466.96 144.037 466.96 144.397C466.96 144.757 467.064 145.067 467.273 145.327C467.476 145.583 467.772 145.782 468.16 145.924C468.544 146.061 469.006 146.13 469.545 146.13ZM475.199 131.762C475.199 132.945 474.964 133.959 474.496 134.802C474.022 135.644 473.364 136.291 472.521 136.74C471.674 137.19 470.691 137.415 469.574 137.415C468.456 137.415 467.476 137.19 466.633 136.74C465.786 136.291 465.128 135.644 464.659 134.802C464.186 133.959 463.949 132.945 463.949 131.762C463.949 130.578 464.186 129.565 464.659 128.722C465.128 127.879 465.786 127.233 466.633 126.783C467.476 126.333 468.456 126.108 469.574 126.108C470.691 126.108 471.674 126.333 472.521 126.783C473.364 127.233 474.022 127.879 474.496 128.722C474.964 129.565 475.199 130.578 475.199 131.762ZM472.301 131.733C472.301 131.402 472.19 131.115 471.967 130.874C471.745 130.632 471.427 130.445 471.016 130.313C470.604 130.18 470.114 130.114 469.545 130.114C468.972 130.114 468.482 130.18 468.075 130.313C467.663 130.445 467.346 130.632 467.124 130.874C466.901 131.115 466.79 131.402 466.79 131.733C466.79 132.084 466.901 132.384 467.124 132.635C467.346 132.886 467.663 133.078 468.075 133.211C468.482 133.343 468.972 133.409 469.545 133.409C470.114 133.409 470.604 133.343 471.016 133.211C471.427 133.078 471.745 132.886 471.967 132.635C472.19 132.384 472.301 132.084 472.301 131.733ZM462.812 134.006C462.812 134.489 462.651 134.899 462.329 135.235C462.008 135.571 461.619 135.739 461.165 135.739C460.71 135.739 460.322 135.571 460 135.235C459.678 134.899 459.517 134.489 459.517 134.006C459.517 133.537 459.678 133.137 460 132.806C460.322 132.47 460.71 132.302 461.165 132.302C461.619 132.302 462.008 132.47 462.329 132.806C462.651 133.137 462.812 133.537 462.812 134.006ZM462.812 129.489C462.812 129.972 462.651 130.382 462.329 130.718C462.008 131.054 461.619 131.222 461.165 131.222C460.71 131.222 460.322 131.054 460 130.718C459.678 130.382 459.517 129.972 459.517 129.489C459.517 129.02 459.678 128.62 460 128.289C460.322 127.953 460.71 127.784 461.165 127.784C461.619 127.784 462.008 127.953 462.329 128.289C462.651 128.62 462.812 129.02 462.812 129.489ZM475.199 119.262C475.199 120.445 474.964 121.459 474.496 122.302C474.022 123.144 473.364 123.791 472.521 124.24C471.674 124.69 470.691 124.915 469.574 124.915C468.456 124.915 467.476 124.69 466.633 124.24C465.786 123.791 465.128 123.144 464.659 122.302C464.186 121.459 463.949 120.445 463.949 119.262C463.949 118.192 464.143 117.266 464.531 116.485C464.915 115.699 465.459 115.09 466.165 114.659C466.865 114.229 467.689 114.011 468.636 114.006V117.642C468.063 117.694 467.628 117.86 467.329 118.14C467.026 118.414 466.875 118.769 466.875 119.205C466.875 119.546 466.974 119.844 467.173 120.1C467.367 120.355 467.663 120.554 468.061 120.696C468.454 120.838 468.949 120.909 469.545 120.909C470.142 120.909 470.639 120.838 471.037 120.696C471.43 120.554 471.726 120.355 471.925 120.1C472.119 119.844 472.216 119.546 472.216 119.205C472.216 118.916 472.15 118.66 472.017 118.438C471.88 118.215 471.681 118.035 471.42 117.898C471.155 117.756 470.833 117.671 470.454 117.642V114.006C471.416 114.02 472.254 114.24 472.969 114.667C473.679 115.093 474.228 115.696 474.616 116.478C475.005 117.254 475.199 118.182 475.199 119.262ZM475.199 107.161C475.199 108.326 474.976 109.33 474.531 110.173C474.081 111.011 473.437 111.657 472.599 112.112C471.757 112.561 470.748 112.786 469.574 112.786C468.447 112.786 467.462 112.559 466.619 112.104C465.776 111.65 465.121 111.008 464.652 110.18C464.183 109.351 463.949 108.373 463.949 107.246C463.949 106.423 464.077 105.677 464.332 105.009C464.588 104.342 464.96 103.771 465.447 103.298C465.93 102.824 466.517 102.46 467.209 102.204C467.9 101.948 468.679 101.82 469.545 101.82H470.454V111.565H468.295V105.428C467.983 105.433 467.708 105.514 467.472 105.67C467.23 105.821 467.043 106.027 466.91 106.288C466.773 106.543 466.704 106.835 466.704 107.161C466.704 107.478 466.773 107.77 466.91 108.035C467.043 108.3 467.228 108.513 467.464 108.674C467.701 108.83 467.978 108.913 468.295 108.923H470.625C470.975 108.923 471.288 108.849 471.562 108.702C471.837 108.556 472.052 108.345 472.209 108.07C472.365 107.796 472.443 107.464 472.443 107.076C472.443 106.806 472.405 106.56 472.329 106.337C472.254 106.11 472.145 105.916 472.003 105.755C471.856 105.594 471.681 105.476 471.477 105.4V101.82C472.235 101.943 472.893 102.235 473.452 102.694C474.006 103.153 474.436 103.762 474.744 104.519C475.047 105.272 475.199 106.153 475.199 107.161ZM472.415 96.6978L467.756 96.6694V96.158L464.091 93.516V89.1126L469.801 93.5444V94.6524L472.415 96.6978ZM475 100.221H460.454V96.3001H475V100.221ZM475 93.4876L470.682 95.9876L467.898 93.4308L475 88.999V93.4876ZM491.642 172.788V176.396C491.419 176.415 491.228 176.493 491.067 176.63C490.906 176.768 490.783 176.945 490.697 177.163C490.607 177.376 490.562 177.613 490.562 177.873C490.562 178.209 490.624 178.498 490.747 178.74C490.87 178.981 491.045 179.1 491.273 179.095C491.434 179.1 491.583 179.031 491.72 178.889C491.857 178.742 491.964 178.46 492.04 178.044L492.437 175.828C492.641 174.71 492.984 173.879 493.467 173.335C493.945 172.786 494.587 172.509 495.392 172.504C496.168 172.509 496.843 172.741 497.416 173.2C497.984 173.654 498.425 174.277 498.737 175.068C499.045 175.854 499.199 176.751 499.199 177.76C499.199 179.426 498.858 180.731 498.176 181.673C497.494 182.61 496.595 183.134 495.477 183.243V179.351C495.823 179.298 496.09 179.128 496.28 178.839C496.464 178.546 496.557 178.176 496.557 177.731C496.557 177.371 496.495 177.075 496.372 176.843C496.249 176.607 496.074 176.486 495.847 176.481C495.638 176.486 495.472 176.59 495.349 176.794C495.226 176.993 495.127 177.305 495.051 177.731L494.71 179.663C494.516 180.776 494.147 181.609 493.602 182.163C493.058 182.717 492.357 182.992 491.5 182.987C490.742 182.992 490.101 182.793 489.575 182.39C489.045 181.983 488.642 181.403 488.368 180.65C488.088 179.893 487.949 178.995 487.949 177.958C487.949 176.382 488.276 175.139 488.929 174.23C489.582 173.316 490.487 172.835 491.642 172.788ZM499.17 167.962C499.17 168.658 499.057 169.274 498.829 169.809C498.597 170.339 498.247 170.756 497.778 171.059C497.31 171.362 496.713 171.513 495.989 171.513C495.392 171.513 494.883 171.411 494.462 171.208C494.035 171.004 493.687 170.72 493.418 170.355C493.148 169.991 492.942 169.567 492.8 169.084C492.658 168.596 492.565 168.071 492.523 167.507C492.475 166.897 492.418 166.407 492.352 166.037C492.281 165.663 492.184 165.393 492.061 165.228C491.933 165.062 491.765 164.979 491.557 164.979H491.528C491.244 164.979 491.026 165.088 490.875 165.306C490.723 165.524 490.648 165.803 490.648 166.144C490.648 166.518 490.731 166.823 490.896 167.06C491.057 167.292 491.306 167.432 491.642 167.479V171.087C490.979 171.04 490.368 170.829 489.81 170.455C489.246 170.076 488.796 169.525 488.46 168.8C488.119 168.076 487.949 167.171 487.949 166.087C487.949 165.306 488.041 164.605 488.226 163.985C488.406 163.364 488.659 162.837 488.986 162.401C489.308 161.965 489.686 161.634 490.122 161.407C490.553 161.175 491.022 161.059 491.528 161.059H499V164.723H497.466V164.809C497.873 165.026 498.202 165.292 498.453 165.604C498.704 165.912 498.886 166.265 499 166.662C499.114 167.055 499.17 167.489 499.17 167.962ZM496.699 166.684C496.699 166.385 496.637 166.106 496.514 165.846C496.391 165.58 496.213 165.365 495.981 165.199C495.749 165.034 495.468 164.951 495.136 164.951H494.227C494.27 165.055 494.31 165.166 494.348 165.284C494.386 165.398 494.421 165.521 494.454 165.654C494.488 165.782 494.518 165.919 494.547 166.066C494.575 166.208 494.601 166.357 494.625 166.513C494.672 166.816 494.75 167.065 494.859 167.259C494.963 167.448 495.094 167.59 495.25 167.685C495.401 167.775 495.572 167.82 495.761 167.82C496.064 167.82 496.296 167.713 496.457 167.5C496.618 167.287 496.699 167.015 496.699 166.684ZM488.091 148.582L499 152.246V156.792L488.091 160.457V156.337L495.307 154.576V154.462L488.091 152.701V148.582ZM499.17 144.7C499.17 145.396 499.057 146.012 498.829 146.547C498.597 147.077 498.247 147.494 497.778 147.797C497.31 148.1 496.713 148.251 495.989 148.251C495.392 148.251 494.883 148.15 494.462 147.946C494.035 147.742 493.687 147.458 493.418 147.094C493.148 146.729 492.942 146.305 492.8 145.822C492.658 145.335 492.565 144.809 492.523 144.246C492.475 143.635 492.418 143.145 492.352 142.776C492.281 142.402 492.184 142.132 492.061 141.966C491.933 141.8 491.765 141.717 491.557 141.717H491.528C491.244 141.717 491.026 141.826 490.875 142.044C490.723 142.262 490.648 142.541 490.648 142.882C490.648 143.256 490.731 143.562 490.896 143.798C491.057 144.03 491.306 144.17 491.642 144.217V147.825C490.979 147.778 490.368 147.567 489.81 147.193C489.246 146.814 488.796 146.263 488.46 145.538C488.119 144.814 487.949 143.91 487.949 142.825C487.949 142.044 488.041 141.343 488.226 140.723C488.406 140.103 488.659 139.575 488.986 139.139C489.308 138.704 489.686 138.372 490.122 138.145C490.553 137.913 491.022 137.797 491.528 137.797H499V141.462H497.466V141.547C497.873 141.765 498.202 142.03 498.453 142.342C498.704 142.65 498.886 143.003 499 143.401C499.114 143.794 499.17 144.227 499.17 144.7ZM496.699 143.422C496.699 143.124 496.637 142.844 496.514 142.584C496.391 142.319 496.213 142.103 495.981 141.938C495.749 141.772 495.468 141.689 495.136 141.689H494.227C494.27 141.793 494.31 141.904 494.348 142.023C494.386 142.136 494.421 142.259 494.454 142.392C494.488 142.52 494.518 142.657 494.547 142.804C494.575 142.946 494.601 143.095 494.625 143.251C494.672 143.554 494.75 143.803 494.859 143.997C494.963 144.187 495.094 144.329 495.25 144.423C495.401 144.513 495.572 144.558 495.761 144.558C496.064 144.558 496.296 144.452 496.457 144.239C496.618 144.026 496.699 143.753 496.699 143.422ZM499 135.924H488.091V132.117H490.165V132.003C489.398 131.804 488.837 131.489 488.481 131.059C488.126 130.623 487.949 130.114 487.949 129.532C487.949 129.361 487.963 129.193 487.991 129.027C488.015 128.857 488.051 128.694 488.098 128.537H491.443C491.377 128.731 491.327 128.971 491.294 129.255C491.261 129.539 491.244 129.783 491.244 129.986C491.244 130.37 491.332 130.715 491.507 131.023C491.677 131.326 491.919 131.565 492.231 131.74C492.539 131.916 492.901 132.003 493.318 132.003H499V135.924Z" fill="white"/>
<path d="M534.318 288.73H532.727V282.409H534.318V284.597H540V286.543H534.318V288.73ZM537.614 278.608H534.545V276.648H540V278.509H538.963V278.566C539.311 278.684 539.583 278.891 539.78 279.187C539.974 279.483 540.071 279.835 540.071 280.242C540.071 280.623 539.983 280.957 539.808 281.243C539.633 281.528 539.392 281.749 539.084 281.907C538.776 282.064 538.423 282.143 538.026 282.145H534.545V280.185H537.614C537.883 280.183 538.095 280.114 538.249 279.979C538.403 279.842 538.48 279.65 538.48 279.404C538.48 279.241 538.446 279.1 538.377 278.981C538.306 278.861 538.207 278.768 538.079 278.704C537.949 278.638 537.793 278.606 537.614 278.608ZM533.906 280.512C533.906 280.753 533.826 280.958 533.665 281.126C533.504 281.294 533.31 281.378 533.082 281.378C532.855 281.378 532.661 281.294 532.5 281.126C532.339 280.958 532.258 280.753 532.258 280.512C532.258 280.278 532.339 280.077 532.5 279.912C532.661 279.744 532.855 279.66 533.082 279.66C533.31 279.66 533.504 279.744 533.665 279.912C533.826 280.077 533.906 280.278 533.906 280.512ZM533.906 278.253C533.906 278.495 533.826 278.7 533.665 278.868C533.504 279.036 533.31 279.12 533.082 279.12C532.855 279.12 532.661 279.036 532.5 278.868C532.339 278.7 532.258 278.495 532.258 278.253C532.258 278.019 532.339 277.819 532.5 277.653C532.661 277.485 532.855 277.401 533.082 277.401C533.31 277.401 533.504 277.485 533.665 277.653C533.826 277.819 533.906 278.019 533.906 278.253ZM540 275.651H534.545V273.79H535.582V273.734C535.241 273.62 534.972 273.426 534.773 273.151C534.574 272.877 534.474 272.55 534.474 272.171C534.474 271.788 534.576 271.457 534.78 271.18C534.981 270.903 535.249 270.737 535.582 270.68V270.623C535.249 270.531 534.981 270.334 534.78 270.033C534.576 269.733 534.474 269.38 534.474 268.975C534.474 268.452 534.642 268.028 534.979 267.704C535.315 267.377 535.762 267.214 536.321 267.214H540V269.174H536.818C536.579 269.174 536.392 269.234 536.257 269.355C536.12 269.476 536.051 269.638 536.051 269.842C536.051 270.043 536.12 270.203 536.257 270.321C536.392 270.437 536.579 270.495 536.818 270.495H540V272.37H536.818C536.579 272.37 536.392 272.43 536.257 272.551C536.12 272.672 536.051 272.834 536.051 273.038C536.051 273.173 536.082 273.289 536.143 273.386C536.205 273.483 536.294 273.558 536.41 273.613C536.523 273.665 536.66 273.691 536.818 273.691H540V275.651ZM536.932 262.295H540V264.255H532.727V262.366H535.582V262.309C535.234 262.186 534.963 261.981 534.769 261.694C534.573 261.408 534.474 261.064 534.474 260.661C534.474 260.275 534.562 259.94 534.737 259.656C534.912 259.37 535.154 259.148 535.462 258.992C535.769 258.833 536.122 258.755 536.52 258.758H540V260.718H536.932C536.662 260.715 536.45 260.783 536.296 260.92C536.142 261.055 536.065 261.248 536.065 261.499C536.065 261.658 536.101 261.797 536.172 261.918C536.24 262.037 536.34 262.129 536.47 262.195C536.598 262.259 536.752 262.292 536.932 262.295ZM540.085 256.27C540.085 256.618 540.028 256.926 539.915 257.193C539.799 257.459 539.624 257.667 539.389 257.818C539.155 257.97 538.856 258.046 538.494 258.046C538.196 258.046 537.941 257.995 537.731 257.893C537.518 257.791 537.344 257.649 537.209 257.467C537.074 257.285 536.971 257.073 536.9 256.831C536.829 256.587 536.783 256.325 536.761 256.043C536.738 255.737 536.709 255.492 536.676 255.308C536.641 255.121 536.592 254.986 536.53 254.903C536.467 254.82 536.383 254.779 536.278 254.779H536.264C536.122 254.779 536.013 254.833 535.937 254.942C535.862 255.051 535.824 255.191 535.824 255.361C535.824 255.548 535.865 255.701 535.948 255.819C536.029 255.935 536.153 256.005 536.321 256.029V257.833C535.99 257.809 535.684 257.704 535.405 257.517C535.123 257.327 534.898 257.051 534.73 256.689C534.56 256.327 534.474 255.875 534.474 255.333C534.474 254.942 534.521 254.592 534.613 254.281C534.703 253.971 534.829 253.707 534.993 253.49C535.154 253.272 535.343 253.106 535.561 252.992C535.776 252.876 536.011 252.818 536.264 252.818H540V254.651H539.233V254.693C539.436 254.802 539.601 254.935 539.727 255.091C539.852 255.245 539.943 255.421 540 255.62C540.057 255.817 540.085 256.033 540.085 256.27ZM538.849 255.631C538.849 255.482 538.819 255.342 538.757 255.212C538.695 255.079 538.607 254.972 538.491 254.889C538.375 254.806 538.234 254.764 538.068 254.764H537.614C537.635 254.816 537.655 254.872 537.674 254.931C537.693 254.988 537.711 255.05 537.727 255.116C537.744 255.18 537.759 255.249 537.773 255.322C537.788 255.393 537.801 255.468 537.812 255.546C537.836 255.697 537.875 255.821 537.93 255.919C537.982 256.013 538.047 256.084 538.125 256.132C538.201 256.177 538.286 256.199 538.381 256.199C538.532 256.199 538.648 256.146 538.729 256.039C538.809 255.933 538.849 255.797 538.849 255.631ZM538.707 250.12L536.378 250.106V249.851L534.545 248.529V246.328L537.401 248.544V249.098L538.707 250.12ZM540 251.882H532.727V249.922H540V251.882ZM540 248.515L537.841 249.765L536.449 248.487L540 246.271V248.515ZM532.727 243.857H540V245.817H532.727V243.857ZM540.085 241.338C540.085 241.686 540.028 241.994 539.915 242.262C539.799 242.527 539.624 242.735 539.389 242.887C539.155 243.038 538.856 243.114 538.494 243.114C538.196 243.114 537.941 243.063 537.731 242.961C537.518 242.859 537.344 242.717 537.209 242.535C537.074 242.353 536.971 242.141 536.9 241.9C536.829 241.656 536.783 241.393 536.761 241.111C536.738 240.806 536.709 240.561 536.676 240.376C536.641 240.189 536.592 240.054 536.53 239.971C536.467 239.888 536.383 239.847 536.278 239.847H536.264C536.122 239.847 536.013 239.901 535.937 240.01C535.862 240.119 535.824 240.259 535.824 240.429C535.824 240.616 535.865 240.769 535.948 240.887C536.029 241.003 536.153 241.073 536.321 241.097V242.901C535.99 242.877 535.684 242.772 535.405 242.585C535.123 242.395 534.898 242.12 534.73 241.757C534.56 241.395 534.474 240.943 534.474 240.401C534.474 240.01 534.521 239.66 534.613 239.35C534.703 239.04 534.829 238.776 534.993 238.558C535.154 238.34 535.343 238.174 535.561 238.061C535.776 237.945 536.011 237.887 536.264 237.887H540V239.719H539.233V239.762C539.436 239.871 539.601 240.003 539.727 240.159C539.852 240.313 539.943 240.49 540 240.689C540.057 240.885 540.085 241.102 540.085 241.338ZM538.849 240.699C538.849 240.55 538.819 240.41 538.757 240.28C538.695 240.148 538.607 240.04 538.491 239.957C538.375 239.874 538.234 239.833 538.068 239.833H537.614C537.635 239.885 537.655 239.94 537.674 240C537.693 240.056 537.711 240.118 537.727 240.184C537.744 240.248 537.759 240.317 537.773 240.39C537.788 240.461 537.801 240.536 537.812 240.614C537.836 240.766 537.875 240.89 537.93 240.987C537.982 241.082 538.047 241.153 538.125 241.2C538.201 241.245 538.286 241.267 538.381 241.267C538.532 241.267 538.648 241.214 538.729 241.108C538.809 241.001 538.849 240.865 538.849 240.699ZM540 236.95H534.545V235.047H535.582V234.99C535.199 234.89 534.918 234.733 534.741 234.518C534.563 234.3 534.474 234.045 534.474 233.754C534.474 233.669 534.481 233.585 534.496 233.502C534.508 233.417 534.525 233.335 534.549 233.257H536.222C536.188 233.354 536.164 233.474 536.147 233.616C536.13 233.758 536.122 233.88 536.122 233.981C536.122 234.173 536.166 234.346 536.253 234.5C536.339 234.651 536.459 234.771 536.616 234.858C536.77 234.946 536.951 234.99 537.159 234.99H540V236.95ZM540 232.614H534.545V230.654H540V232.614ZM536.321 222.677V224.481C536.21 224.491 536.114 224.53 536.033 224.598C535.953 224.667 535.891 224.756 535.849 224.865C535.804 224.971 535.781 225.09 535.781 225.22C535.781 225.388 535.812 225.532 535.874 225.653C535.935 225.774 536.023 225.833 536.136 225.831C536.217 225.833 536.291 225.799 536.36 225.728C536.429 225.654 536.482 225.513 536.52 225.305L536.719 224.197C536.82 223.638 536.992 223.223 537.234 222.951C537.473 222.676 537.793 222.538 538.196 222.535C538.584 222.538 538.922 222.654 539.208 222.883C539.492 223.11 539.712 223.422 539.869 223.817C540.022 224.21 540.099 224.659 540.099 225.163C540.099 225.996 539.929 226.649 539.588 227.12C539.247 227.588 538.797 227.85 538.239 227.904V225.958C538.411 225.932 538.545 225.847 538.64 225.703C538.732 225.556 538.778 225.371 538.778 225.149C538.778 224.969 538.748 224.821 538.686 224.705C538.624 224.587 538.537 224.526 538.423 224.524C538.319 224.526 538.236 224.578 538.175 224.68C538.113 224.779 538.063 224.936 538.026 225.149L537.855 226.115C537.758 226.671 537.573 227.088 537.301 227.365C537.029 227.642 536.678 227.779 536.25 227.777C535.871 227.779 535.55 227.68 535.288 227.478C535.022 227.275 534.821 226.985 534.684 226.608C534.544 226.23 534.474 225.781 534.474 225.262C534.474 224.474 534.638 223.853 534.964 223.398C535.291 222.941 535.743 222.701 536.321 222.677ZM540.085 220.264C540.085 220.612 540.028 220.92 539.915 221.188C539.799 221.453 539.624 221.661 539.389 221.813C539.155 221.964 538.856 222.04 538.494 222.04C538.196 222.04 537.941 221.989 537.731 221.887C537.518 221.785 537.344 221.643 537.209 221.461C537.074 221.279 536.971 221.067 536.9 220.825C536.829 220.581 536.783 220.319 536.761 220.037C536.738 219.732 536.709 219.487 536.676 219.302C536.641 219.115 536.592 218.98 536.53 218.897C536.467 218.814 536.383 218.773 536.278 218.773H536.264C536.122 218.773 536.013 218.827 535.937 218.936C535.862 219.045 535.824 219.185 535.824 219.355C535.824 219.542 535.865 219.695 535.948 219.813C536.029 219.929 536.153 219.999 536.321 220.023V221.827C535.99 221.803 535.684 221.698 535.405 221.511C535.123 221.321 534.898 221.045 534.73 220.683C534.56 220.321 534.474 219.869 534.474 219.327C534.474 218.936 534.521 218.586 534.613 218.276C534.703 217.965 534.829 217.701 534.993 217.484C535.154 217.266 535.343 217.1 535.561 216.987C535.776 216.871 536.011 216.813 536.264 216.813H540V218.645H539.233V218.688C539.436 218.796 539.601 218.929 539.727 219.085C539.852 219.239 539.943 219.415 540 219.614C540.057 219.811 540.085 220.027 540.085 220.264ZM538.849 219.625C538.849 219.476 538.819 219.336 538.757 219.206C538.695 219.073 538.607 218.966 538.491 218.883C538.375 218.8 538.234 218.759 538.068 218.759H537.614C537.635 218.811 537.655 218.866 537.674 218.925C537.693 218.982 537.711 219.044 537.727 219.11C537.744 219.174 537.759 219.243 537.773 219.316C537.788 219.387 537.801 219.462 537.812 219.54C537.836 219.691 537.875 219.816 537.93 219.913C537.982 220.007 538.047 220.078 538.125 220.126C538.201 220.171 538.286 220.193 538.381 220.193C538.532 220.193 538.648 220.14 538.729 220.033C538.809 219.927 538.849 219.791 538.849 219.625ZM538.707 214.115L536.378 214.1V213.845L534.545 212.524V210.322L537.401 212.538V213.092L538.707 214.115ZM540 215.876H532.727V213.916H540V215.876ZM540 212.509L537.841 213.759L536.449 212.481L540 210.265V212.509ZM532.727 207.851H540V209.811H532.727V207.851ZM540 206.852H534.545V204.892H540V206.852ZM540.071 201.919C540.071 202.307 539.969 202.665 539.766 202.991C539.562 203.316 539.253 203.576 538.839 203.773C538.424 203.967 537.902 204.064 537.273 204.064C536.615 204.064 536.079 203.962 535.668 203.759C535.256 203.553 534.954 203.287 534.762 202.963C534.57 202.636 534.474 202.293 534.474 201.933C534.474 201.663 534.522 201.427 534.616 201.223C534.709 201.019 534.833 200.849 534.989 200.712C535.143 200.574 535.312 200.47 535.497 200.399V200.371H532.727V198.411H540V200.357H539.105V200.399C539.29 200.475 539.455 200.584 539.602 200.726C539.747 200.866 539.861 201.036 539.947 201.237C540.03 201.436 540.071 201.663 540.071 201.919ZM538.565 201.195C538.565 201.015 538.513 200.861 538.409 200.733C538.302 200.603 538.153 200.503 537.962 200.435C537.767 200.364 537.538 200.328 537.273 200.328C537.003 200.328 536.772 200.364 536.58 200.435C536.386 200.503 536.238 200.603 536.136 200.733C536.032 200.861 535.98 201.015 535.98 201.195C535.98 201.375 536.032 201.528 536.136 201.656C536.238 201.782 536.386 201.879 536.58 201.947C536.772 202.014 537.003 202.047 537.273 202.047C537.543 202.047 537.775 202.014 537.969 201.947C538.16 201.879 538.308 201.782 538.413 201.656C538.514 201.528 538.565 201.375 538.565 201.195ZM540 197.448H534.545V195.488H540V197.448ZM540 194.489H534.545V192.586H535.582V192.529C535.199 192.43 534.918 192.272 534.741 192.057C534.563 191.839 534.474 191.584 534.474 191.293C534.474 191.208 534.481 191.124 534.496 191.041C534.508 190.956 534.525 190.874 534.549 190.796H536.222C536.188 190.893 536.164 191.013 536.147 191.155C536.13 191.297 536.122 191.419 536.122 191.52C536.122 191.712 536.166 191.885 536.253 192.039C536.339 192.19 536.459 192.31 536.616 192.398C536.77 192.485 536.951 192.529 537.159 192.529H540V194.489ZM536.364 185.995C536.008 185.995 535.685 185.908 535.394 185.736C535.101 185.56 534.867 185.327 534.695 185.036C534.519 184.742 534.432 184.418 534.432 184.063C534.432 183.748 534.502 183.458 534.641 183.193C534.781 182.925 534.972 182.707 535.213 182.536C535.452 182.363 535.722 182.261 536.023 182.231V183.417C535.888 183.445 535.779 183.521 535.696 183.644C535.611 183.765 535.568 183.904 535.568 184.063C535.568 184.207 535.604 184.34 535.675 184.461C535.743 184.582 535.838 184.679 535.959 184.752C536.077 184.823 536.21 184.858 536.356 184.858C536.503 184.858 536.638 184.823 536.761 184.752C536.882 184.679 536.979 184.582 537.052 184.461C537.124 184.34 537.159 184.207 537.159 184.063C537.159 183.904 537.118 183.765 537.035 183.644C536.95 183.521 536.839 183.445 536.704 183.417V182.231C537.005 182.261 537.276 182.363 537.518 182.536C537.757 182.707 537.946 182.925 538.086 183.193C538.226 183.458 538.295 183.748 538.295 184.063C538.295 184.418 538.209 184.742 538.036 185.036C537.861 185.327 537.628 185.56 537.337 185.736C537.043 185.908 536.719 185.995 536.364 185.995ZM540.114 184.084C540.114 184.6 540.017 185.086 539.822 185.54C539.628 185.992 539.36 186.391 539.016 186.737C538.671 187.08 538.272 187.35 537.82 187.547C537.367 187.741 536.882 187.837 536.364 187.834C535.845 187.832 535.36 187.734 534.908 187.54C534.455 187.343 534.058 187.073 533.714 186.73C533.369 186.387 533.099 185.989 532.905 185.537C532.711 185.085 532.614 184.6 532.614 184.084C532.614 183.566 532.711 183.081 532.905 182.628C533.099 182.174 533.369 181.776 533.714 181.435C534.058 181.092 534.455 180.823 534.908 180.629C535.36 180.435 535.845 180.337 536.364 180.334C536.882 180.332 537.367 180.428 537.82 180.622C538.272 180.816 538.671 181.085 539.016 181.428C539.36 181.771 539.628 182.17 539.822 182.625C540.017 183.079 540.114 183.566 540.114 184.084ZM538.693 184.084C538.693 183.76 538.633 183.457 538.512 183.175C538.391 182.894 538.224 182.646 538.011 182.433C537.798 182.22 537.552 182.054 537.273 181.936C536.991 181.815 536.689 181.755 536.367 181.755C536.043 181.755 535.74 181.815 535.458 181.936C535.176 182.057 534.929 182.224 534.716 182.437C534.503 182.65 534.336 182.897 534.215 183.179C534.094 183.461 534.034 183.762 534.034 184.084C534.034 184.404 534.094 184.705 534.215 184.986C534.336 185.266 534.504 185.513 534.719 185.729C534.932 185.942 535.18 186.11 535.462 186.233C535.743 186.354 536.045 186.414 536.367 186.414C536.687 186.414 536.987 186.354 537.269 186.233C537.548 186.112 537.796 185.945 538.011 185.732C538.224 185.519 538.391 185.272 538.512 184.99C538.633 184.708 538.693 184.406 538.693 184.084ZM540 177.033H538.579L536.335 174.32C536.186 174.14 536.046 173.986 535.916 173.858C535.784 173.728 535.647 173.628 535.508 173.56C535.368 173.489 535.213 173.453 535.043 173.453C534.856 173.453 534.696 173.493 534.563 173.574C534.431 173.652 534.329 173.761 534.258 173.901C534.184 174.04 534.148 174.201 534.148 174.384C534.148 174.566 534.184 174.727 534.258 174.866C534.331 175.004 534.439 175.11 534.581 175.186C534.723 175.262 534.896 175.3 535.099 175.3V177.175C534.588 177.175 534.148 177.06 533.778 176.83C533.409 176.601 533.125 176.276 532.926 175.857C532.727 175.438 532.628 174.947 532.628 174.384C532.628 173.801 532.721 173.297 532.908 172.871C533.093 172.442 533.353 172.112 533.69 171.88C534.026 171.646 534.42 171.528 534.872 171.528C535.151 171.528 535.43 171.586 535.707 171.702C535.981 171.818 536.285 172.027 536.619 172.327C536.953 172.628 537.351 173.055 537.812 173.609L538.381 174.291H538.423V171.45H540V177.033ZM540.199 167.4C540.196 168.061 540.044 168.631 539.741 169.112C539.438 169.592 539.001 169.963 538.43 170.223C537.86 170.484 537.176 170.613 536.378 170.61C535.578 170.608 534.898 170.478 534.339 170.22C533.781 169.959 533.356 169.59 533.065 169.112C532.773 168.631 532.628 168.061 532.628 167.4C532.628 166.74 532.775 166.169 533.068 165.689C533.359 165.208 533.784 164.837 534.343 164.577C534.902 164.317 535.58 164.188 536.378 164.19C537.18 164.19 537.867 164.32 538.437 164.581C539.008 164.841 539.445 165.212 539.748 165.692C540.048 166.17 540.199 166.74 540.199 167.4ZM538.594 167.4C538.594 167.059 538.416 166.78 538.061 166.562C537.704 166.342 537.142 166.233 536.378 166.235C535.878 166.235 535.47 166.285 535.153 166.385C534.835 166.484 534.601 166.621 534.45 166.797C534.296 166.972 534.219 167.173 534.219 167.4C534.219 167.741 534.392 168.019 534.737 168.235C535.083 168.45 535.63 168.56 536.378 168.565C536.887 168.567 537.306 168.519 537.635 168.419C537.962 168.32 538.203 168.183 538.359 168.007C538.516 167.83 538.594 167.628 538.594 167.4ZM540 163.263H538.579L536.335 160.55C536.186 160.37 536.046 160.216 535.916 160.088C535.784 159.958 535.647 159.859 535.508 159.79C535.368 159.719 535.213 159.684 535.043 159.684C534.856 159.684 534.696 159.724 534.563 159.804C534.431 159.882 534.329 159.991 534.258 160.131C534.184 160.271 534.148 160.432 534.148 160.614C534.148 160.796 534.184 160.957 534.258 161.097C534.331 161.234 534.439 161.341 534.581 161.417C534.723 161.492 534.896 161.53 535.099 161.53V163.405C534.588 163.405 534.148 163.29 533.778 163.061C533.409 162.831 533.125 162.507 532.926 162.088C532.727 161.669 532.628 161.177 532.628 160.614C532.628 160.032 532.721 159.527 532.908 159.101C533.093 158.673 533.353 158.342 533.69 158.11C534.026 157.876 534.42 157.759 534.872 157.759C535.151 157.759 535.43 157.817 535.707 157.933C535.981 158.049 536.285 158.257 536.619 158.558C536.953 158.859 537.351 159.286 537.812 159.84L538.381 160.522H538.423V157.681H540V163.263ZM540.099 153.957C540.099 154.53 540.001 155.039 539.805 155.484C539.606 155.927 539.332 156.275 538.984 156.528C538.636 156.782 538.236 156.91 537.784 156.912V154.923C537.924 154.921 538.049 154.878 538.16 154.795C538.269 154.71 538.355 154.594 538.416 154.447C538.478 154.301 538.508 154.133 538.508 153.943C538.508 153.761 538.477 153.6 538.413 153.46C538.346 153.321 538.255 153.212 538.139 153.134C538.023 153.055 537.891 153.018 537.741 153.02C537.595 153.018 537.464 153.063 537.351 153.155C537.237 153.245 537.148 153.371 537.084 153.535C537.021 153.698 536.989 153.886 536.989 154.099V154.838H535.625V154.099C535.625 153.903 535.593 153.73 535.529 153.581C535.465 153.429 535.376 153.312 535.263 153.229C535.149 153.144 535.019 153.103 534.872 153.105C534.73 153.103 534.605 153.137 534.496 153.208C534.387 153.279 534.302 153.379 534.24 153.506C534.178 153.632 534.148 153.777 534.148 153.943C534.148 154.123 534.18 154.284 534.244 154.426C534.307 154.566 534.396 154.676 534.51 154.756C534.624 154.837 534.754 154.878 534.901 154.881V156.77C534.455 156.768 534.062 156.646 533.722 156.404C533.381 156.16 533.113 155.826 532.919 155.403C532.725 154.979 532.628 154.492 532.628 153.943C532.628 153.406 532.719 152.931 532.901 152.519C533.084 152.105 533.334 151.782 533.654 151.55C533.971 151.315 534.335 151.199 534.744 151.202C535.151 151.197 535.485 151.337 535.746 151.621C536.006 151.902 536.16 152.26 536.207 152.693H536.264C536.328 152.106 536.508 151.665 536.804 151.369C537.097 151.073 537.467 150.927 537.912 150.932C538.338 150.929 538.716 151.057 539.045 151.315C539.374 151.571 539.632 151.927 539.819 152.384C540.006 152.839 540.099 153.363 540.099 153.957ZM532.727 148.371V146.169L535.682 144.748V144.692L532.727 143.271V141.069L537.713 143.74H540V145.7H537.713L532.727 148.371ZM540.085 140.157C540.085 140.505 540.028 140.813 539.915 141.08C539.799 141.345 539.624 141.554 539.389 141.705C539.155 141.857 538.856 141.932 538.494 141.932C538.196 141.932 537.941 141.881 537.731 141.78C537.518 141.678 537.344 141.536 537.209 141.354C537.074 141.171 536.971 140.959 536.9 140.718C536.829 140.474 536.783 140.211 536.761 139.93C536.738 139.624 536.709 139.379 536.676 139.194C536.641 139.007 536.592 138.872 536.53 138.79C536.467 138.707 536.383 138.665 536.278 138.665H536.264C536.122 138.665 536.013 138.72 535.937 138.829C535.862 138.938 535.824 139.077 535.824 139.248C535.824 139.435 535.865 139.587 535.948 139.706C536.029 139.822 536.153 139.892 536.321 139.915V141.719C535.99 141.696 535.684 141.59 535.405 141.403C535.123 141.214 534.898 140.938 534.73 140.576C534.56 140.214 534.474 139.761 534.474 139.219C534.474 138.829 534.521 138.478 534.613 138.168C534.703 137.858 534.829 137.594 534.993 137.376C535.154 137.158 535.343 136.993 535.561 136.879C535.776 136.763 536.011 136.705 536.264 136.705H540V138.537H539.233V138.58C539.436 138.689 539.601 138.822 539.727 138.978C539.852 139.132 539.943 139.308 540 139.507C540.057 139.703 540.085 139.92 540.085 140.157ZM538.849 139.518C538.849 139.368 538.819 139.229 538.757 139.099C538.695 138.966 538.607 138.858 538.491 138.775C538.375 138.693 538.234 138.651 538.068 138.651H537.614C537.635 138.703 537.655 138.759 537.674 138.818C537.693 138.875 537.711 138.936 537.727 139.003C537.744 139.067 537.759 139.135 537.773 139.209C537.788 139.28 537.801 139.354 537.812 139.432C537.836 139.584 537.875 139.708 537.93 139.805C537.982 139.9 538.047 139.971 538.125 140.018C538.201 140.063 538.286 140.086 538.381 140.086C538.532 140.086 538.648 140.033 538.729 139.926C538.809 139.819 538.849 139.683 538.849 139.518ZM536.321 130.783V132.587C536.21 132.596 536.114 132.635 536.033 132.704C535.953 132.773 535.891 132.861 535.849 132.97C535.804 133.077 535.781 133.195 535.781 133.325C535.781 133.493 535.812 133.638 535.874 133.759C535.935 133.879 536.023 133.938 536.136 133.936C536.217 133.938 536.291 133.904 536.36 133.833C536.429 133.76 536.482 133.619 536.52 133.411L536.719 132.303C536.82 131.744 536.992 131.328 537.234 131.056C537.473 130.782 537.793 130.643 538.196 130.641C538.584 130.643 538.922 130.759 539.208 130.989C539.492 131.216 539.712 131.527 539.869 131.923C540.022 132.316 540.099 132.764 540.099 133.268C540.099 134.102 539.929 134.754 539.588 135.225C539.247 135.694 538.797 135.956 538.239 136.01V134.064C538.411 134.038 538.545 133.953 538.64 133.808C538.732 133.661 538.778 133.477 538.778 133.254C538.778 133.074 538.748 132.926 538.686 132.81C538.624 132.692 538.537 132.632 538.423 132.629C538.319 132.632 538.236 132.684 538.175 132.786C538.113 132.885 538.063 133.041 538.026 133.254L537.855 134.22C537.758 134.777 537.573 135.193 537.301 135.47C537.029 135.747 536.678 135.884 536.25 135.882C535.871 135.884 535.55 135.785 535.288 135.584C535.022 135.38 534.821 135.09 534.684 134.714C534.544 134.335 534.474 133.886 534.474 133.368C534.474 132.58 534.638 131.958 534.964 131.504C535.291 131.047 535.743 130.806 536.321 130.783ZM540 129.89H534.545V127.929H540V129.89ZM533.977 128.909C533.977 129.175 533.89 129.402 533.714 129.591C533.539 129.781 533.329 129.875 533.082 129.875C532.836 129.875 532.625 129.781 532.45 129.591C532.275 129.402 532.187 129.175 532.187 128.909C532.187 128.642 532.275 128.415 532.45 128.228C532.625 128.038 532.836 127.944 533.082 127.944C533.329 127.944 533.539 128.038 533.714 128.228C533.89 128.415 533.977 128.642 533.977 128.909ZM540 126.931H534.545V125.027H535.582V124.97C535.199 124.871 534.918 124.714 534.741 124.498C534.563 124.28 534.474 124.026 534.474 123.735C534.474 123.649 534.481 123.565 534.496 123.482C534.508 123.397 534.525 123.316 534.549 123.237H536.222C536.188 123.334 536.164 123.454 536.147 123.596C536.13 123.738 536.122 123.86 536.122 123.962C536.122 124.154 536.166 124.326 536.253 124.48C536.339 124.632 536.459 124.751 536.616 124.839C536.77 124.927 536.951 124.97 537.159 124.97H540V126.931ZM540 120.631H532.727V115.389H534.318V118.656H535.568V115.659H537.159V118.656H538.409V115.404H540V120.631ZM542.045 113.189C542.045 113.413 542.028 113.628 541.992 113.831C541.959 114.035 541.913 114.214 541.854 114.368L540.462 113.941C540.518 113.78 540.555 113.634 540.572 113.501C540.588 113.366 540.579 113.251 540.543 113.157C540.508 113.06 540.44 112.99 540.341 112.947L540.241 112.904L534.545 114.822V112.777L538.324 111.896V111.839L534.545 110.944V108.885L540.454 110.873C540.755 110.973 541.025 111.117 541.264 111.306C541.506 111.494 541.696 111.74 541.836 112.045C541.976 112.351 542.045 112.732 542.045 113.189ZM540 108.327H534.545V106.466H535.582V106.409C535.241 106.296 534.972 106.102 534.773 105.827C534.574 105.552 534.474 105.226 534.474 104.847C534.474 104.463 534.576 104.133 534.78 103.856C534.981 103.579 535.249 103.412 535.582 103.355V103.299C535.249 103.206 534.981 103.01 534.78 102.709C534.576 102.409 534.474 102.056 534.474 101.651C534.474 101.128 534.642 100.704 534.979 100.38C535.315 100.053 535.762 99.8896 536.321 99.8896H540V101.85H536.818C536.579 101.85 536.392 101.91 536.257 102.031C536.12 102.152 536.051 102.314 536.051 102.517C536.051 102.719 536.12 102.878 536.257 102.997C536.392 103.113 536.579 103.171 536.818 103.171H540V105.046H536.818C536.579 105.046 536.392 105.106 536.257 105.227C536.12 105.348 536.051 105.51 536.051 105.713C536.051 105.848 536.082 105.964 536.143 106.061C536.205 106.159 536.294 106.234 536.41 106.289C536.523 106.341 536.66 106.367 536.818 106.367H540V108.327ZM540.099 96.3091C540.099 96.8915 539.988 97.3934 539.766 97.8148C539.541 98.2339 539.219 98.557 538.8 98.7843C538.378 99.0092 537.874 99.1216 537.287 99.1216C536.723 99.1216 536.231 99.008 535.81 98.7807C535.388 98.5535 535.06 98.2327 534.826 97.8184C534.592 97.4041 534.474 96.9152 534.474 96.3518C534.474 95.9398 534.538 95.567 534.666 95.2332C534.794 94.8993 534.98 94.6141 535.224 94.3773C535.465 94.1406 535.759 93.9583 536.104 93.8305C536.45 93.7026 536.839 93.6387 537.273 93.6387H537.727V98.5109H536.648V95.4427C536.491 95.445 536.354 95.4853 536.236 95.5634C536.115 95.6392 536.021 95.7422 535.955 95.8724C535.887 96.0002 535.852 96.1458 535.852 96.3091C535.852 96.4678 535.887 96.6134 535.955 96.7459C536.021 96.8785 536.114 96.985 536.232 97.0655C536.351 97.1437 536.489 97.1851 536.648 97.1898H537.812C537.988 97.1898 538.144 97.1531 538.281 97.0797C538.418 97.0064 538.526 96.901 538.604 96.7637C538.682 96.6264 538.722 96.4607 538.722 96.2665C538.722 96.1316 538.703 96.0085 538.665 95.8972C538.627 95.7836 538.572 95.6865 538.501 95.606C538.428 95.5255 538.34 95.4663 538.239 95.4285V93.6387C538.617 93.7002 538.946 93.8458 539.226 94.0755C539.503 94.3051 539.718 94.6093 539.872 94.9881C540.024 95.3645 540.099 95.8049 540.099 96.3091ZM536.932 90.8786H540V92.8388H534.545V90.978H535.582V90.9212C535.237 90.8028 534.966 90.5945 534.769 90.2962C534.573 89.9955 534.474 89.6451 534.474 89.2451C534.474 88.8592 534.563 88.5242 534.741 88.2401C534.916 87.9536 535.157 87.7323 535.465 87.576C535.773 87.4174 536.124 87.3393 536.52 87.3416H540V89.3019H536.932C536.662 89.2995 536.45 89.3682 536.296 89.5078C536.142 89.6451 536.065 89.8369 536.065 90.0831C536.065 90.2441 536.101 90.385 536.172 90.5057C536.24 90.6241 536.34 90.7152 536.47 90.7791C536.598 90.8431 536.752 90.8762 536.932 90.8786ZM540 84.4102H532.727V82.4357H535.668V82.3363L532.727 80.1488V77.8477L535.966 80.3051L540 77.7909V80.1488L537.273 81.7823L538.125 82.4357H540V84.4102ZM540 75.3725V77.5032L532.727 75.1027V72.4038L540 70.0032V72.1339L534.73 73.7248V73.7816L540 75.3725ZM537.131 75.7703V71.7646H538.608V75.7703H537.131ZM532.727 70.3432V68.1415L535.682 66.7211V66.6643L532.727 65.2438V63.0421L537.713 65.7126H540V67.6728H537.713L532.727 70.3432ZM540 61.2514V63.3821L532.727 60.9816V58.2827L540 55.8821V58.0128L534.73 59.6037V59.6605L540 61.2514ZM537.131 61.6492V57.6435H538.608V61.6492H537.131ZM540 55.1817H532.727V52.0283C532.727 51.4743 532.802 51.0091 532.951 50.6327C533.1 50.2539 533.311 49.9686 533.583 49.7768C533.855 49.5827 534.176 49.4856 534.545 49.4856C534.813 49.4856 535.057 49.5448 535.277 49.6632C535.497 49.7792 535.682 49.9426 535.831 50.1533C535.978 50.364 536.079 50.6102 536.136 50.8919H536.207C536.219 50.5794 536.298 50.2953 536.445 50.0396C536.59 49.7839 536.79 49.5803 537.045 49.4288C537.299 49.2773 537.597 49.2016 537.94 49.2016C538.338 49.2016 538.692 49.3057 539.002 49.5141C539.312 49.72 539.556 50.0136 539.734 50.3947C539.911 50.7759 540 51.2304 540 51.7584V55.1817ZM538.423 53.2072V52.2839C538.423 51.9525 538.362 51.7039 538.239 51.5382C538.113 51.3725 537.928 51.2896 537.685 51.2896C537.514 51.2896 537.37 51.3287 537.251 51.4068C537.133 51.4849 537.043 51.5962 536.981 51.7406C536.92 51.8827 536.889 52.0543 536.889 52.2555V53.2072H538.423ZM535.668 53.2072V52.3976C535.668 52.2248 535.64 52.0721 535.586 51.9395C535.531 51.8069 535.453 51.7039 535.352 51.6305C535.247 51.5548 535.121 51.5169 534.972 51.5169C534.747 51.5169 534.575 51.5974 534.457 51.7584C534.336 51.9194 534.276 52.123 534.276 52.3692V53.2072H535.668ZM540 46.6128V48.7435L532.727 46.3429V43.644L540 41.2435V43.3741L534.73 44.9651V45.0219L540 46.6128ZM537.131 47.0105V43.0048H538.608V47.0105H537.131ZM535 36.9057C534.763 36.9247 534.579 37.0135 534.446 37.1721C534.313 37.3283 534.247 37.5663 534.247 37.8859C534.247 38.0895 534.272 38.2564 534.322 38.3866C534.369 38.5144 534.434 38.6091 534.517 38.6707C534.6 38.7322 534.695 38.7642 534.801 38.7665C534.889 38.7713 534.968 38.7559 535.039 38.7204C535.108 38.6825 535.17 38.6233 535.227 38.5428C535.282 38.4623 535.331 38.3593 535.376 38.2339C535.421 38.1084 535.462 37.9593 535.497 37.7864L535.625 37.1898C535.71 36.7874 535.823 36.4429 535.962 36.1565C536.102 35.87 536.267 35.6356 536.456 35.4533C536.643 35.271 536.854 35.1373 537.088 35.0521C537.322 34.9645 537.578 34.9195 537.855 34.9171C538.333 34.9195 538.738 35.039 539.07 35.2758C539.401 35.5125 539.653 35.8511 539.826 36.2914C539.999 36.7294 540.085 37.2561 540.085 37.8717C540.085 38.5038 539.992 39.0554 539.805 39.5265C539.618 39.9952 539.33 40.3598 538.942 40.6202C538.551 40.8783 538.052 41.0085 537.443 41.0109V39.1359C537.666 39.124 537.853 39.0684 538.004 38.969C538.156 38.8695 538.271 38.7298 538.349 38.5499C538.427 38.3676 538.466 38.151 538.466 37.9001C538.466 37.6894 538.44 37.513 538.388 37.3709C538.336 37.2289 538.263 37.1212 538.171 37.0478C538.079 36.9744 537.973 36.9365 537.855 36.9342C537.744 36.9365 537.647 36.9732 537.564 37.0442C537.479 37.1129 537.403 37.2265 537.337 37.3852C537.268 37.5438 537.204 37.758 537.145 38.0279L536.989 38.7523C536.849 39.3963 536.616 39.9041 536.289 40.2758C535.96 40.6451 535.511 40.8286 534.943 40.8262C534.481 40.8286 534.078 40.7055 533.732 40.4569C533.384 40.2059 533.113 39.8591 532.919 39.4164C532.725 38.9713 532.628 38.4611 532.628 37.8859C532.628 37.2987 532.726 36.7909 532.923 36.3624C533.119 35.9339 533.396 35.6037 533.753 35.3717C534.109 35.1373 534.524 35.0189 535 35.0165V36.9057ZM539.972 38.2836V37.5876L540.298 37.6444C540.341 37.3627 540.44 37.1437 540.597 36.9874C540.753 36.8312 540.947 36.7519 541.179 36.7495C541.562 36.7448 541.864 36.933 542.084 37.3141C542.305 37.6929 542.415 38.2149 542.415 38.8802H541.662C541.662 38.5298 541.624 38.2623 541.548 38.0776C541.475 37.893 541.366 37.7959 541.222 37.7864C541.089 37.777 540.979 37.829 540.891 37.9427C540.806 38.0539 540.746 38.2244 540.71 38.454L539.972 38.2836ZM532.727 32.1916H540V34.166H532.727V32.1916Z" fill="white"/>
</g>
<defs>
<clipPath id="clip0_11_52">
<rect width="320" height="568" fill="white" transform="matrix(0 -1 1 0 0 320)"/>
</clipPath>
</defs>
</svg>
